SplineFontDB: 3.0
FontName: GenEiLateGo_v2
FullName: GenEi LateGo v2 Medium
FamilyName: GenEi LateGo v2
Weight: Medium
Copyright: Copyright (c) 2014-2018, o_tamon, with Reserved Font Name 'GenEi'. | Copyright (c) 2014, 2015 Adobe Systems Incorporated (http://www.adobe.com/), with Reserved Font Name 'Source'. | Copyright (C) FONT 910 | Copyright (c) 2003-2012, Philipp H. Poll | Copyright (c) 2008-2014, Classical Letter Project | Copyright 2013 Google Inc. | Font Awesome
Version: 2.1;Original Version 1.004
ItalicAngle: 0
UnderlinePosition: -300
UnderlineWidth: 50
Ascent: 900
Descent: 124
InvalidEm: 0
sfntRevision: 0x00010000
LayerCount: 2
Layer: 0 1 "+gMyXYgAA" 1
Layer: 1 1 "+Uk2XYgAA" 0
HasVMetrics: 1
XUID: [1021 91 -2109071990 16615497]
BaseHoriz: 4 'icfb' 'icft' 'ideo' 'romn'
BaseScript: 'DFLT' 2  -79 857 -123 0
BaseScript: 'cyrl' 3  -79 857 -123 0
BaseScript: 'grek' 3  -79 857 -123 0
BaseScript: 'hani' 2  -79 857 -123 0
BaseScript: 'kana' 2  -79 857 -123 0
BaseScript: 'latn' 3  -79 857 -123 0
BaseVert: 4 'icfb' 'icft' 'ideo' 'romn'
BaseScript: 'DFLT' 2  44 980 0 123
BaseScript: 'cyrl' 3  44 980 0 123
BaseScript: 'grek' 3  44 980 0 123
BaseScript: 'hani' 2  44 980 0 123
BaseScript: 'kana' 2  44 980 0 123
BaseScript: 'latn' 3  44 980 0 123
StyleMap: 0x0040
FSType: 0
OS2Version: 3
OS2_WeightWidthSlopeOnly: 0
OS2_UseTypoMetrics: 0
CreationTime: 1444912286
ModificationTime: 1558404199
PfmFamily: 17
TTFWeight: 500
TTFWidth: 5
LineGap: 0
VLineGap: 0
Panose: 2 0 6 3 0 0 0 0 0 0
OS2TypoAscent: 900
OS2TypoAOffset: 0
OS2TypoDescent: -124
OS2TypoDOffset: 0
OS2TypoLinegap: 0
OS2WinAscent: 1024
OS2WinAOffset: 0
OS2WinDescent: 256
OS2WinDOffset: 0
HheadAscent: 900
HheadAOffset: 0
HheadDescent: -124
HheadDOffset: 0
OS2SubXSize: 665
OS2SubYSize: 716
OS2SubXOff: 0
OS2SubYOff: 143
OS2SupXSize: 665
OS2SupYSize: 716
OS2SupXOff: 0
OS2SupYOff: 491
OS2StrikeYSize: 51
OS2StrikeYPos: 265
OS2CapHeight: 761
OS2XHeight: 510
OS2Vendor: 'otmn'
OS2CodePages: 00120004.00020000

StartChar: uni3041
Encoding: 12353 12353 0
Width: 1024
GlyphClass: 2
Flags: W
LayerCount: 2
Fore
SplineSet
167 103 m 128,-1,1
 167 157 167 157 196 209 c 128,-1,2
 225 261 225 261 274.5 308 c 128,-1,3
 324 355 324 355 383 384 c 1,4,5
 385 453 385 453 393 521 c 1,6,7
 293 521 293 521 213 527 c 1,8,-1
 211 588 l 1,9,10
 286 577 286 577 398 577 c 1,11,-1
 407 639 l 2,12,13
 408 645 408 645 408 652 c 2,14,-1
 408 691 l 1,15,-1
 514 688 l 1,16,17
 499 639 499 639 490 580 c 1,18,19
 633 587 633 587 782 617 c 1,20,-1
 784 557 l 1,21,22
 645 533 645 533 483 525 c 1,23,24
 481 502 481 502 479 472.5 c 128,-1,25
 477 443 477 443 475 421 c 1,26,27
 556 440 556 440 610 440 c 2,28,-1
 626 440 l 2,29,30
 633 440 633 440 641 439 c 1,31,32
 653 479 653 479 654 502 c 1,33,-1
 719 485 l 1,34,35
 715 475 715 475 708.5 460 c 128,-1,36
 702 445 702 445 697 430 c 1,37,38
 810 401 810 401 863 318 c 0,39,40
 890 276 890 276 890 220 c 0,41,42
 890 102 890 102 812.5 42 c 128,-1,43
 735 -18 735 -18 578 -43 c 1,44,-1
 548 1 l 1,45,46
 672 14 672 14 731 69 c 128,-1,47
 790 124 790 124 790 224 c 0,48,49
 790 293 790 293 745 342 c 0,50,51
 721 368 721 368 680 380 c 1,52,53
 611 207 611 207 500 108 c 1,54,55
 504 93 504 93 525 23 c 1,56,-1
 431 -5 l 1,57,58
 420 30 420 30 417 44 c 1,59,60
 342 -3 342 -3 286.5 -3 c 128,-1,61
 231 -3 231 -3 199 23 c 128,-1,0
 167 49 167 49 167 103 c 128,-1,1
264 129 m 0,62,63
 264 105 264 105 274 87.5 c 128,-1,64
 284 70 284 70 307 70 c 0,65,66
 348 70 348 70 403 103 c 1,67,68
 383 193 383 193 381 322 c 1,69,70
 329 287 329 287 296.5 236.5 c 128,-1,71
 264 186 264 186 264 129 c 0,62,63
473 365 m 1,72,73
 473 250 473 250 486 173 c 1,74,75
 575 262 575 262 624 387 c 1,76,77
 587 387 587 387 554.5 384 c 128,-1,78
 522 381 522 381 473 365 c 1,72,73
EndSplineSet
Substitution2: "'vrt2' Vertical Rotation & Alternates lookup 1 subtable" uni3041.vert
EndChar

StartChar: uni3042
Encoding: 12354 12354 1
Width: 1024
GlyphClass: 2
Flags: W
LayerCount: 2
Fore
SplineSet
103 139.5 m 128,-1,1
 103 213 103 213 176.5 307 c 128,-1,2
 250 401 250 401 354 451 c 1,3,4
 354 488 354 488 367 616 c 1,5,6
 249 616 249 616 157 623 c 1,7,-1
 155 685 l 1,8,9
 244 672 244 672 372 672 c 1,10,-1
 381 749 l 2,11,12
 385 778 385 778 385 816 c 1,13,-1
 499 813 l 1,14,15
 486 774 486 774 480 733.5 c 128,-1,16
 474 693 474 693 471 676 c 1,17,18
 633 683 633 683 811 719 c 1,19,-1
 812 657 l 1,20,21
 645 628 645 628 464 621 c 1,22,23
 460 590 460 590 453 489 c 1,24,25
 549 514 549 514 613 514 c 0,26,27
 632 514 632 514 653 512 c 1,28,29
 666 554 666 554 669 585 c 1,30,-1
 734 568 l 1,31,32
 730 557 730 557 722.5 537 c 128,-1,33
 715 517 715 517 711 503 c 1,34,35
 771 489 771 489 822 456 c 0,36,37
 936 384 936 384 936 256.5 c 128,-1,38
 936 129 936 129 847.5 59.5 c 128,-1,39
 759 -10 759 -10 578 -39 c 1,40,-1
 549 3 l 1,41,42
 827 32 827 32 827 267 c 0,43,44
 827 350 827 350 773 408 c 0,45,46
 744 439 744 439 692 453 c 1,47,48
 614 255 614 255 480 132 c 1,49,50
 486 111 486 111 512 29 c 1,51,-1
 411 -1 l 1,52,53
 406 14 406 14 391 65 c 1,54,55
 297 7 297 7 235.5 6.5 c 128,-1,56
 174 6 174 6 138.5 36 c 128,-1,0
 103 66 103 66 103 139.5 c 128,-1,1
208 156 m 0,57,58
 208 127 208 127 220 105 c 128,-1,59
 232 83 232 83 262 83 c 0,60,61
 311 83 311 83 378 124 c 1,62,63
 352 252 352 252 352 387 c 1,64,65
 287 346 287 346 247.5 286 c 128,-1,66
 208 226 208 226 208 156 c 0,57,58
451 432 m 1,67,68
 451 286 451 286 467 199 c 1,69,70
 579 311 579 311 636 460 c 1,71,72
 563 460 563 460 527.5 453 c 128,-1,73
 492 446 492 446 451 432 c 1,67,68
EndSplineSet
Substitution2: "'vrt2' Vertical Rotation & Alternates lookup 1 subtable" uni3042.vert
EndChar

StartChar: uni3043
Encoding: 12355 12355 2
Width: 1024
GlyphClass: 2
Flags: W
LayerCount: 2
Fore
SplineSet
173 596 m 1,0,-1
 295 594 l 1,1,2
 286 534 286 534 286 453 c 128,-1,3
 286 372 286 372 292.5 307 c 128,-1,4
 299 242 299 242 315 185.5 c 128,-1,5
 331 129 331 129 353.5 95.5 c 128,-1,6
 376 62 376 62 400 62 c 128,-1,7
 424 62 424 62 443 88 c 0,8,9
 471 124 471 124 504 231 c 1,10,-1
 552 182 l 1,11,-1
 551 178 l 1,12,13
 494 -33 494 -33 390 -33 c 0,14,15
 343 -33 343 -33 301.5 2 c 128,-1,16
 260 37 260 37 230 108 c 0,17,18
 180 228 180 228 180 516 c 0,19,20
 180 565 180 565 173 596 c 1,0,-1
646 541 m 1,21,-1
 703 561 l 1,22,23
 875 401 875 401 897 146 c 1,24,-1
 793 105 l 1,25,26
 780 280 780 280 721 416 c 0,27,28
 691 487 691 487 646 541 c 1,21,-1
EndSplineSet
Substitution2: "'vrt2' Vertical Rotation & Alternates lookup 1 subtable" uni3043.vert
EndChar

StartChar: uni3044
Encoding: 12356 12356 3
Width: 1024
GlyphClass: 2
Flags: W
LayerCount: 2
Fore
SplineSet
121 722 m 1,0,-1
 252 720 l 1,1,2
 242 661 242 661 242 552.5 c 128,-1,3
 242 444 242 444 248 382 c 0,4,5
 260 258 260 258 296.5 173.5 c 128,-1,6
 333 89 333 89 379 89 c 0,7,8
 407 89 407 89 431.5 120 c 128,-1,9
 456 151 456 151 470.5 188.5 c 128,-1,10
 485 226 485 226 501 282 c 1,11,-1
 550 230 l 1,12,13
 484 -14 484 -14 367 -14 c 0,14,15
 281 -14 281 -14 220 74 c 0,16,17
 127 207 127 207 127 609 c 0,18,19
 127 694 127 694 121 722 c 1,0,-1
671 647 m 1,20,-1
 730 669 l 1,21,22
 901 510 901 510 951 193 c 1,23,-1
 838 148 l 1,24,25
 822 465 822 465 671 647 c 1,20,-1
EndSplineSet
Substitution2: "'vrt2' Vertical Rotation & Alternates lookup 1 subtable" uni3044.vert
EndChar

StartChar: uni3045
Encoding: 12357 12357 4
Width: 1024
GlyphClass: 2
Flags: W
LayerCount: 2
Fore
SplineSet
234 402 m 1,0,1
 296 405 296 405 436 446 c 0,2,3
 497 464 497 464 572 464 c 0,4,5
 677 464 677 464 740.5 413 c 128,-1,6
 804 362 804 362 804 262 c 0,7,8
 804 45 804 45 555 -30 c 0,9,10
 480 -53 480 -53 392 -66 c 1,11,-1
 362 -17 l 1,12,13
 525 2 525 2 609.5 68.5 c 128,-1,14
 694 135 694 135 694 266 c 0,15,16
 694 344 694 344 637 382 c 0,17,18
 608 401 608 401 548 401 c 0,19,20
 444 401 444 401 254 331 c 1,21,-1
 234 402 l 1,0,1
337 597 m 1,22,-1
 347 656 l 1,23,24
 543 649 543 649 730 613 c 1,25,-1
 714 512 l 1,26,27
 627 554 627 554 528.5 572 c 128,-1,28
 430 590 430 590 337 597 c 1,22,-1
EndSplineSet
Substitution2: "'vrt2' Vertical Rotation & Alternates lookup 1 subtable" uni3045.vert
EndChar

StartChar: uni3046
Encoding: 12358 12358 5
Width: 1024
GlyphClass: 2
Flags: W
LayerCount: 2
Fore
SplineSet
168 492 m 1,0,1
 197 494 197 494 259.5 507.5 c 128,-1,2
 322 521 322 521 365 534 c 0,3,4
 475 566 475 566 569 566 c 0,5,6
 691 566 691 566 763 508.5 c 128,-1,7
 835 451 835 451 835 336 c 0,8,9
 835 88 835 88 549 2 c 0,10,11
 462 -24 462 -24 361 -40 c 1,12,-1
 332 7 l 1,13,14
 520 31 520 31 617.5 109.5 c 128,-1,15
 715 188 715 188 715 340 c 0,16,17
 715 433 715 433 647 478 c 0,18,19
 612 502 612 502 542 502 c 128,-1,20
 472 502 472 502 405.5 484 c 128,-1,21
 339 466 339 466 290 452.5 c 128,-1,22
 241 439 241 439 188 418 c 1,23,-1
 168 492 l 1,0,1
300 729 m 1,24,-1
 311 790 l 1,25,26
 532 783 532 783 749 740 c 1,27,-1
 730 632 l 1,28,29
 631 680 631 680 517.5 700.5 c 128,-1,30
 404 721 404 721 300 729 c 1,24,-1
EndSplineSet
Substitution2: "'vrt2' Vertical Rotation & Alternates lookup 1 subtable" uni3046.vert
EndChar

StartChar: uni3047
Encoding: 12359 12359 6
Width: 1024
GlyphClass: 2
Flags: W
LayerCount: 2
Fore
SplineSet
170 0 m 1,0,1
 203 25 203 25 226 50 c 1,2,-1
 226 51 l 1,3,-1
 267 92 l 2,4,5
 297 122 297 122 337.5 162 c 128,-1,6
 378 202 378 202 421.5 245.5 c 128,-1,7
 465 289 465 289 504.5 329 c 128,-1,8
 544 369 544 369 571 396 c 1,9,10
 534 393 534 393 418.5 384.5 c 128,-1,11
 303 376 303 376 247 367 c 1,12,-1
 241 435 l 1,13,14
 276 433 276 433 310 433 c 0,15,16
 351 433 351 433 492.5 445 c 128,-1,17
 634 457 634 457 654 462.5 c 128,-1,18
 674 468 674 468 681 471 c 1,19,-1
 732 412 l 1,20,21
 714 399 714 399 693 380 c 128,-1,22
 672 361 672 361 652 344 c 0,23,24
 574 274 574 274 532 231 c 1,25,26
 614 226 614 226 635 170 c 0,27,28
 644 140 644 140 649.5 101.5 c 128,-1,29
 655 63 655 63 660 45 c 0,30,31
 673 -2 673 -2 715 -2 c 0,32,33
 801 -2 801 -2 879 16 c 1,34,-1
 876 -47 l 1,35,36
 792 -60 792 -60 722.5 -60 c 128,-1,37
 653 -60 653 -60 616 -44 c 0,38,39
 564 -21 564 -21 557 54.5 c 128,-1,40
 550 130 550 130 544 147 c 0,41,42
 533 181 533 181 502 181 c 0,43,44
 490 181 490 181 466 158 c 128,-1,45
 442 135 442 135 430 120.5 c 128,-1,46
 418 106 418 106 368 52 c 128,-1,47
 318 -2 318 -2 265 -67 c 1,48,-1
 170 0 l 1,0,1
342 612 m 1,49,-1
 352 670 l 1,50,51
 600 647 600 647 713 620 c 1,52,-1
 698 522 l 1,53,54
 575 586 575 586 342 612 c 1,49,-1
EndSplineSet
Substitution2: "'vrt2' Vertical Rotation & Alternates lookup 1 subtable" uni3047.vert
EndChar

StartChar: uni3048
Encoding: 12360 12360 7
Width: 1024
GlyphClass: 2
Flags: W
LayerCount: 2
Fore
SplineSet
109 23 m 1,0,1
 142 47 142 47 171 79 c 2,2,-1
 209 117 l 2,3,4
 236 144 236 144 273.5 181 c 128,-1,5
 311 218 311 218 353.5 260.5 c 128,-1,6
 396 303 396 303 438.5 345.5 c 128,-1,7
 481 388 481 388 517.5 425.5 c 128,-1,8
 554 463 554 463 580 488 c 1,9,10
 549 486 549 486 507 482.5 c 128,-1,11
 465 479 465 479 360 471.5 c 128,-1,12
 255 464 255 464 191 454 c 1,13,-1
 186 524 l 1,14,15
 205 522 205 522 232 522 c 2,16,-1
 285 522 l 2,17,18
 321 522 321 522 480 536.5 c 128,-1,19
 639 551 639 551 663 556.5 c 128,-1,20
 687 562 687 562 695 565 c 1,21,-1
 751 502 l 1,22,23
 717 478 717 478 675.5 439 c 128,-1,24
 634 400 634 400 594.5 364.5 c 128,-1,25
 555 329 555 329 514 288 c 1,26,27
 616 285 616 285 639 219 c 0,28,29
 647 195 647 195 655.5 146 c 128,-1,30
 664 97 664 97 669 74 c 0,31,32
 683 16 683 16 736 16 c 0,33,34
 824 16 824 16 922 37 c 1,35,-1
 919 -29 l 1,36,37
 844 -43 844 -43 730 -43 c 0,38,39
 664 -43 664 -43 623 -24 c 0,40,41
 565 2 565 2 556 88.5 c 128,-1,42
 547 175 547 175 541 195 c 128,-1,43
 535 215 535 215 520.5 226.5 c 128,-1,44
 506 238 506 238 492 238 c 128,-1,45
 478 238 478 238 457.5 222 c 128,-1,46
 437 206 437 206 412.5 178 c 128,-1,47
 388 150 388 150 323 78.5 c 128,-1,48
 258 7 258 7 213 -49 c 1,49,-1
 109 23 l 1,0,1
307 738 m 1,50,-1
 318 797 l 1,51,52
 580 776 580 776 728 739 c 1,53,-1
 714 636 l 1,54,55
 570 710 570 710 307 738 c 1,50,-1
EndSplineSet
Substitution2: "'vrt2' Vertical Rotation & Alternates lookup 1 subtable" uni3048.vert
EndChar

StartChar: uni3049
Encoding: 12361 12361 8
Width: 1024
GlyphClass: 2
Flags: W
LayerCount: 2
Fore
SplineSet
156 81 m 0,0,1
 156 169 156 169 254 232 c 0,2,3
 298 260 298 260 348 282 c 1,4,-1
 349 433 l 1,5,6
 316 431 316 431 273.5 431 c 128,-1,7
 231 431 231 431 177 437 c 1,8,-1
 175 497 l 1,9,10
 271 484 271 484 350 489 c 1,11,-1
 350 584 l 2,12,13
 350 627 350 627 346 659 c 1,14,-1
 455 659 l 1,15,16
 453 646 453 646 452 623.5 c 128,-1,17
 451 601 451 601 450 586 c 0,18,19
 446 531 446 531 445 500 c 1,20,21
 535 511 535 511 618 537 c 1,22,-1
 620 475 l 1,23,24
 529 453 529 453 444 443 c 1,25,26
 442 377 442 377 442 314 c 1,27,28
 527 339 527 339 604.5 339 c 128,-1,29
 682 339 682 339 735 316 c 128,-1,30
 788 293 788 293 819.5 250.5 c 128,-1,31
 851 208 851 208 851 150 c 0,32,33
 851 39 851 39 757 -12 c 0,34,35
 672 -59 672 -59 538 -58 c 1,36,-1
 518 -8 l 1,37,38
 622 -8 622 -8 685.5 30 c 128,-1,39
 749 68 749 68 749 147.5 c 128,-1,40
 749 227 749 227 687 266 c 0,41,42
 657 285 657 285 614 285 c 0,43,44
 532 285 532 285 443 258 c 1,45,46
 447 111 447 111 447 65 c 0,47,48
 447 -12 447 -12 416 -38.5 c 128,-1,49
 385 -65 385 -65 327 -65 c 128,-1,50
 269 -65 269 -65 212.5 -26.5 c 128,-1,51
 156 12 156 12 156 81 c 0,0,1
256 85 m 0,52,53
 256 57 256 57 269.5 37.5 c 128,-1,54
 283 18 283 18 300 8.5 c 128,-1,55
 317 -1 317 -1 329 -1 c 0,56,57
 352 -1 352 -1 352 28 c 2,58,-1
 352 79 l 2,59,60
 350 180 350 180 350 221 c 1,61,62
 307 198 307 198 281.5 169 c 128,-1,63
 256 140 256 140 256 85 c 0,52,53
676 518 m 1,64,-1
 708 562 l 1,65,66
 780 537 780 537 840 501 c 128,-1,67
 900 465 900 465 926 445 c 1,68,-1
 873 360 l 1,69,70
 831 411 831 411 775.5 451 c 128,-1,71
 720 491 720 491 676 518 c 1,64,-1
EndSplineSet
Substitution2: "'vrt2' Vertical Rotation & Alternates lookup 1 subtable" uni3049.vert
EndChar

StartChar: uni304A
Encoding: 12362 12362 9
Width: 1024
GlyphClass: 2
Flags: W
LayerCount: 2
Fore
SplineSet
96 143 m 0,0,1
 96 244 96 244 209 316 c 0,2,3
 260 348 260 348 319 374 c 1,4,-1
 321 557 l 1,5,6
 279 554 279 554 229 554 c 128,-1,7
 179 554 179 554 121 560 c 1,8,-1
 119 623 l 1,9,10
 205 613 205 613 243 612.5 c 128,-1,11
 281 612 281 612 322 614 c 1,12,-1
 323 727 l 2,13,14
 323 796 323 796 317 821 c 1,15,-1
 434 821 l 1,16,17
 432 805 432 805 431 777.5 c 128,-1,18
 430 750 430 750 429 731 c 128,-1,19
 428 712 428 712 427 681.5 c 128,-1,20
 426 651 426 651 424 626 c 1,21,22
 538 640 538 640 626 667 c 1,23,-1
 627 605 l 1,24,25
 524 579 524 579 424 567 c 1,26,27
 423 526 423 526 422 485.5 c 128,-1,28
 421 445 421 445 421 409 c 1,29,30
 633 469 633 469 764 412 c 0,31,32
 825 386 825 386 860.5 337.5 c 128,-1,33
 896 289 896 289 896 224 c 0,34,35
 896 100 896 100 789 38 c 0,36,37
 694 -16 694 -16 539 -15 c 1,38,-1
 519 35 l 1,39,40
 639 35 639 35 712 81.5 c 128,-1,41
 785 128 785 128 785 225 c 0,42,43
 785 266 785 266 766.5 302.5 c 128,-1,44
 748 339 748 339 712 361.5 c 128,-1,45
 676 384 676 384 626 384 c 0,46,47
 525 384 525 384 422 351 c 1,48,-1
 427 124 l 2,49,50
 427 15 427 15 366 -10 c 0,51,52
 303 -35 303 -35 230 -12 c 0,53,54
 195 -2 195 -2 164 18 c 0,55,56
 96 64 96 64 96 143 c 0,0,1
205 147 m 0,57,58
 205 113 205 113 221 90.5 c 128,-1,59
 237 68 237 68 258 56 c 128,-1,60
 279 44 279 44 295 44 c 0,61,62
 325 44 325 44 325 87 c 0,63,64
 325 98 325 98 324.5 125.5 c 128,-1,65
 324 153 324 153 323.5 187 c 128,-1,66
 323 221 323 221 322.5 255 c 128,-1,67
 322 289 322 289 322 313 c 1,68,69
 269 286 269 286 237 250.5 c 128,-1,70
 205 215 205 215 205 147 c 0,57,58
702 652 m 1,71,-1
 734 698 l 1,72,73
 807 673 807 673 879.5 630 c 128,-1,74
 952 587 952 587 981 565 c 1,75,-1
 927 475 l 1,76,77
 862 554 862 554 702 652 c 1,71,-1
EndSplineSet
Substitution2: "'vrt2' Vertical Rotation & Alternates lookup 1 subtable" uni304A.vert
EndChar

StartChar: uni304B
Encoding: 12363 12363 10
Width: 1024
GlyphClass: 2
Flags: W
LayerCount: 2
Fore
SplineSet
76 564 m 1,0,1
 90 563 90 563 103 563 c 2,2,-1
 128 563 l 2,3,4
 173 563 173 563 308 573 c 1,5,6
 337 716 337 716 337 812 c 1,7,-1
 464 800 l 1,8,9
 454 759 454 759 441 687.5 c 128,-1,10
 428 616 428 616 421 583 c 1,11,-1
 517 590 l 1,12,13
 629 590 629 590 674 527 c 0,14,15
 699 492 699 492 699 430 c 0,16,17
 699 -29 699 -29 515 -29 c 0,18,19
 439 -29 439 -29 361 5 c 1,20,-1
 352 62 l 1,21,22
 479 22 479 22 511 52 c 0,23,24
 542 78 542 78 567 197.5 c 128,-1,25
 592 317 592 317 592 416 c 0,26,27
 592 481 592 481 568.5 506.5 c 128,-1,28
 545 532 545 532 498 532 c 0,29,30
 484 532 484 532 459.5 530 c 128,-1,31
 435 528 435 528 409 526 c 1,32,33
 320 169 320 169 194 -37 c 1,34,-1
 80 8 l 1,35,36
 179 142 179 142 260 397 c 0,37,38
 282 464 282 464 295 516 c 1,39,40
 121 500 121 500 86 493 c 1,41,-1
 76 564 l 1,0,1
715 647 m 1,42,-1
 771 673 l 1,43,44
 848 620 848 620 910 519 c 128,-1,45
 972 418 972 418 996 328 c 1,46,-1
 888 275 l 1,47,48
 860 423 860 423 804 528 c 0,49,50
 770 592 770 592 715 647 c 1,42,-1
EndSplineSet
Substitution2: "'vrt2' Vertical Rotation & Alternates lookup 1 subtable" uni304B.vert
EndChar

StartChar: uni304C
Encoding: 12364 12364 11
Width: 1024
GlyphClass: 2
Flags: W
LayerCount: 2
Fore
SplineSet
65 564 m 1,0,1
 78 563 78 563 91 563 c 2,2,-1
 117 563 l 2,3,4
 164 563 164 563 297 573 c 1,5,6
 325 711 325 711 325 804 c 1,7,-1
 452 792 l 1,8,9
 442 750 442 750 434.5 707.5 c 128,-1,10
 427 665 427 665 410 583 c 1,11,-1
 506 590 l 1,12,13
 618 590 618 590 663 527 c 0,14,15
 688 492 688 492 688 429.5 c 128,-1,16
 688 367 688 367 683 303 c 0,17,18
 664 69 664 69 586 0 c 0,19,20
 553 -29 553 -29 504 -29 c 0,21,22
 428 -29 428 -29 350 5 c 1,23,-1
 341 62 l 1,24,25
 465 23 465 23 500 52 c 0,26,27
 514 63 514 63 521 82 c 0,28,29
 581 240 581 240 581 416 c 0,30,31
 581 481 581 481 557.5 506.5 c 128,-1,32
 534 532 534 532 486 532 c 0,33,34
 472 532 472 532 448 530 c 128,-1,35
 424 528 424 528 397 526 c 1,36,37
 308 169 308 169 182 -37 c 1,38,-1
 69 8 l 1,39,40
 168 142 168 142 249 397 c 0,41,42
 271 464 271 464 284 516 c 1,43,44
 118 501 118 501 75 493 c 1,45,-1
 65 564 l 1,0,1
703 647 m 1,46,-1
 760 673 l 1,47,48
 837 620 837 620 898 521 c 128,-1,49
 959 422 959 422 985 328 c 1,50,-1
 877 275 l 1,51,52
 836 512 836 512 703 647 c 1,46,-1
732 810 m 1,53,-1
 771 826 l 1,54,55
 846 760 846 760 896 681 c 1,56,-1
 822 650 l 1,57,58
 790 720 790 720 732 810 c 1,53,-1
849 853 m 1,59,-1
 888 869 l 1,60,61
 963 803 963 803 1013 724 c 1,62,-1
 939 693 l 1,63,64
 907 763 907 763 849 853 c 1,59,-1
EndSplineSet
Substitution2: "'vrt2' Vertical Rotation & Alternates lookup 1 subtable" uni304C.vert
EndChar

StartChar: uni304D
Encoding: 12365 12365 12
Width: 1024
GlyphClass: 2
Flags: W
LayerCount: 2
Fore
SplineSet
539 -49 m 0,0,1
 166 -49 166 -49 166 148 c 0,2,3
 166 338 166 338 434 338 c 0,4,5
 552 338 552 338 659 294 c 1,6,7
 607 369 607 369 563 447 c 1,8,9
 440 432 440 432 343 432 c 128,-1,10
 246 432 246 432 178 436 c 1,11,-1
 176 498 l 1,12,13
 259 489 259 489 349 489 c 128,-1,14
 439 489 439 489 536 500 c 1,15,16
 498 578 498 578 482 620 c 1,17,18
 406 613 406 613 327 613 c 128,-1,19
 248 613 248 613 166 622 c 1,20,-1
 162 683 l 1,21,22
 252 670 252 670 327.5 670 c 128,-1,23
 403 670 403 670 461 675 c 1,24,25
 439 741 439 741 419 805 c 1,26,-1
 536 823 l 1,27,28
 546 758 546 758 568 687 c 1,29,30
 701 706 701 706 802 742 c 1,31,-1
 815 685 l 1,32,33
 708 649 708 649 589 632 c 1,34,35
 608 583 608 583 641 515 c 1,36,37
 757 536 757 536 863 574 c 1,38,-1
 877 517 l 1,39,40
 779 482 779 482 669 463 c 1,41,42
 731 353 731 353 817 248 c 1,43,-1
 759 181 l 1,44,45
 577 275 577 275 434 275 c 0,46,47
 278 275 278 275 278 163 c 0,48,49
 278 17 278 17 566 17 c 0,50,51
 654 17 654 17 738 32 c 1,52,-1
 732 -31 l 1,53,54
 631 -49 631 -49 539 -49 c 0,0,1
EndSplineSet
Substitution2: "'vrt2' Vertical Rotation & Alternates lookup 1 subtable" uni304D.vert
EndChar

StartChar: uni304E
Encoding: 12366 12366 13
Width: 1024
GlyphClass: 2
Flags: W
LayerCount: 2
Fore
SplineSet
505 -49 m 0,0,1
 132 -49 132 -49 132 148 c 0,2,3
 132 338 132 338 400 338 c 0,4,5
 519 338 519 338 626 294 c 1,6,7
 569 376 569 376 529 447 c 1,8,9
 406 431 406 431 309.5 431 c 128,-1,10
 213 431 213 431 144 436 c 1,11,-1
 142 498 l 1,12,13
 225 489 225 489 315 489 c 128,-1,14
 405 489 405 489 502 500 c 1,15,16
 463 581 463 581 450 615 c 1,17,18
 397 611 397 611 319.5 611 c 128,-1,19
 242 611 242 611 132 622 c 1,20,-1
 128 683 l 1,21,22
 229 669 229 669 305 669 c 128,-1,23
 381 669 381 669 429 672 c 1,24,25
 401 752 401 752 385 805 c 1,26,-1
 502 823 l 1,27,28
 511 766 511 766 537 682 c 1,29,30
 656 697 656 697 738 728 c 1,31,-1
 764 674 l 1,32,33
 655 640 655 640 556 627 c 1,34,35
 572 586 572 586 606 515 c 1,36,37
 722 535 722 535 829 574 c 1,38,-1
 843 517 l 1,39,40
 745 482 745 482 634 463 c 1,41,42
 694 355 694 355 783 248 c 1,43,-1
 725 181 l 1,44,45
 543 275 543 275 400 275 c 0,46,47
 244 275 244 275 244 158 c 0,48,49
 244 16 244 16 535 16 c 0,50,51
 615 16 615 16 705 32 c 1,52,-1
 698 -31 l 1,53,54
 597 -49 597 -49 505 -49 c 0,0,1
721 809 m 1,55,-1
 760 825 l 1,56,57
 832 763 832 763 884 681 c 1,58,-1
 810 650 l 1,59,60
 777 723 777 723 721 809 c 1,55,-1
831 851 m 1,61,-1
 870 867 l 1,62,63
 942 805 942 805 994 723 c 1,64,-1
 921 692 l 1,65,66
 890 761 890 761 831 851 c 1,61,-1
EndSplineSet
Substitution2: "'vrt2' Vertical Rotation & Alternates lookup 1 subtable" uni304E.vert
EndChar

StartChar: uni304F
Encoding: 12367 12367 14
Width: 1024
GlyphClass: 2
Flags: W
LayerCount: 2
Fore
SplineSet
196.5 394 m 128,-1,1
 196 444 196 444 275 506 c 0,2,3
 586 753 586 753 637 836 c 1,4,-1
 738 745 l 1,5,6
 719 730 719 730 696 711 c 128,-1,7
 673 692 673 692 652 675 c 128,-1,8
 631 658 631 658 589 628.5 c 128,-1,9
 547 599 547 599 497 567 c 128,-1,10
 447 535 447 535 399 504 c 2,11,-1
 311 449 l 2,12,13
 267 422 267 422 267 395 c 0,14,15
 267 370 267 370 307 344 c 128,-1,16
 347 318 347 318 392 288 c 0,17,18
 511 210 511 210 603 144 c 128,-1,19
 695 78 695 78 759 16 c 1,20,-1
 660 -75 l 1,21,22
 641 -52 641 -52 620 -30.5 c 128,-1,23
 599 -9 599 -9 579 12 c 0,24,25
 546 47 546 47 438.5 143 c 128,-1,26
 331 239 331 239 264 291.5 c 128,-1,0
 197 344 197 344 196.5 394 c 128,-1,1
EndSplineSet
Substitution2: "'vrt2' Vertical Rotation & Alternates lookup 1 subtable" uni304F.vert
EndChar

StartChar: uni3050
Encoding: 12368 12368 15
Width: 1024
GlyphClass: 2
Flags: W
LayerCount: 2
Fore
SplineSet
182 394 m 128,-1,1
 182 444 182 444 261 506 c 0,2,3
 572 753 572 753 623 836 c 1,4,-1
 724 745 l 1,5,6
 703 728 703 728 659.5 693 c 128,-1,7
 616 658 616 658 574 628 c 0,8,9
 531 598 531 598 385 504 c 2,10,-1
 297 449 l 2,11,12
 253 422 253 422 253 395 c 0,13,14
 253 370 253 370 293 344 c 128,-1,15
 333 318 333 318 378 288 c 0,16,17
 649 110 649 110 744 16 c 1,18,-1
 646 -75 l 1,19,20
 627 -52 627 -52 606 -30.5 c 128,-1,21
 585 -9 585 -9 565 12 c 0,22,23
 532 47 532 47 424.5 143 c 128,-1,24
 317 239 317 239 249.5 291.5 c 128,-1,0
 182 344 182 344 182 394 c 128,-1,1
595 559 m 1,25,-1
 634 575 l 1,26,27
 704 516 704 516 755 435 c 1,28,-1
 681 404 l 1,29,30
 647 478 647 478 595 559 c 1,25,-1
716 605 m 1,31,-1
 755 622 l 1,32,33
 825 561 825 561 876 481 c 1,34,-1
 802 451 l 1,35,36
 768 525 768 525 716 605 c 1,31,-1
EndSplineSet
Substitution2: "'vrt2' Vertical Rotation & Alternates lookup 1 subtable" uni3050.vert
EndChar

StartChar: uni3051
Encoding: 12369 12369 16
Width: 1024
GlyphClass: 2
Flags: W
LayerCount: 2
Fore
SplineSet
121 303 m 0,0,1
 121 499 121 499 152 685 c 0,2,3
 162 751 162 751 164 796 c 1,4,-1
 289 783 l 1,5,6
 260 683 260 683 242.5 567 c 128,-1,7
 225 451 225 451 225 367 c 128,-1,8
 225 283 225 283 232.5 213.5 c 128,-1,9
 240 144 240 144 271 29 c 1,10,-1
 169 15 l 1,11,12
 121 166 121 166 121 303 c 0,0,1
399 513 m 1,13,-1
 399 577 l 1,14,15
 528 558 528 558 679 565 c 1,16,17
 675 754 675 754 665 800 c 1,18,-1
 788 800 l 1,19,20
 784 769 784 769 784 711 c 128,-1,21
 784 653 784 653 786 571 c 1,22,23
 860 578 860 578 945 598 c 1,24,-1
 944 534 l 1,25,26
 910 529 910 529 870.5 522.5 c 128,-1,27
 831 516 831 516 786 513 c 1,28,-1
 786 479 l 2,29,30
 786 364 786 364 777 282 c 128,-1,31
 768 200 768 200 741.5 141 c 128,-1,32
 715 82 715 82 665.5 37.5 c 128,-1,33
 616 -7 616 -7 537 -46 c 1,34,-1
 489 -12 l 1,35,36
 555 29 555 29 593.5 71.5 c 128,-1,37
 632 114 632 114 651 168 c 128,-1,38
 670 222 670 222 675.5 297 c 128,-1,39
 681 372 681 372 681 479 c 2,40,-1
 681 507 l 1,41,42
 622 505 622 505 543.5 505 c 128,-1,43
 465 505 465 505 399 513 c 1,13,-1
EndSplineSet
Substitution2: "'vrt2' Vertical Rotation & Alternates lookup 1 subtable" uni3051.vert
EndChar

StartChar: uni3052
Encoding: 12370 12370 17
Width: 1024
GlyphClass: 2
Flags: W
LayerCount: 2
Fore
SplineSet
96 303 m 128,-1,1
 96 440 96 440 108.5 541.5 c 128,-1,2
 121 643 121 643 128.5 697 c 128,-1,3
 136 751 136 751 138 787 c 1,4,-1
 263 775 l 1,5,6
 233 674 233 674 217 562.5 c 128,-1,7
 201 451 201 451 201 367 c 128,-1,8
 201 283 201 283 208.5 213.5 c 128,-1,9
 216 144 216 144 247 29 c 1,10,-1
 144 15 l 1,11,0
 96 166 96 166 96 303 c 128,-1,1
375 513 m 1,12,-1
 375 577 l 1,13,14
 504 558 504 558 654 565 c 1,15,16
 650 754 650 754 640 800 c 1,17,-1
 764 800 l 1,18,19
 760 769 760 769 760 711 c 128,-1,20
 760 653 760 653 762 571 c 1,21,22
 836 578 836 578 921 598 c 1,23,-1
 920 534 l 1,24,25
 886 529 886 529 846.5 522.5 c 128,-1,26
 807 516 807 516 762 513 c 1,27,-1
 762 479 l 2,28,29
 762 364 762 364 752.5 282 c 128,-1,30
 743 200 743 200 716.5 141 c 128,-1,31
 690 82 690 82 641 37.5 c 128,-1,32
 592 -7 592 -7 512 -46 c 1,33,-1
 465 -12 l 1,34,35
 531 29 531 29 569 71.5 c 128,-1,36
 607 114 607 114 626 168 c 128,-1,37
 645 222 645 222 650.5 297 c 128,-1,38
 656 372 656 372 656 479 c 2,39,-1
 656 507 l 1,40,41
 597 505 597 505 518.5 505 c 128,-1,42
 440 505 440 505 375 513 c 1,12,-1
784 808 m 1,43,-1
 823 824 l 1,44,45
 884 770 884 770 922 679 c 1,46,-1
 848 648 l 1,47,48
 840 684 840 684 822 730.5 c 128,-1,49
 804 777 804 777 784 808 c 1,43,-1
889 840 m 1,50,-1
 928 856 l 1,51,52
 988 805 988 805 1026 711 c 1,53,-1
 952 680 l 1,54,55
 944 716 944 716 926.5 762.5 c 128,-1,56
 909 809 909 809 889 840 c 1,50,-1
EndSplineSet
Substitution2: "'vrt2' Vertical Rotation & Alternates lookup 1 subtable" uni3052.vert
EndChar

StartChar: uni3053
Encoding: 12371 12371 18
Width: 1024
GlyphClass: 2
Flags: W
LayerCount: 2
Fore
SplineSet
166 171 m 0,0,1
 166 234 166 234 206 297 c 0,2,3
 225 328 225 328 253 348 c 1,4,-1
 303 319 l 1,5,6
 250 271 250 271 250 202 c 128,-1,7
 250 133 250 133 314.5 103 c 128,-1,8
 379 73 379 73 503 73 c 0,9,10
 711 73 711 73 858 118 c 1,11,-1
 859 3 l 1,12,13
 725 -33 725 -33 507 -33 c 0,14,15
 343 -33 343 -33 254.5 19.5 c 128,-1,16
 166 72 166 72 166 171 c 0,0,1
231 665 m 1,17,-1
 231 726 l 1,18,19
 346 714 346 714 503 714 c 128,-1,20
 660 714 660 714 794 728 c 1,21,-1
 794 642 l 1,22,23
 660 611 660 611 528 522 c 1,24,-1
 487 561 l 1,25,26
 516 585 516 585 564 614.5 c 128,-1,27
 612 644 612 644 637 656 c 1,28,29
 580 653 580 653 474.5 653 c 128,-1,30
 369 653 369 653 231 665 c 1,17,-1
EndSplineSet
Substitution2: "'vrt2' Vertical Rotation & Alternates lookup 1 subtable" uni3053.vert
EndChar

StartChar: uni3054
Encoding: 12372 12372 19
Width: 1024
GlyphClass: 2
Flags: W
LayerCount: 2
Fore
SplineSet
147 171 m 0,0,1
 147 234 147 234 187 297 c 0,2,3
 206 328 206 328 234 348 c 1,4,-1
 285 319 l 1,5,6
 232 271 232 271 231.5 202 c 128,-1,7
 231 133 231 133 295.5 103 c 128,-1,8
 360 73 360 73 484 73 c 0,9,10
 692 73 692 73 840 118 c 1,11,-1
 841 3 l 1,12,13
 707 -33 707 -33 488 -33 c 0,14,15
 324 -33 324 -33 235.5 19.5 c 128,-1,16
 147 72 147 72 147 171 c 0,0,1
213 665 m 1,17,-1
 213 726 l 1,18,19
 328 714 328 714 484.5 714 c 128,-1,20
 641 714 641 714 775 728 c 1,21,-1
 775 642 l 1,22,23
 641 611 641 611 510 522 c 1,24,-1
 469 561 l 1,25,26
 498 585 498 585 545.5 614.5 c 128,-1,27
 593 644 593 644 618 656 c 1,28,29
 561 653 561 653 455.5 653 c 128,-1,30
 350 653 350 653 213 665 c 1,17,-1
733 813 m 1,31,-1
 772 829 l 1,32,33
 843 769 843 769 896 685 c 1,34,-1
 822 654 l 1,35,36
 789 726 789 726 733 813 c 1,31,-1
851 856 m 1,37,-1
 890 872 l 1,38,39
 961 812 961 812 1014 728 c 1,40,-1
 940 697 l 1,41,42
 907 769 907 769 851 856 c 1,37,-1
EndSplineSet
Substitution2: "'vrt2' Vertical Rotation & Alternates lookup 1 subtable" uni3054.vert
EndChar

StartChar: uni3055
Encoding: 12373 12373 20
Width: 1024
GlyphClass: 2
Flags: W
LayerCount: 2
Fore
SplineSet
153 622 m 1,0,1
 259 611 259 611 350.5 611 c 128,-1,2
 442 611 442 611 521 618 c 1,3,4
 510 644 510 644 449 803 c 1,5,-1
 565 822 l 1,6,7
 588 734 588 734 630 633 c 1,8,9
 756 653 756 653 862 688 c 1,10,-1
 874 625 l 1,11,12
 753 591 753 591 654 577 c 1,13,14
 727 418 727 418 836 292 c 1,15,-1
 767 225 l 1,16,17
 583 333 583 333 438 333 c 0,18,19
 272 333 272 333 272 190 c 0,20,21
 272 23 272 23 580 23 c 0,22,23
 663 23 663 23 749 39 c 1,24,-1
 743 -27 l 1,25,26
 654 -41 654 -41 566 -41 c 0,27,28
 160 -41 160 -41 160 179 c 0,29,30
 160 396 160 396 444 396 c 0,31,32
 563 396 563 396 663 345 c 1,33,34
 603 438 603 438 546 563 c 1,35,36
 428 552 428 552 330 552 c 128,-1,37
 232 552 232 552 156 556 c 1,38,-1
 153 622 l 1,0,1
EndSplineSet
Substitution2: "'vrt2' Vertical Rotation & Alternates lookup 1 subtable" uni3055.vert
EndChar

StartChar: uni3056
Encoding: 12374 12374 21
Width: 1024
GlyphClass: 2
Flags: W
LayerCount: 2
Fore
SplineSet
141 622 m 1,0,1
 248 611 248 611 339.5 611 c 128,-1,2
 431 611 431 611 510 618 c 1,3,4
 491 660 491 660 437 803 c 1,5,-1
 554 821 l 1,6,7
 578 729 578 729 618 633 c 1,8,9
 746 653 746 653 851 688 c 1,10,-1
 863 625 l 1,11,12
 742 591 742 591 643 577 c 1,13,14
 717 416 717 416 824 292 c 1,15,-1
 756 225 l 1,16,17
 572 333 572 333 427 333 c 0,18,19
 261 333 261 333 261 190 c 0,20,21
 261 23 261 23 568 23 c 0,22,23
 651 23 651 23 737 39 c 1,24,-1
 732 -27 l 1,25,26
 644 -41 644 -41 556 -41 c 0,27,28
 148 -41 148 -41 148 188 c 0,29,30
 148 396 148 396 426 396 c 0,31,32
 551 396 551 396 651 345 c 1,33,34
 594 433 594 433 535 563 c 1,35,36
 417 552 417 552 318.5 552 c 128,-1,37
 220 552 220 552 144 556 c 1,38,-1
 141 622 l 1,0,1
728 825 m 1,39,-1
 767 842 l 1,40,41
 844 775 844 775 883 714 c 1,42,-1
 809 683 l 1,43,44
 783 741 783 741 728 825 c 1,39,-1
846 867 m 1,45,-1
 885 884 l 1,46,47
 960 819 960 819 1000 756 c 1,48,-1
 927 725 l 1,49,50
 901 783 901 783 846 867 c 1,45,-1
EndSplineSet
Substitution2: "'vrt2' Vertical Rotation & Alternates lookup 1 subtable" uni3056.vert
EndChar

StartChar: uni3057
Encoding: 12375 12375 22
Width: 1024
GlyphClass: 2
Flags: W
LayerCount: 2
Fore
SplineSet
230 181 m 2,0,1
 230 181 230 181 241 685 c 0,2,3
 241 750 241 750 231 802 c 1,4,-1
 367 801 l 1,5,6
 354 707 354 707 350.5 545 c 128,-1,7
 347 383 347 383 345.5 317 c 128,-1,8
 344 251 344 251 344 192.5 c 128,-1,9
 344 134 344 134 364 97 c 0,10,11
 401 28 401 28 491 28 c 128,-1,12
 581 28 581 28 651 56 c 0,13,14
 781 108 781 108 865 232 c 1,15,-1
 901 188 l 1,16,17
 848 92 848 92 757 25 c 0,18,19
 647 -57 647 -57 487.5 -57 c 128,-1,20
 328 -57 328 -57 264 44 c 0,21,22
 230 96 230 96 230 181 c 2,0,1
EndSplineSet
Substitution2: "'vrt2' Vertical Rotation & Alternates lookup 1 subtable" uni3057.vert
EndChar

StartChar: uni3058
Encoding: 12376 12376 23
Width: 1024
GlyphClass: 2
Flags: W
LayerCount: 2
Fore
SplineSet
216 181 m 2,0,1
 216 181 216 181 226 685 c 0,2,3
 226 750 226 750 217 802 c 1,4,-1
 352 801 l 1,5,6
 340 716 340 716 336.5 549.5 c 128,-1,7
 333 383 333 383 331.5 317 c 128,-1,8
 330 251 330 251 330 192.5 c 128,-1,9
 330 134 330 134 350 97 c 0,10,11
 387 28 387 28 476.5 28 c 128,-1,12
 566 28 566 28 636 56 c 0,13,14
 766 108 766 108 851 232 c 1,15,-1
 887 188 l 1,16,17
 834 92 834 92 743 25 c 0,18,19
 633 -57 633 -57 473 -57 c 128,-1,20
 313 -57 313 -57 249 44 c 0,21,22
 216 96 216 96 216 181 c 2,0,1
551 690 m 1,23,-1
 590 707 l 1,24,25
 648 657 648 657 718 549 c 1,26,-1
 644 518 l 1,27,28
 601 613 601 613 551 690 c 1,23,-1
687 741 m 1,29,-1
 726 758 l 1,30,31
 767 723 767 723 803.5 673.5 c 128,-1,32
 840 624 840 624 854 600 c 1,33,-1
 780 569 l 1,34,35
 737 664 737 664 687 741 c 1,29,-1
EndSplineSet
Substitution2: "'vrt2' Vertical Rotation & Alternates lookup 1 subtable" uni3058.vert
EndChar

StartChar: uni3059
Encoding: 12377 12377 24
Width: 1024
GlyphClass: 2
Flags: W
LayerCount: 2
Fore
SplineSet
103 654 m 1,0,-1
 542 667 l 1,1,2
 541 684 541 684 541 722.5 c 128,-1,3
 541 761 541 761 532 814 c 1,4,-1
 656 814 l 1,5,6
 650 771 650 771 650 727 c 2,7,-1
 650 668 l 1,8,-1
 947 667 l 1,9,-1
 946 607 l 1,10,11
 852 611 852 611 649 611 c 1,12,13
 650 569 650 569 650 521 c 2,14,-1
 650 441 l 1,15,16
 686 385 686 385 686 304.5 c 128,-1,17
 686 224 686 224 655 159 c 0,18,19
 593 28 593 28 360 -39 c 1,20,-1
 316 2 l 1,21,22
 404 22 404 22 466 71.5 c 128,-1,23
 528 121 528 121 548 187 c 1,24,25
 517 176 517 176 485 176 c 0,26,27
 408 176 408 176 360 205 c 0,28,29
 298 242 298 242 298 337 c 0,30,31
 298 395 298 395 324.5 434.5 c 128,-1,32
 351 474 351 474 395 494.5 c 128,-1,33
 439 515 439 515 479.5 515 c 128,-1,34
 520 515 520 515 544 509 c 1,35,-1
 543 611 l 1,36,37
 308 607 308 607 104 592 c 1,38,-1
 103 654 l 1,0,-1
403 346.5 m 128,-1,40
 403 291 403 291 427 261 c 128,-1,41
 451 231 451 231 490 231 c 0,42,43
 568 231 568 231 568 345.5 c 128,-1,44
 568 460 568 460 492 460 c 0,45,46
 451 460 451 460 427 431 c 128,-1,39
 403 402 403 402 403 346.5 c 128,-1,40
EndSplineSet
Substitution2: "'vrt2' Vertical Rotation & Alternates lookup 1 subtable" uni3059.vert
EndChar

StartChar: uni305A
Encoding: 12378 12378 25
Width: 1024
GlyphClass: 2
Flags: W
LayerCount: 2
Fore
SplineSet
75 654 m 1,0,-1
 513 667 l 1,1,2
 512 684 512 684 512 722.5 c 128,-1,3
 512 761 512 761 504 814 c 1,4,-1
 628 814 l 1,5,6
 622 771 622 771 622 727 c 2,7,-1
 622 668 l 1,8,-1
 919 667 l 1,9,-1
 918 607 l 1,10,11
 824 611 824 611 621 611 c 1,12,13
 622 569 622 569 622 521 c 2,14,-1
 622 441 l 1,15,16
 658 385 658 385 657.5 304.5 c 128,-1,17
 657 224 657 224 627 159 c 0,18,19
 565 28 565 28 332 -39 c 1,20,-1
 288 2 l 1,21,22
 376 22 376 22 438 71.5 c 128,-1,23
 500 121 500 121 519 187 c 1,24,25
 488 176 488 176 456 176 c 0,26,27
 379 176 379 176 331 205 c 0,28,29
 269 242 269 242 269 337 c 0,30,31
 269 395 269 395 296 434.5 c 128,-1,32
 323 474 323 474 367 494.5 c 128,-1,33
 411 515 411 515 451.5 515 c 128,-1,34
 492 515 492 515 515 509 c 1,35,-1
 514 611 l 1,36,37
 279 607 279 607 76 592 c 1,38,-1
 75 654 l 1,0,-1
375 346.5 m 128,-1,40
 375 291 375 291 398.5 261 c 128,-1,41
 422 231 422 231 462 231 c 0,42,43
 540 231 540 231 540 345.5 c 128,-1,44
 540 460 540 460 464 460 c 0,45,46
 422 460 422 460 398.5 431 c 128,-1,39
 375 402 375 402 375 346.5 c 128,-1,40
692 814 m 1,47,-1
 731 830 l 1,48,49
 765 800 765 800 793 772.5 c 128,-1,50
 821 745 821 745 844 711 c 1,51,-1
 770 680 l 1,52,53
 745 735 745 735 692 814 c 1,47,-1
822 842 m 1,54,-1
 861 858 l 1,55,56
 895 829 895 829 923 801.5 c 128,-1,57
 951 774 951 774 974 738 c 1,58,-1
 900 708 l 1,59,60
 882 748 882 748 822 842 c 1,54,-1
EndSplineSet
Substitution2: "'vrt2' Vertical Rotation & Alternates lookup 1 subtable" uni305A.vert
EndChar

StartChar: uni305B
Encoding: 12379 12379 26
Width: 1024
GlyphClass: 2
Flags: W
LayerCount: 2
Fore
SplineSet
51 500 m 1,0,1
 112 500 112 500 256 515 c 1,2,-1
 256 649 l 2,3,4
 256 709 256 709 252 761 c 1,5,-1
 370 761 l 1,6,7
 366 715 366 715 366 654 c 2,8,-1
 365 525 l 1,9,-1
 660 553 l 1,10,-1
 660 695 l 2,11,12
 660 731 660 731 654 793 c 1,13,-1
 771 793 l 1,14,15
 766 760 766 760 765 700.5 c 128,-1,16
 764 641 764 641 762 560 c 1,17,18
 819 564 819 564 848 565.5 c 128,-1,19
 877 567 877 567 898.5 569.5 c 128,-1,20
 920 572 920 572 940 574 c 1,21,-1
 940 509 l 1,22,23
 890 509 890 509 761 503 c 1,24,25
 759 384 759 384 745 283 c 0,26,27
 742 258 742 258 726.5 239.5 c 128,-1,28
 711 221 711 221 685 221 c 0,29,30
 616 221 616 221 515 286 c 1,31,-1
 516 333 l 1,32,33
 593 308 593 308 614 308 c 128,-1,34
 635 308 635 308 641 318 c 128,-1,35
 647 328 647 328 649 340 c 0,36,37
 656 400 656 400 658 498 c 1,38,39
 485 483 485 483 365 470 c 1,40,-1
 365 217 l 2,41,42
 365 113 365 113 429 74 c 0,43,44
 465 52 465 52 532 52 c 0,45,46
 690 52 690 52 829 85 c 1,47,-1
 826 0 l 1,48,49
 695 -17 695 -17 540.5 -17 c 128,-1,50
 386 -17 386 -17 321.5 39 c 128,-1,51
 257 95 257 95 257 202 c 2,52,-1
 256 359 l 1,53,-1
 256 459 l 1,54,55
 216 456 216 456 57 433 c 1,56,-1
 51 500 l 1,0,1
EndSplineSet
Substitution2: "'vrt2' Vertical Rotation & Alternates lookup 1 subtable" uni305B.vert
EndChar

StartChar: uni305C
Encoding: 12380 12380 27
Width: 1024
GlyphClass: 2
Flags: W
LayerCount: 2
Fore
SplineSet
32 500 m 1,0,1
 93 500 93 500 237 515 c 1,2,-1
 237 649 l 2,3,4
 237 709 237 709 232 761 c 1,5,-1
 350 761 l 1,6,7
 346 715 346 715 346 654 c 2,8,-1
 345 525 l 1,9,-1
 641 553 l 1,10,-1
 641 695 l 2,11,12
 641 762 641 762 635 793 c 1,13,-1
 752 793 l 1,14,15
 747 760 747 760 746 700.5 c 128,-1,16
 745 641 745 641 742 560 c 1,17,18
 793 564 793 564 825 565.5 c 128,-1,19
 857 567 857 567 878.5 569.5 c 128,-1,20
 900 572 900 572 921 574 c 1,21,-1
 921 509 l 1,22,23
 871 509 871 509 741 503 c 1,24,25
 739 446 739 446 737 395.5 c 128,-1,26
 735 345 735 345 726 283 c 0,27,28
 722 258 722 258 706.5 239.5 c 128,-1,29
 691 221 691 221 666 221 c 0,30,31
 597 221 597 221 496 286 c 1,32,-1
 497 333 l 1,33,34
 574 308 574 308 594.5 308 c 128,-1,35
 615 308 615 308 622 318 c 0,36,37
 636 337 636 337 639 498 c 1,38,39
 466 483 466 483 345 470 c 1,40,-1
 344 305 l 1,41,-1
 344 263 l 2,42,43
 344 241 344 241 345 203.5 c 128,-1,44
 346 166 346 166 359 129 c 0,45,46
 387 52 387 52 513 52 c 0,47,48
 671 52 671 52 810 85 c 1,49,-1
 807 0 l 1,50,51
 676 -17 676 -17 521.5 -17 c 128,-1,52
 367 -17 367 -17 302.5 39 c 128,-1,53
 238 95 238 95 238 202 c 2,54,-1
 238 265 l 1,55,-1
 237 459 l 1,56,57
 197 456 197 456 38 433 c 1,58,-1
 32 500 l 1,0,1
775 777 m 1,59,-1
 814 794 l 1,60,61
 877 738 877 738 908 656 c 1,62,-1
 835 626 l 1,63,64
 818 710 818 710 775 777 c 1,59,-1
880 811 m 1,65,-1
 919 827 l 1,66,67
 981 774 981 774 1013 690 c 1,68,-1
 939 659 l 1,69,70
 922 743 922 743 880 811 c 1,65,-1
EndSplineSet
Substitution2: "'vrt2' Vertical Rotation & Alternates lookup 1 subtable" uni305C.vert
EndChar

StartChar: uni305D
Encoding: 12381 12381 28
Width: 1024
GlyphClass: 2
Flags: W
LayerCount: 2
Fore
SplineSet
112 401 m 1,0,1
 154 405 154 405 196 411.5 c 128,-1,2
 238 418 238 418 278 422 c 1,3,4
 356 474 356 474 543 656 c 0,5,6
 584 696 584 696 610 720 c 1,7,8
 348 708 348 708 279 700 c 1,9,-1
 275 768 l 1,10,11
 319 763 319 763 350 763 c 2,12,-1
 368 763 l 2,13,14
 427 763 427 763 548.5 770 c 128,-1,15
 670 777 670 777 723 783 c 1,16,-1
 780 723 l 1,17,18
 737 699 737 699 675 645.5 c 128,-1,19
 613 592 613 592 539.5 528 c 128,-1,20
 466 464 466 464 431 436 c 1,21,22
 680 464 680 464 893 464 c 1,23,-1
 893 406 l 1,24,25
 860 408 860 408 828 408 c 2,26,-1
 766 408 l 2,27,28
 676 408 676 408 627 398.5 c 128,-1,29
 578 389 578 389 532.5 359 c 128,-1,30
 487 329 487 329 463.5 285.5 c 128,-1,31
 440 242 440 242 440 193 c 0,32,33
 440 107 440 107 522 80 c 0,34,35
 577 62 577 62 696 61 c 0,36,37
 733 61 733 61 764 63 c 1,38,-1
 741 -50 l 1,39,40
 729 -51 729 -51 717 -51 c 2,41,-1
 692 -51 l 2,42,43
 532 -51 532 -51 445.5 8.5 c 128,-1,44
 359 68 359 68 359 182 c 0,45,46
 359 245 359 245 392 301 c 128,-1,47
 425 357 425 357 493 389 c 1,48,49
 242 363 242 363 117 342 c 1,50,-1
 112 401 l 1,0,1
EndSplineSet
Substitution2: "'vrt2' Vertical Rotation & Alternates lookup 1 subtable" uni305D.vert
EndChar

StartChar: uni305E
Encoding: 12382 12382 29
Width: 1024
GlyphClass: 2
Flags: W
LayerCount: 2
Fore
SplineSet
81 401 m 1,0,1
 123 405 123 405 165 411.5 c 128,-1,2
 207 418 207 418 247 422 c 1,3,4
 325 474 325 474 512 656 c 0,5,6
 553 696 553 696 580 720 c 1,7,8
 318 708 318 708 248 700 c 1,9,-1
 245 768 l 1,10,11
 289 763 289 763 319 763 c 2,12,-1
 337 763 l 2,13,14
 396 763 396 763 518 770 c 128,-1,15
 640 777 640 777 692 783 c 1,16,-1
 750 723 l 1,17,18
 707 699 707 699 645 645.5 c 128,-1,19
 583 592 583 592 509 528 c 128,-1,20
 435 464 435 464 400 436 c 1,21,22
 649 464 649 464 862 464 c 1,23,-1
 862 406 l 1,24,25
 829 408 829 408 798 408 c 2,26,-1
 735 408 l 2,27,28
 645 408 645 408 596 398.5 c 128,-1,29
 547 389 547 389 502 359 c 128,-1,30
 457 329 457 329 433.5 285.5 c 128,-1,31
 410 242 410 242 410 193 c 0,32,33
 410 107 410 107 492 80 c 0,34,35
 547 62 547 62 666 61 c 0,36,37
 703 61 703 61 733 63 c 1,38,-1
 711 -50 l 1,39,40
 699 -51 699 -51 686 -51 c 2,41,-1
 662 -51 l 2,42,43
 502 -51 502 -51 415.5 8.5 c 128,-1,44
 329 68 329 68 329 182 c 0,45,46
 329 245 329 245 361.5 301 c 128,-1,47
 394 357 394 357 462 389 c 1,48,49
 211 363 211 363 86 342 c 1,50,-1
 81 401 l 1,0,1
690 632 m 1,51,-1
 729 648 l 1,52,53
 763 618 763 618 789.5 591.5 c 128,-1,54
 816 565 816 565 837 529 c 1,55,-1
 763 499 l 1,56,57
 741 555 741 555 690 632 c 1,51,-1
801 673 m 1,58,-1
 840 689 l 1,59,60
 874 659 874 659 900.5 632.5 c 128,-1,61
 927 606 927 606 947 570 c 1,62,-1
 873 540 l 1,63,64
 851 596 851 596 801 673 c 1,58,-1
EndSplineSet
Substitution2: "'vrt2' Vertical Rotation & Alternates lookup 1 subtable" uni305E.vert
EndChar

StartChar: uni305F
Encoding: 12383 12383 30
Width: 1024
GlyphClass: 2
Flags: W
LayerCount: 2
Fore
SplineSet
105 -2 m 1,0,1
 150 73 150 73 187 174 c 0,2,3
 253 356 253 356 294 510 c 0,4,5
 303 543 303 543 307 566 c 1,6,7
 260 563 260 563 207.5 563 c 128,-1,8
 155 563 155 563 111 567 c 1,9,-1
 110 630 l 1,10,11
 175 621 175 621 224 621 c 128,-1,12
 273 621 273 621 321 625 c 1,13,14
 331 670 331 670 337 721.5 c 128,-1,15
 343 773 343 773 343 786 c 2,16,-1
 343 806 l 2,17,18
 343 812 343 812 342 817 c 1,19,-1
 473 808 l 1,20,21
 469 795 469 795 465 775 c 128,-1,22
 461 755 461 755 457 736 c 128,-1,23
 453 717 453 717 451 706 c 2,24,-1
 436 637 l 1,25,26
 489 643 489 643 614 672 c 1,27,-1
 614 609 l 1,28,29
 513 587 513 587 423 577 c 1,30,31
 392 429 392 429 364 338 c 128,-1,32
 336 247 336 247 302 145.5 c 128,-1,33
 268 44 268 44 226 -43 c 1,34,-1
 105 -2 l 1,0,1
488 132 m 0,35,36
 488 165 488 165 501.5 201.5 c 128,-1,37
 515 238 515 238 544 258 c 1,38,-1
 594 244 l 1,39,40
 550 205 550 205 550 166 c 128,-1,41
 550 127 550 127 568 108.5 c 128,-1,42
 586 90 586 90 625 84.5 c 128,-1,43
 664 79 664 79 744 79 c 128,-1,44
 824 79 824 79 934 94 c 1,45,-1
 931 -18 l 1,46,47
 843 -26 843 -26 728 -26.5 c 128,-1,48
 613 -27 613 -27 550.5 9 c 128,-1,49
 488 45 488 45 488 132 c 0,35,36
549 431 m 1,50,-1
 549 490 l 1,51,52
 635 499 635 499 728 500 c 0,53,54
 821 500 821 500 910 490 c 1,55,-1
 908 429 l 1,56,57
 809 440 809 440 720.5 440 c 128,-1,58
 632 440 632 440 549 431 c 1,50,-1
EndSplineSet
Substitution2: "'vrt2' Vertical Rotation & Alternates lookup 1 subtable" uni305F.vert
EndChar

StartChar: uni3060
Encoding: 12384 12384 31
Width: 1024
GlyphClass: 2
Flags: W
LayerCount: 2
Fore
SplineSet
75 -2 m 1,0,1
 120 73 120 73 157 174 c 0,2,3
 223 356 223 356 264 510 c 0,4,5
 273 543 273 543 276 566 c 1,6,7
 229 563 229 563 176.5 563 c 128,-1,8
 124 563 124 563 80 567 c 1,9,-1
 79 630 l 1,10,11
 144 621 144 621 193 621 c 128,-1,12
 242 621 242 621 290 625 c 1,13,14
 300 670 300 670 306 721.5 c 128,-1,15
 312 773 312 773 312 786 c 2,16,-1
 312 806 l 2,17,18
 312 812 312 812 311 817 c 1,19,-1
 442 808 l 1,20,21
 438 795 438 795 434 775 c 128,-1,22
 430 755 430 755 426 736 c 128,-1,23
 422 717 422 717 420 706 c 2,24,-1
 406 637 l 1,25,26
 459 643 459 643 584 672 c 1,27,-1
 584 609 l 1,28,29
 483 587 483 587 392 577 c 1,30,31
 361 429 361 429 333 338 c 128,-1,32
 305 247 305 247 271.5 145.5 c 128,-1,33
 238 44 238 44 196 -43 c 1,34,-1
 75 -2 l 1,0,1
458 132 m 0,35,36
 458 165 458 165 471 201.5 c 128,-1,37
 484 238 484 238 513 258 c 1,38,-1
 563 244 l 1,39,40
 519 205 519 205 519 166 c 128,-1,41
 519 127 519 127 537 108.5 c 128,-1,42
 555 90 555 90 594 84.5 c 128,-1,43
 633 79 633 79 713 79 c 128,-1,44
 793 79 793 79 903 94 c 1,45,-1
 900 -18 l 1,46,47
 812 -26 812 -26 697.5 -26.5 c 128,-1,48
 583 -27 583 -27 520.5 9 c 128,-1,49
 458 45 458 45 458 132 c 0,35,36
518 431 m 1,50,-1
 518 490 l 1,51,52
 604 499 604 499 697 500 c 0,53,54
 790 500 790 500 880 490 c 1,55,-1
 878 429 l 1,56,57
 779 440 779 440 690 440 c 128,-1,58
 601 440 601 440 518 431 c 1,50,-1
711 753 m 1,59,-1
 750 769 l 1,60,61
 827 702 827 702 871 630 c 1,62,-1
 798 599 l 1,63,64
 768 664 768 664 711 753 c 1,59,-1
827 797 m 1,65,-1
 866 813 l 1,66,67
 936 753 936 753 988 674 c 1,68,-1
 914 643 l 1,69,70
 884 708 884 708 827 797 c 1,65,-1
EndSplineSet
Substitution2: "'vrt2' Vertical Rotation & Alternates lookup 1 subtable" uni3060.vert
EndChar

StartChar: uni3061
Encoding: 12385 12385 32
Width: 1024
GlyphClass: 2
Flags: W
LayerCount: 2
Fore
SplineSet
121 599 m 1,0,-1
 121 662 l 1,1,2
 211 646 211 646 312 645 c 1,3,4
 331 749 331 749 332 809 c 1,5,-1
 451 804 l 1,6,7
 446 780 446 780 440 754.5 c 128,-1,8
 434 729 434 729 430 706 c 2,9,-1
 419 648 l 1,10,11
 627 657 627 657 799 696 c 1,12,-1
 799 635 l 1,13,14
 618 602 618 602 407 591 c 1,15,16
 384 477 384 477 343 350 c 1,17,18
 429 402 429 402 509 416 c 0,19,20
 554 424 554 424 612 424 c 0,21,22
 735 424 735 424 807.5 377 c 128,-1,23
 880 330 880 330 880 230 c 0,24,25
 880 -33 880 -33 501 -33 c 0,26,27
 424 -33 424 -33 343 -24 c 1,28,-1
 330 29 l 1,29,30
 549 0 549 0 669 62 c 0,31,32
 765 112 765 112 765 228 c 0,33,34
 765 315 765 315 699 351 c 0,35,36
 664 370 664 370 588 370 c 128,-1,37
 512 370 512 370 444 343.5 c 128,-1,38
 376 317 376 317 321 248 c 0,39,40
 307 231 307 231 286 188 c 1,41,-1
 182 225 l 1,42,43
 254 369 254 369 301 589 c 1,44,45
 184 591 184 591 121 599 c 1,0,-1
EndSplineSet
Substitution2: "'vrt2' Vertical Rotation & Alternates lookup 1 subtable" uni3061.vert
EndChar

StartChar: uni3062
Encoding: 12386 12386 33
Width: 1024
GlyphClass: 2
Flags: W
LayerCount: 2
Fore
SplineSet
86 599 m 1,0,-1
 86 662 l 1,1,2
 176 646 176 646 278 645 c 1,3,4
 297 749 297 749 297 809 c 1,5,-1
 416 804 l 1,6,7
 411 780 411 780 405 754.5 c 128,-1,8
 399 729 399 729 395 706 c 2,9,-1
 384 648 l 1,10,11
 592 657 592 657 764 696 c 1,12,-1
 764 635 l 1,13,14
 583 602 583 602 372 591 c 1,15,16
 349 477 349 477 308 350 c 1,17,18
 394 402 394 402 474 416 c 0,19,20
 519 424 519 424 578 424 c 0,21,22
 701 424 701 424 773 377 c 128,-1,23
 845 330 845 330 845 230 c 0,24,25
 845 -33 845 -33 466 -33 c 0,26,27
 389 -33 389 -33 308 -24 c 1,28,-1
 295 29 l 1,29,30
 514 0 514 0 634 62 c 0,31,32
 730 112 730 112 730 228 c 0,33,34
 730 315 730 315 664 351 c 0,35,36
 629 370 629 370 553 370 c 128,-1,37
 477 370 477 370 409 343.5 c 128,-1,38
 341 317 341 317 286 248 c 0,39,40
 272 231 272 231 251 188 c 1,41,-1
 147 225 l 1,42,43
 219 369 219 369 266 589 c 1,44,45
 149 591 149 591 86 599 c 1,0,-1
724 815 m 1,46,-1
 763 831 l 1,47,48
 834 771 834 771 884 694 c 1,49,-1
 810 664 l 1,50,51
 785 720 785 720 724 815 c 1,46,-1
841 858 m 1,52,-1
 880 874 l 1,53,54
 951 814 951 814 1000 737 c 1,55,-1
 927 707 l 1,56,57
 902 763 902 763 841 858 c 1,52,-1
EndSplineSet
Substitution2: "'vrt2' Vertical Rotation & Alternates lookup 1 subtable" uni3062.vert
EndChar

StartChar: uni3063
Encoding: 12387 12387 34
Width: 1024
GlyphClass: 2
Flags: W
LayerCount: 2
Fore
SplineSet
145 416 m 1,0,1
 198 426 198 426 280 453.5 c 128,-1,2
 362 481 362 481 412 496 c 0,3,4
 526 530 526 530 607 530 c 128,-1,5
 688 530 688 530 750.5 506.5 c 128,-1,6
 813 483 813 483 850.5 431.5 c 128,-1,7
 888 380 888 380 888 296 c 0,8,9
 888 190 888 190 825 119 c 0,10,11
 701 -20 701 -20 393 -27 c 1,12,-1
 372 26 l 1,13,14
 572 34 572 34 674 97.5 c 128,-1,15
 776 161 776 161 776 298 c 0,16,17
 776 347 776 347 757 387 c 0,18,19
 715 474 715 474 609 474 c 0,20,21
 470 474 470 474 174 350 c 1,22,-1
 145 416 l 1,0,1
EndSplineSet
Substitution2: "'vrt2' Vertical Rotation & Alternates lookup 1 subtable" uni3063.vert
EndChar

StartChar: uni3064
Encoding: 12388 12388 35
Width: 1024
GlyphClass: 2
Flags: W
LayerCount: 2
Fore
SplineSet
84 532 m 1,0,1
 143 543 143 543 238 575.5 c 128,-1,2
 333 608 333 608 390 625 c 0,3,4
 523 664 523 664 616 664.5 c 128,-1,5
 709 665 709 665 781 637.5 c 128,-1,6
 853 610 853 610 895.5 551.5 c 128,-1,7
 938 493 938 493 938 396 c 0,8,9
 938 274 938 274 866 193.5 c 128,-1,10
 794 113 794 113 665.5 71 c 128,-1,11
 537 29 537 29 369 26 c 1,12,-1
 347 79 l 1,13,14
 578 89 578 89 697 164 c 128,-1,15
 816 239 816 239 816 398 c 0,16,17
 816 456 816 456 793 503.5 c 128,-1,18
 770 551 770 551 726 579 c 128,-1,19
 682 607 682 607 617 607 c 0,20,21
 463 607 463 607 114 465 c 1,22,-1
 84 532 l 1,0,1
EndSplineSet
Substitution2: "'vrt2' Vertical Rotation & Alternates lookup 1 subtable" uni3064.vert
EndChar

StartChar: uni3065
Encoding: 12389 12389 36
Width: 1024
GlyphClass: 2
Flags: W
LayerCount: 2
Fore
SplineSet
69 532 m 1,0,1
 126 542 126 542 221.5 575 c 128,-1,2
 317 608 317 608 374 625 c 0,3,4
 507 664 507 664 600.5 664.5 c 128,-1,5
 694 665 694 665 766 637.5 c 128,-1,6
 838 610 838 610 880.5 551.5 c 128,-1,7
 923 493 923 493 923 396 c 0,8,9
 923 274 923 274 850.5 193.5 c 128,-1,10
 778 113 778 113 650 71 c 128,-1,11
 522 29 522 29 353 26 c 1,12,-1
 332 79 l 1,13,14
 563 89 563 89 682 164 c 128,-1,15
 801 239 801 239 801 398 c 0,16,17
 801 456 801 456 778 503.5 c 128,-1,18
 755 551 755 551 710 579 c 128,-1,19
 665 607 665 607 602 607 c 0,20,21
 448 607 448 607 98 465 c 1,22,-1
 69 532 l 1,0,1
714 801 m 1,23,-1
 753 817 l 1,24,25
 823 758 823 758 876 676 c 1,26,-1
 802 645 l 1,27,28
 772 712 772 712 714 801 c 1,23,-1
831 844 m 1,29,-1
 870 860 l 1,30,31
 940 801 940 801 993 719 c 1,32,-1
 920 688 l 1,33,34
 890 755 890 755 831 844 c 1,29,-1
EndSplineSet
Substitution2: "'vrt2' Vertical Rotation & Alternates lookup 1 subtable" uni3065.vert
EndChar

StartChar: uni3066
Encoding: 12390 12390 37
Width: 1024
GlyphClass: 2
Flags: W
LayerCount: 2
Fore
SplineSet
95 680 m 1,0,1
 181 685 181 685 276 695 c 0,2,3
 690 738 690 738 901 745 c 1,4,-1
 901 684 l 1,5,6
 757 684 757 684 704 668 c 0,7,8
 601 638 601 638 530 535 c 128,-1,9
 459 432 459 432 459 316.5 c 128,-1,10
 459 201 459 201 575 138 c 0,11,12
 679 81 679 81 825 81 c 1,13,-1
 785 -37 l 1,14,15
 619 -28 619 -28 503 53 c 0,16,17
 371 145 371 145 371 308 c 0,18,19
 371 438 371 438 444 540 c 0,20,21
 506 625 506 625 592 670 c 1,22,23
 541 664 541 664 442 654 c 0,24,25
 203 630 203 630 101 610 c 1,26,-1
 95 680 l 1,0,1
EndSplineSet
Substitution2: "'vrt2' Vertical Rotation & Alternates lookup 1 subtable" uni3066.vert
EndChar

StartChar: uni3067
Encoding: 12391 12391 38
Width: 1024
GlyphClass: 2
Flags: W
LayerCount: 2
Fore
SplineSet
91 680 m 1,0,1
 177 685 177 685 272 695 c 0,2,3
 686 738 686 738 897 745 c 1,4,-1
 897 684 l 1,5,6
 753 684 753 684 700 668 c 0,7,8
 597 638 597 638 526 535 c 128,-1,9
 455 432 455 432 455 316.5 c 128,-1,10
 455 201 455 201 571 138 c 0,11,12
 675 81 675 81 821 81 c 1,13,-1
 781 -37 l 1,14,15
 615 -28 615 -28 499 53 c 0,16,17
 367 145 367 145 367 308 c 0,18,19
 367 438 367 438 440 540 c 0,20,21
 502 625 502 625 588 670 c 1,22,23
 537 664 537 664 438 654 c 0,24,25
 199 630 199 630 97 610 c 1,26,-1
 91 680 l 1,0,1
691 510 m 1,27,-1
 730 526 l 1,28,29
 804 463 804 463 847 397 c 1,30,-1
 773 367 l 1,31,32
 750 417 750 417 691 510 c 1,27,-1
805 553 m 1,33,-1
 844 569 l 1,34,35
 918 506 918 506 961 440 c 1,36,-1
 887 410 l 1,37,38
 858 474 858 474 805 553 c 1,33,-1
EndSplineSet
Substitution2: "'vrt2' Vertical Rotation & Alternates lookup 1 subtable" uni3067.vert
EndChar

StartChar: uni3068
Encoding: 12392 12392 39
Width: 1024
GlyphClass: 2
Flags: W
LayerCount: 2
Fore
SplineSet
184 188 m 0,0,1
 184 248 184 248 231 316 c 128,-1,2
 278 384 278 384 357 435 c 1,3,4
 283 564 283 564 263 794 c 1,5,-1
 380 813 l 1,6,7
 395 616 395 616 459 485 c 1,8,9
 532 519 532 519 600 542 c 2,10,-1
 694 573 l 2,11,12
 758 592 758 592 793 611 c 1,13,-1
 816 542 l 1,14,15
 754 529 754 529 652.5 494.5 c 128,-1,16
 551 460 551 460 492 433.5 c 128,-1,17
 433 407 433 407 383 371 c 0,18,19
 271 291 271 291 271 179 c 0,20,21
 271 123 271 123 335 98.5 c 128,-1,22
 399 74 399 74 532.5 74 c 128,-1,23
 666 74 666 74 838 115 c 1,24,-1
 837 -8 l 1,25,26
 675 -35 675 -35 518 -35 c 0,27,28
 306 -35 306 -35 227 57 c 0,29,30
 185 106 185 106 184 188 c 0,0,1
EndSplineSet
Substitution2: "'vrt2' Vertical Rotation & Alternates lookup 1 subtable" uni3068.vert
EndChar

StartChar: uni3069
Encoding: 12393 12393 40
Width: 1024
GlyphClass: 2
Flags: W
LayerCount: 2
Fore
SplineSet
167 188 m 0,0,1
 167 248 167 248 213.5 316 c 128,-1,2
 260 384 260 384 340 435 c 1,3,4
 295 512 295 512 274.5 606 c 128,-1,5
 254 700 254 700 246 794 c 1,6,-1
 362 813 l 1,7,8
 377 616 377 616 441 485 c 1,9,10
 514 519 514 519 583 542 c 2,11,-1
 677 573 l 2,12,13
 741 592 741 592 775 611 c 1,14,-1
 799 542 l 1,15,16
 737 529 737 529 635.5 494.5 c 128,-1,17
 534 460 534 460 475 433.5 c 128,-1,18
 416 407 416 407 366 371 c 0,19,20
 254 291 254 291 254 179 c 0,21,22
 254 123 254 123 318 98.5 c 128,-1,23
 382 74 382 74 489 74 c 128,-1,24
 596 74 596 74 687 89 c 128,-1,25
 778 104 778 104 820 115 c 1,26,-1
 819 -8 l 1,27,28
 657 -35 657 -35 530 -35 c 128,-1,29
 403 -35 403 -35 328 -13 c 0,30,31
 167 32 167 32 167 188 c 0,0,1
637 795 m 1,32,-1
 676 811 l 1,33,34
 747 751 747 751 797 674 c 1,35,-1
 723 643 l 1,36,37
 691 714 691 714 637 795 c 1,32,-1
754 838 m 1,38,-1
 793 854 l 1,39,40
 864 794 864 794 913 717 c 1,41,-1
 840 686 l 1,42,43
 808 757 808 757 754 838 c 1,38,-1
EndSplineSet
Substitution2: "'vrt2' Vertical Rotation & Alternates lookup 1 subtable" uni3069.vert
EndChar

StartChar: uni306A
Encoding: 12394 12394 41
Width: 1024
GlyphClass: 2
Flags: W
LayerCount: 2
Fore
SplineSet
81 188 m 1,0,1
 139 258 139 258 202 369 c 128,-1,2
 265 480 265 480 300 573 c 1,3,4
 249 571 249 571 201.5 571 c 128,-1,5
 154 571 154 571 112 573 c 1,6,-1
 108 635 l 1,7,8
 173 629 173 629 215 629 c 2,9,-1
 279 629 l 2,10,11
 300 629 300 629 321 631 c 1,12,13
 336 685 336 685 346 742 c 128,-1,14
 356 799 356 799 357 826 c 1,15,-1
 476 816 l 1,16,17
 466 771 466 771 453 722.5 c 128,-1,18
 440 674 440 674 433 645 c 1,19,20
 509 657 509 657 584 681 c 1,21,-1
 586 621 l 1,22,23
 491 596 491 596 415 585 c 1,24,25
 361 418 361 418 251 231 c 0,26,27
 218 176 218 176 186 134 c 1,28,-1
 81 188 l 1,0,1
318 88.5 m 128,-1,30
 318 142 318 142 346 177 c 0,31,32
 403 249 403 249 536 249 c 0,33,34
 588 249 588 249 616 246 c 1,35,-1
 604 496 l 1,36,-1
 715 496 l 1,37,38
 713 484 713 484 713 471 c 2,39,-1
 713 446 l 1,40,-1
 714 373 l 2,41,42
 715 349 715 349 718 306.5 c 128,-1,43
 721 264 721 264 723 222 c 1,44,45
 820 189 820 189 932 106 c 1,46,-1
 872 11 l 1,47,48
 803 100 803 100 725 147 c 1,49,-1
 725 117 l 2,50,51
 725 61 725 61 684 8 c 0,52,53
 634 -57 634 -57 536 -56 c 0,54,55
 402 -56 402 -56 348 2 c 0,56,29
 318 35 318 35 318 88.5 c 128,-1,30
412 93 m 128,-1,58
 412 52 412 52 441.5 26.5 c 128,-1,59
 471 1 471 1 519 1 c 128,-1,60
 567 1 567 1 588 23 c 0,61,62
 620 57 620 57 620 135 c 2,63,-1
 620 159 l 2,64,65
 620 176 620 176 618 186 c 1,66,67
 499 213 499 213 446 165 c 0,68,57
 412 134 412 134 412 93 c 128,-1,58
668 596 m 1,69,-1
 694 638 l 1,70,71
 783 630 783 630 882 589 c 0,72,73
 928 570 928 570 964 547 c 1,74,-1
 900 456 l 1,75,76
 856 503 856 503 792.5 539.5 c 128,-1,77
 729 576 729 576 668 596 c 1,69,-1
EndSplineSet
Substitution2: "'vrt2' Vertical Rotation & Alternates lookup 1 subtable" uni306A.vert
EndChar

StartChar: uni306B
Encoding: 12395 12395 42
Width: 1024
GlyphClass: 2
Flags: W
LayerCount: 2
Fore
SplineSet
127 269.5 m 128,-1,1
 127 421 127 421 152 581 c 0,2,3
 162 643 162 643 166.5 674 c 128,-1,4
 171 705 171 705 175.5 733 c 128,-1,5
 180 761 180 761 181 781 c 1,6,-1
 300 772 l 1,7,8
 274 687 274 687 252 540.5 c 128,-1,9
 230 394 230 394 230 288.5 c 128,-1,10
 230 183 230 183 266 4 c 1,11,-1
 160 -6 l 1,12,0
 127 118 127 118 127 269.5 c 128,-1,1
408 167 m 0,13,14
 408 199 408 199 424 232.5 c 128,-1,15
 440 266 440 266 471 293 c 1,16,-1
 530 287 l 1,17,18
 482 242 482 242 482 194 c 256,19,20
 482 146 482 146 527.5 125.5 c 128,-1,21
 573 105 573 105 654 105 c 128,-1,22
 735 105 735 105 791.5 114 c 128,-1,23
 848 123 848 123 912 136 c 1,24,-1
 914 22 l 1,25,26
 827 6 827 6 680.5 5.5 c 128,-1,27
 534 5 534 5 471 48 c 128,-1,28
 408 91 408 91 408 167 c 0,13,14
450 630 m 1,29,-1
 450 692 l 1,30,31
 532 680 532 680 659.5 680 c 128,-1,32
 787 680 787 680 883 693 c 1,33,-1
 883 630 l 1,34,35
 802 621 802 621 667 621 c 0,36,37
 529 621 529 621 450 630 c 1,29,-1
EndSplineSet
Substitution2: "'vrt2' Vertical Rotation & Alternates lookup 1 subtable" uni306B.vert
EndChar

StartChar: uni306C
Encoding: 12396 12396 43
Width: 1024
GlyphClass: 2
Flags: W
LayerCount: 2
Fore
SplineSet
67 181 m 128,-1,1
 67 295 67 295 130 402 c 0,2,3
 158 450 158 450 190 486 c 1,4,5
 176 522 176 522 167 551 c 0,6,7
 145 621 145 621 124 675 c 1,8,-1
 227 719 l 1,9,10
 245 633 245 633 273 551 c 1,11,12
 393 625 393 625 497 644 c 1,13,14
 498 670 498 670 499.5 697.5 c 128,-1,15
 501 725 501 725 501 752 c 128,-1,16
 501 779 501 779 499 804 c 1,17,-1
 618 801 l 1,18,19
 605 703 605 703 600 654 c 1,20,21
 686 653 686 653 757 621.5 c 128,-1,22
 828 590 828 590 870.5 526 c 128,-1,23
 913 462 913 462 913 364 c 128,-1,24
 913 266 913 266 894 188 c 1,25,26
 935 160 935 160 997 89 c 1,27,-1
 931 4 l 1,28,29
 884 81 884 81 863 104 c 1,30,31
 831 47 831 47 783 12.5 c 128,-1,32
 735 -22 735 -22 659 -22 c 0,33,34
 559 -22 559 -22 513 40 c 0,35,36
 489 71 489 71 489 111.5 c 128,-1,37
 489 152 489 152 507.5 187 c 128,-1,38
 526 222 526 222 563.5 246 c 128,-1,39
 601 270 601 270 666 270.5 c 128,-1,40
 731 271 731 271 801 243 c 1,41,42
 806 287 806 287 806 356.5 c 128,-1,43
 806 426 806 426 784 480 c 0,44,45
 737 598 737 598 593 600 c 1,46,47
 569 417 569 417 496 260.5 c 128,-1,48
 423 104 423 104 322 36 c 0,49,50
 270 2 270 2 221 2 c 128,-1,51
 172 2 172 2 139 23 c 0,52,0
 67 67 67 67 67 181 c 128,-1,1
168 193 m 128,-1,54
 168 69 168 69 231 69 c 0,55,56
 263 69 263 69 315 117 c 0,57,58
 338 138 338 138 355 160 c 1,59,60
 305 222 305 222 270 292.5 c 128,-1,61
 235 363 235 363 222 401 c 1,62,53
 168 317 168 317 168 193 c 128,-1,54
299 487 m 1,63,64
 325 413 325 413 359 351 c 128,-1,65
 393 289 393 289 414 262 c 1,66,67
 476 411 476 411 494 589 c 1,68,69
 383 564 383 564 299 487 c 1,63,64
577 126.5 m 128,-1,71
 577 86 577 86 599 60 c 128,-1,72
 621 34 621 34 675 34 c 0,73,74
 705 34 705 34 729 53 c 0,75,76
 781 92 781 92 790 172 c 1,77,78
 724 217 724 217 663 217 c 0,79,80
 628 217 628 217 602.5 192 c 128,-1,70
 577 167 577 167 577 126.5 c 128,-1,71
EndSplineSet
Substitution2: "'vrt2' Vertical Rotation & Alternates lookup 1 subtable" uni306C.vert
EndChar

StartChar: uni306D
Encoding: 12397 12397 44
Width: 1024
GlyphClass: 2
Flags: W
LayerCount: 2
Fore
SplineSet
63 146 m 1,0,1
 88 176 88 176 152.5 263.5 c 128,-1,2
 217 351 217 351 269 429 c 1,3,-1
 278 569 l 1,4,5
 263 567 263 567 94 545 c 1,6,-1
 89 610 l 1,7,8
 156 610 156 610 199 616.5 c 128,-1,9
 242 623 242 623 282 628 c 1,10,-1
 287 695 l 2,11,12
 290 726 290 726 290 754 c 128,-1,13
 290 782 290 782 287 815 c 1,14,-1
 411 810 l 1,15,16
 399 753 399 753 375 510 c 1,17,18
 546 681 546 681 667.5 681 c 128,-1,19
 789 681 789 681 846.5 600.5 c 128,-1,20
 904 520 904 520 904 380 c 0,21,22
 904 287 904 287 892 216 c 1,23,24
 939 182 939 182 1002 117 c 1,25,-1
 941 29 l 1,26,27
 903 94 903 94 868 126 c 1,28,29
 844 56 844 56 790.5 19.5 c 128,-1,30
 737 -17 737 -17 673.5 -17 c 128,-1,31
 610 -17 610 -17 566 -5 c 0,32,33
 470 23 470 23 470 140 c 0,34,35
 470 184 470 184 494.5 218.5 c 128,-1,36
 519 253 519 253 562 272.5 c 128,-1,37
 605 292 605 292 666 292 c 128,-1,38
 727 292 727 292 793 268 c 1,39,40
 798 316 798 316 798 383.5 c 128,-1,41
 798 451 798 451 786.5 504.5 c 128,-1,42
 775 558 775 558 748 592 c 128,-1,43
 721 626 721 626 679 626 c 0,44,45
 604 626 604 626 517 565.5 c 128,-1,46
 430 505 430 505 369 432 c 1,47,48
 365 350 365 350 365 283 c 2,49,-1
 365 212 l 2,50,51
 365 105 365 105 367.5 66.5 c 128,-1,52
 370 28 370 28 371.5 2.5 c 128,-1,53
 373 -23 373 -23 374 -39 c 1,54,-1
 257 -39 l 1,55,56
 259 -10 259 -10 260 92 c 128,-1,57
 261 194 261 194 264 323 c 1,58,59
 180 200 180 200 102 91 c 1,60,-1
 63 146 l 1,0,1
556 134 m 256,61,62
 556 86 556 86 587 62.5 c 128,-1,63
 618 39 618 39 662.5 39 c 128,-1,64
 707 39 707 39 737.5 80.5 c 128,-1,65
 768 122 768 122 783 197 c 1,66,67
 714 239 714 239 662.5 239 c 128,-1,68
 611 239 611 239 583.5 210.5 c 128,-1,69
 556 182 556 182 556 134 c 256,61,62
EndSplineSet
Substitution2: "'vrt2' Vertical Rotation & Alternates lookup 1 subtable" uni306D.vert
EndChar

StartChar: uni306E
Encoding: 12398 12398 45
Width: 1024
GlyphClass: 2
Flags: W
LayerCount: 2
Fore
SplineSet
79 312.5 m 128,-1,1
 79 408 79 408 114.5 484.5 c 128,-1,2
 150 561 150 561 212 620.5 c 128,-1,3
 274 680 274 680 357 714 c 128,-1,4
 440 748 440 748 534 748 c 0,5,6
 717 748 717 748 828 636.5 c 128,-1,7
 939 525 939 525 939 356.5 c 128,-1,8
 939 188 939 188 834.5 91 c 128,-1,9
 730 -6 730 -6 542 -32 c 1,10,-1
 512 15 l 1,11,12
 664 28 664 28 743 117.5 c 128,-1,13
 822 207 822 207 822 375.5 c 128,-1,14
 822 544 822 544 730 629 c 0,15,16
 680 676 680 676 593 687 c 1,17,18
 593 455 593 455 520 263 c 0,19,20
 467 123 467 123 378 66 c 0,21,22
 332 36 332 36 278 36 c 0,23,24
 158 36 158 36 106 154 c 0,25,0
 79 217 79 217 79 312.5 c 128,-1,1
187 299.5 m 128,-1,27
 187 240 187 240 197 197.5 c 128,-1,28
 207 155 207 155 225.5 128.5 c 128,-1,29
 244 102 244 102 268 102 c 0,30,31
 346 102 346 102 400 244 c 0,32,33
 448 369 448 369 467 541 c 0,34,35
 476 619 476 619 476 685 c 1,36,37
 337 665 337 665 259 546 c 0,38,39
 223 492 223 492 205 425.5 c 128,-1,26
 187 359 187 359 187 299.5 c 128,-1,27
EndSplineSet
Substitution2: "'vrt2' Vertical Rotation & Alternates lookup 1 subtable" uni306E.vert
EndChar

StartChar: uni306F
Encoding: 12399 12399 46
Width: 1024
GlyphClass: 2
Flags: W
LayerCount: 2
Fore
SplineSet
118 266.5 m 128,-1,1
 118 424 118 424 150 622 c 0,2,3
 167 727 167 727 170 786 c 1,4,-1
 290 775 l 1,5,6
 262 703 262 703 242 541 c 128,-1,7
 222 379 222 379 221.5 297.5 c 128,-1,8
 221 216 221 216 234.5 134 c 128,-1,9
 248 52 248 52 262 -35 c 1,10,-1
 158 -42 l 1,11,0
 118 109 118 109 118 266.5 c 128,-1,1
359 540 m 1,12,-1
 359 598 l 1,13,14
 479 588 479 588 543 588 c 2,15,-1
 622 588 l 2,16,17
 637 588 637 588 651 589 c 1,18,-1
 650 703 l 2,19,20
 650 766 650 766 645 793 c 1,21,-1
 766 793 l 1,22,23
 764 777 764 777 763.5 750 c 128,-1,24
 763 723 763 723 761 687 c 128,-1,25
 759 651 759 651 759 594 c 1,26,27
 873 604 873 604 932 616 c 1,28,-1
 932 556 l 1,29,30
 849 543 849 543 759 537 c 1,31,32
 760 461 760 461 764 385 c 128,-1,33
 768 309 768 309 770 252 c 1,34,35
 835 225 835 225 883 189.5 c 128,-1,36
 931 154 931 154 970 118 c 1,37,-1
 910 26 l 1,38,39
 845 113 845 113 771 164 c 1,40,41
 770 105 770 105 755 59 c 0,42,43
 723 -38 723 -38 584 -38 c 0,44,45
 481 -38 481 -38 421.5 -3 c 128,-1,46
 362 32 362 32 362 121 c 0,47,48
 362 193 362 193 421 240.5 c 128,-1,49
 480 288 480 288 583 288 c 0,50,51
 615 288 615 288 660 283 c 1,52,-1
 651 530 l 1,53,54
 638 529 638 529 624 529 c 2,55,-1
 570 529 l 2,56,57
 530 529 530 529 359 540 c 1,12,-1
455 126.5 m 128,-1,59
 455 72 455 72 488.5 45.5 c 128,-1,60
 522 19 522 19 564 19 c 128,-1,61
 606 19 606 19 626.5 35 c 128,-1,62
 647 51 647 51 655.5 89 c 128,-1,63
 664 127 664 127 664 195 c 1,64,-1
 662 219 l 1,65,66
 614 234 614 234 569 234 c 128,-1,67
 524 234 524 234 489.5 207.5 c 128,-1,58
 455 181 455 181 455 126.5 c 128,-1,59
EndSplineSet
Substitution2: "'vrt2' Vertical Rotation & Alternates lookup 1 subtable" uni306F.vert
EndChar

StartChar: uni3070
Encoding: 12400 12400 47
Width: 1024
GlyphClass: 2
Flags: W
LayerCount: 2
Fore
SplineSet
94 272.5 m 128,-1,1
 94 436 94 436 138 699 c 0,2,3
 140 718 140 718 142.5 741.5 c 128,-1,4
 145 765 145 765 146 786 c 1,5,-1
 266 775 l 1,6,7
 261 762 261 762 255 736 c 128,-1,8
 249 710 249 710 244 686 c 0,9,10
 228 621 228 621 213 500 c 128,-1,11
 198 379 198 379 198 297.5 c 128,-1,12
 198 216 198 216 211.5 134 c 128,-1,13
 225 52 225 52 239 -35 c 1,14,-1
 134 -42 l 1,15,0
 94 109 94 109 94 272.5 c 128,-1,1
336 540 m 1,16,-1
 336 598 l 1,17,18
 456 588 456 588 519 588 c 2,19,-1
 598 588 l 2,20,21
 614 588 614 588 628 589 c 1,22,-1
 627 703 l 2,23,24
 627 741 627 741 622 793 c 1,25,-1
 742 793 l 1,26,27
 741 777 741 777 740 750 c 128,-1,28
 739 723 739 723 737 687 c 128,-1,29
 735 651 735 651 735 594 c 1,30,31
 849 604 849 604 908 616 c 1,32,-1
 908 556 l 1,33,34
 825 543 825 543 735 537 c 1,35,36
 737 461 737 461 740.5 385 c 128,-1,37
 744 309 744 309 746 252 c 1,38,39
 811 225 811 225 859 189.5 c 128,-1,40
 907 154 907 154 946 118 c 1,41,-1
 887 26 l 1,42,43
 824 110 824 110 748 164 c 1,44,45
 748 33 748 33 677 -12 c 0,46,47
 637 -38 637 -38 547 -38 c 128,-1,48
 457 -38 457 -38 398 -3 c 128,-1,49
 339 32 339 32 339 121 c 0,50,51
 339 193 339 193 398 240.5 c 128,-1,52
 457 288 457 288 559 288 c 0,53,54
 591 288 591 288 637 283 c 1,55,56
 632 362 632 362 628 530 c 1,57,58
 614 529 614 529 601 529 c 2,59,-1
 547 529 l 2,60,61
 506 529 506 529 336 540 c 1,16,-1
431 126.5 m 128,-1,63
 431 72 431 72 465.5 45.5 c 128,-1,64
 500 19 500 19 541.5 19 c 128,-1,65
 583 19 583 19 603.5 35 c 128,-1,66
 624 51 624 51 632 89 c 128,-1,67
 640 127 640 127 640 195 c 1,68,-1
 638 219 l 1,69,70
 590 234 590 234 545.5 234 c 128,-1,71
 501 234 501 234 466 207.5 c 128,-1,62
 431 181 431 181 431 126.5 c 128,-1,63
778 813 m 1,72,-1
 817 829 l 1,73,74
 870 783 870 783 914 681 c 1,75,-1
 841 650 l 1,76,77
 810 766 810 766 778 813 c 1,72,-1
882 845 m 1,78,-1
 921 861 l 1,79,80
 978 811 978 811 1018 713 c 1,81,-1
 944 682 l 1,82,83
 915 792 915 792 882 845 c 1,78,-1
EndSplineSet
Substitution2: "'vrt2' Vertical Rotation & Alternates lookup 1 subtable" uni3070.vert
EndChar

StartChar: uni3071
Encoding: 12401 12401 48
Width: 1024
GlyphClass: 2
Flags: W
LayerCount: 2
Fore
SplineSet
94 272.5 m 128,-1,1
 94 436 94 436 138 699 c 0,2,3
 140 718 140 718 142.5 741.5 c 128,-1,4
 145 765 145 765 146 786 c 1,5,-1
 266 775 l 1,6,7
 261 762 261 762 255 736 c 128,-1,8
 249 710 249 710 244 686 c 0,9,10
 228 621 228 621 213 500 c 128,-1,11
 198 379 198 379 198 297.5 c 128,-1,12
 198 216 198 216 211.5 134 c 128,-1,13
 225 52 225 52 239 -35 c 1,14,-1
 134 -42 l 1,15,0
 94 109 94 109 94 272.5 c 128,-1,1
336 540 m 1,16,-1
 336 598 l 1,17,18
 456 588 456 588 519 588 c 2,19,-1
 598 588 l 2,20,21
 614 588 614 588 628 589 c 1,22,-1
 627 703 l 2,23,24
 627 741 627 741 622 793 c 1,25,-1
 742 793 l 1,26,27
 741 777 741 777 740 750 c 128,-1,28
 739 723 739 723 737 687 c 128,-1,29
 735 651 735 651 735 594 c 1,30,31
 849 604 849 604 908 616 c 1,32,-1
 908 556 l 1,33,34
 825 543 825 543 735 537 c 1,35,36
 737 461 737 461 740.5 385 c 128,-1,37
 744 309 744 309 746 252 c 1,38,39
 811 225 811 225 859 189.5 c 128,-1,40
 907 154 907 154 946 118 c 1,41,-1
 887 26 l 1,42,43
 824 110 824 110 748 164 c 1,44,45
 748 33 748 33 677 -12 c 0,46,47
 637 -38 637 -38 547 -38 c 128,-1,48
 457 -38 457 -38 398 -3 c 128,-1,49
 339 32 339 32 339 121 c 0,50,51
 339 193 339 193 398 240.5 c 128,-1,52
 457 288 457 288 559 288 c 0,53,54
 591 288 591 288 637 283 c 1,55,56
 632 362 632 362 628 530 c 1,57,58
 614 529 614 529 601 529 c 2,59,-1
 547 529 l 2,60,61
 506 529 506 529 336 540 c 1,16,-1
431 126.5 m 128,-1,63
 431 72 431 72 465.5 45.5 c 128,-1,64
 500 19 500 19 541.5 19 c 128,-1,65
 583 19 583 19 603.5 35 c 128,-1,66
 624 51 624 51 632 89 c 128,-1,67
 640 127 640 127 640 195 c 1,68,-1
 638 219 l 1,69,70
 590 234 590 234 545.5 234 c 128,-1,71
 501 234 501 234 466 207.5 c 128,-1,62
 431 181 431 181 431 126.5 c 128,-1,63
786 759 m 256,72,73
 786 804 786 804 817.5 835.5 c 128,-1,74
 849 867 849 867 894 867 c 256,75,76
 939 867 939 867 971.5 835.5 c 128,-1,77
 1004 804 1004 804 1004 759 c 256,78,79
 1004 714 1004 714 971.5 682 c 128,-1,80
 939 650 939 650 894 650 c 256,81,82
 849 650 849 650 817.5 682 c 128,-1,83
 786 714 786 714 786 759 c 256,72,73
839 759 m 256,84,85
 839 735 839 735 854.5 719 c 128,-1,86
 870 703 870 703 894 703 c 256,87,88
 918 703 918 703 934.5 719 c 128,-1,89
 951 735 951 735 951 759 c 256,90,91
 951 783 951 783 934.5 799.5 c 128,-1,92
 918 816 918 816 894 816 c 256,93,94
 870 816 870 816 854.5 799.5 c 128,-1,95
 839 783 839 783 839 759 c 256,84,85
EndSplineSet
Substitution2: "'vrt2' Vertical Rotation & Alternates lookup 1 subtable" uni3071.vert
EndChar

StartChar: uni3072
Encoding: 12402 12402 49
Width: 1024
GlyphClass: 2
Flags: W
LayerCount: 2
Fore
SplineSet
124 689 m 1,0,1
 208 689 208 689 327 711 c 128,-1,2
 446 733 446 733 497 751 c 1,3,-1
 517 693 l 1,4,5
 506 688 506 688 483.5 683 c 128,-1,6
 461 678 461 678 454 670 c 0,7,8
 263 455 263 455 263 228 c 0,9,10
 263 139 263 139 310.5 94 c 128,-1,11
 358 49 358 49 433 49 c 0,12,13
 573 49 573 49 646 167.5 c 128,-1,14
 719 286 719 286 719 457.5 c 128,-1,15
 719 629 719 629 683 737 c 1,16,-1
 744 755 l 1,17,18
 774 609 774 609 868 470 c 0,19,20
 916 399 916 399 978 347 c 1,21,-1
 896 261 l 1,22,23
 820 357 820 357 780 439 c 1,24,25
 781 428 781 428 781 417 c 2,26,-1
 781 394 l 2,27,28
 781 209 781 209 700 85 c 0,29,30
 658 20 658 20 591 -18 c 128,-1,31
 524 -56 524 -56 435 -56 c 128,-1,32
 346 -56 346 -56 284 -22 c 128,-1,33
 222 12 222 12 188 74.5 c 128,-1,34
 154 137 154 137 154 211 c 0,35,36
 154 344 154 344 209.5 465 c 128,-1,37
 265 586 265 586 337 657 c 1,38,39
 302 652 302 652 262.5 644.5 c 128,-1,40
 223 637 223 637 201 634 c 256,41,42
 179 631 179 631 132 618 c 1,43,-1
 124 689 l 1,0,1
EndSplineSet
Substitution2: "'vrt2' Vertical Rotation & Alternates lookup 1 subtable" uni3072.vert
EndChar

StartChar: uni3073
Encoding: 12403 12403 50
Width: 1024
GlyphClass: 2
Flags: W
LayerCount: 2
Fore
SplineSet
102 689 m 1,0,1
 186 689 186 689 305 711 c 128,-1,2
 424 733 424 733 475 751 c 1,3,-1
 496 693 l 1,4,5
 485 688 485 688 462 683 c 128,-1,6
 439 678 439 678 432 670 c 0,7,8
 240 454 240 454 242 228 c 0,9,10
 242 139 242 139 289.5 94 c 128,-1,11
 337 49 337 49 412 49 c 0,12,13
 553 49 553 49 628 173 c 0,14,15
 697 286 697 286 697.5 457.5 c 128,-1,16
 698 629 698 629 662 737 c 1,17,-1
 723 755 l 1,18,19
 756 604 756 604 846 470 c 0,20,21
 893 399 893 399 956 347 c 1,22,-1
 874 261 l 1,23,24
 798 357 798 357 759 439 c 1,25,26
 760 428 760 428 760 417 c 2,27,-1
 760 394 l 2,28,29
 760 209 760 209 679 85 c 0,30,31
 637 20 637 20 570 -18 c 128,-1,32
 503 -56 503 -56 414 -56 c 128,-1,33
 325 -56 325 -56 263 -22 c 128,-1,34
 201 12 201 12 166.5 74.5 c 128,-1,35
 132 137 132 137 132 211 c 0,36,37
 132 339 132 339 188.5 464.5 c 128,-1,38
 245 590 245 590 315 657 c 1,39,40
 280 652 280 652 241 644.5 c 128,-1,41
 202 637 202 637 180 634 c 0,42,43
 148 630 148 630 111 618 c 1,44,-1
 102 689 l 1,0,1
764 805 m 1,45,-1
 803 821 l 1,46,47
 858 774 858 774 910 667 c 1,48,-1
 837 636 l 1,49,50
 822 688 822 688 799.5 736.5 c 128,-1,51
 777 785 777 785 764 805 c 1,45,-1
872 843 m 1,52,-1
 911 859 l 1,53,54
 970 807 970 807 1019 705 c 1,55,-1
 945 674 l 1,56,57
 930 726 930 726 907.5 774.5 c 128,-1,58
 885 823 885 823 872 843 c 1,52,-1
EndSplineSet
Substitution2: "'vrt2' Vertical Rotation & Alternates lookup 1 subtable" uni3073.vert
EndChar

StartChar: uni3074
Encoding: 12404 12404 51
Width: 1024
GlyphClass: 2
Flags: W
LayerCount: 2
Fore
SplineSet
102 689 m 1,0,1
 186 689 186 689 305 711 c 128,-1,2
 424 733 424 733 475 751 c 1,3,-1
 496 693 l 1,4,5
 485 688 485 688 462 683 c 128,-1,6
 439 678 439 678 432 670 c 0,7,8
 240 454 240 454 242 228 c 0,9,10
 242 139 242 139 289.5 94 c 128,-1,11
 337 49 337 49 412 49 c 0,12,13
 553 49 553 49 628 173 c 0,14,15
 697 286 697 286 697.5 457.5 c 128,-1,16
 698 629 698 629 662 737 c 1,17,-1
 723 755 l 1,18,19
 756 604 756 604 846 470 c 0,20,21
 893 399 893 399 956 347 c 1,22,-1
 874 261 l 1,23,24
 798 357 798 357 759 439 c 1,25,26
 760 428 760 428 760 417 c 2,27,-1
 760 394 l 2,28,29
 760 209 760 209 679 85 c 0,30,31
 637 20 637 20 570 -18 c 128,-1,32
 503 -56 503 -56 414 -56 c 128,-1,33
 325 -56 325 -56 263 -22 c 128,-1,34
 201 12 201 12 166.5 74.5 c 128,-1,35
 132 137 132 137 132 211 c 0,36,37
 132 339 132 339 188.5 464.5 c 128,-1,38
 245 590 245 590 315 657 c 1,39,40
 280 652 280 652 241 644.5 c 128,-1,41
 202 637 202 637 180 634 c 0,42,43
 148 630 148 630 111 618 c 1,44,-1
 102 689 l 1,0,1
777 737.5 m 128,-1,46
 777 785 777 785 810.5 819 c 128,-1,47
 844 853 844 853 884 853 c 128,-1,48
 924 853 924 853 950 837.5 c 128,-1,49
 976 822 976 822 992 796 c 128,-1,50
 1008 770 1008 770 1008 738 c 128,-1,51
 1008 706 1008 706 992 679.5 c 128,-1,52
 976 653 976 653 950 638 c 128,-1,53
 924 623 924 623 884 623 c 128,-1,54
 844 623 844 623 810.5 656.5 c 128,-1,45
 777 690 777 690 777 737.5 c 128,-1,46
830 738 m 128,-1,56
 830 712 830 712 848 694 c 128,-1,57
 866 676 866 676 892 676 c 256,58,59
 918 676 918 676 935.5 694 c 128,-1,60
 953 712 953 712 953 738 c 128,-1,61
 953 764 953 764 935.5 782 c 128,-1,62
 918 800 918 800 892 800 c 256,63,64
 866 800 866 800 848 782 c 128,-1,55
 830 764 830 764 830 738 c 128,-1,56
EndSplineSet
Substitution2: "'vrt2' Vertical Rotation & Alternates lookup 1 subtable" uni3074.vert
EndChar

StartChar: uni3075
Encoding: 12405 12405 52
Width: 1024
GlyphClass: 2
Flags: W
LayerCount: 2
Fore
SplineSet
36 110 m 1,0,1
 122 156 122 156 225 242 c 0,2,3
 271 280 271 280 300 313 c 1,4,-1
 338 267 l 1,5,6
 271 140 271 140 101 15 c 1,7,-1
 36 110 l 1,0,1
312 74 m 1,8,9
 375 41 375 41 447.5 41 c 128,-1,10
 520 41 520 41 543 67.5 c 128,-1,11
 566 94 566 94 566 155 c 128,-1,12
 566 216 566 216 541.5 272 c 128,-1,13
 517 328 517 328 478.5 372 c 128,-1,14
 440 416 440 416 401 452 c 1,15,-1
 437 504 l 1,16,17
 542 422 542 422 604 345 c 0,18,19
 685 245 685 245 685 131 c 0,20,21
 685 71 685 71 659 34 c 0,22,23
 609 -35 609 -35 506 -35 c 128,-1,24
 403 -35 403 -35 319 17 c 1,25,-1
 312 74 l 1,8,9
358 733 m 1,26,-1
 387 769 l 1,27,28
 559 731 559 731 699 664 c 1,29,-1
 622 559 l 1,30,31
 576 612 576 612 503.5 655 c 128,-1,32
 431 698 431 698 358 733 c 1,26,-1
717 360 m 1,33,-1
 767 390 l 1,34,35
 842 328 842 328 900 245 c 128,-1,36
 958 162 958 162 990 83 c 1,37,-1
 886 28 l 1,38,39
 859 133 859 133 786 260 c 0,40,41
 753 318 753 318 717 360 c 1,33,-1
EndSplineSet
Substitution2: "'vrt2' Vertical Rotation & Alternates lookup 1 subtable" uni3075.vert
EndChar

StartChar: uni3076
Encoding: 12406 12406 53
Width: 1024
GlyphClass: 2
Flags: W
LayerCount: 2
Fore
SplineSet
16 110 m 1,0,1
 104 157 104 157 205 242 c 0,2,3
 250 280 250 280 281 313 c 1,4,-1
 318 267 l 1,5,6
 247 136 247 136 82 15 c 1,7,-1
 16 110 l 1,0,1
293 74 m 1,8,9
 356 41 356 41 428.5 41 c 128,-1,10
 501 41 501 41 524 67.5 c 128,-1,11
 547 94 547 94 547 155 c 0,12,13
 547 303 547 303 382 452 c 1,14,-1
 418 504 l 1,15,16
 523 422 523 422 585 345 c 0,17,18
 666 245 666 245 666 131 c 0,19,20
 666 71 666 71 640 34 c 0,21,22
 589 -35 589 -35 487.5 -35 c 128,-1,23
 386 -35 386 -35 300 17 c 1,24,-1
 293 74 l 1,8,9
339 733 m 1,25,-1
 368 769 l 1,26,27
 540 731 540 731 680 664 c 1,28,-1
 602 559 l 1,29,30
 556 612 556 612 484 655 c 128,-1,31
 412 698 412 698 339 733 c 1,25,-1
697 360 m 1,32,-1
 748 390 l 1,33,34
 823 328 823 328 880.5 245 c 128,-1,35
 938 162 938 162 971 83 c 1,36,-1
 866 28 l 1,37,38
 834 141 834 141 766 260 c 0,39,40
 733 318 733 318 697 360 c 1,32,-1
724 667 m 1,41,-1
 763 683 l 1,42,43
 838 617 838 617 885 545 c 1,44,-1
 811 514 l 1,45,46
 783 576 783 576 724 667 c 1,41,-1
841 711 m 1,47,-1
 880 727 l 1,48,49
 955 663 955 663 1001 589 c 1,50,-1
 928 558 l 1,51,52
 900 620 900 620 841 711 c 1,47,-1
EndSplineSet
Substitution2: "'vrt2' Vertical Rotation & Alternates lookup 1 subtable" uni3076.vert
EndChar

StartChar: uni3077
Encoding: 12407 12407 54
Width: 1024
GlyphClass: 2
Flags: W
LayerCount: 2
Fore
SplineSet
16 110 m 1,0,1
 104 157 104 157 205 242 c 0,2,3
 250 280 250 280 281 313 c 1,4,-1
 318 267 l 1,5,6
 247 136 247 136 82 15 c 1,7,-1
 16 110 l 1,0,1
293 74 m 1,8,9
 356 41 356 41 428.5 41 c 128,-1,10
 501 41 501 41 524 67.5 c 128,-1,11
 547 94 547 94 547 155 c 0,12,13
 547 303 547 303 382 452 c 1,14,-1
 418 504 l 1,15,16
 523 422 523 422 585 345 c 0,17,18
 666 245 666 245 666 131 c 0,19,20
 666 71 666 71 640 34 c 0,21,22
 589 -35 589 -35 487.5 -35 c 128,-1,23
 386 -35 386 -35 300 17 c 1,24,-1
 293 74 l 1,8,9
339 733 m 1,25,-1
 368 769 l 1,26,27
 540 731 540 731 680 664 c 1,28,-1
 602 559 l 1,29,30
 556 612 556 612 484 655 c 128,-1,31
 412 698 412 698 339 733 c 1,25,-1
697 360 m 1,32,-1
 748 390 l 1,33,34
 823 328 823 328 880.5 245 c 128,-1,35
 938 162 938 162 971 83 c 1,36,-1
 866 28 l 1,37,38
 834 141 834 141 766 260 c 0,39,40
 733 318 733 318 697 360 c 1,32,-1
750 625 m 256,41,42
 750 658 750 658 765.5 685 c 128,-1,43
 781 712 781 712 808.5 727.5 c 128,-1,44
 836 743 836 743 868 743 c 0,45,46
 901 743 901 743 928 727.5 c 128,-1,47
 955 712 955 712 971 684.5 c 128,-1,48
 987 657 987 657 987 625 c 0,49,50
 987 592 987 592 971 565 c 128,-1,51
 955 538 955 538 928 522 c 128,-1,52
 901 506 901 506 868 506 c 256,53,54
 835 506 835 506 808 522 c 128,-1,55
 781 538 781 538 765.5 565 c 128,-1,56
 750 592 750 592 750 625 c 256,41,42
805 625 m 256,57,58
 805 598 805 598 823.5 579 c 128,-1,59
 842 560 842 560 868 560 c 0,60,61
 895 560 895 560 914 579 c 128,-1,62
 933 598 933 598 933 625 c 256,63,64
 933 652 933 652 914 670.5 c 128,-1,65
 895 689 895 689 868 689 c 256,66,67
 841 689 841 689 823 670.5 c 128,-1,68
 805 652 805 652 805 625 c 256,57,58
EndSplineSet
Substitution2: "'vrt2' Vertical Rotation & Alternates lookup 1 subtable" uni3077.vert
EndChar

StartChar: uni3078
Encoding: 12408 12408 55
Width: 1024
GlyphClass: 2
Flags: W
LayerCount: 2
Fore
SplineSet
47 294 m 1,0,1
 89 328 89 328 121.5 361.5 c 128,-1,2
 154 395 154 395 223 464.5 c 128,-1,3
 292 534 292 534 327 575 c 0,4,5
 381 637 381 637 425.5 637.5 c 128,-1,6
 470 638 470 638 517 589 c 0,7,8
 594 509 594 509 663 434 c 0,9,10
 827 257 827 257 982 128 c 1,11,-1
 895 28 l 1,12,13
 815 109 815 109 743.5 199.5 c 128,-1,14
 672 290 672 290 604 378.5 c 128,-1,15
 536 467 536 467 468 543 c 0,16,17
 440 572 440 572 423.5 571.5 c 128,-1,18
 407 571 407 571 381 538 c 0,19,20
 339 486 339 486 262 360.5 c 128,-1,21
 185 235 185 235 150 188 c 1,22,-1
 47 294 l 1,0,1
EndSplineSet
Substitution2: "'vrt2' Vertical Rotation & Alternates lookup 1 subtable" uni3078.vert
EndChar

StartChar: uni3079
Encoding: 12409 12409 56
Width: 1024
GlyphClass: 2
Flags: W
LayerCount: 2
Fore
SplineSet
39 294 m 1,0,1
 81 328 81 328 113 361.5 c 128,-1,2
 145 395 145 395 214.5 464.5 c 128,-1,3
 284 534 284 534 318 575 c 0,4,5
 372 637 372 637 417 637.5 c 128,-1,6
 462 638 462 638 509 589 c 0,7,8
 586 509 586 509 655 434 c 0,9,10
 819 257 819 257 974 128 c 1,11,-1
 887 28 l 1,12,13
 807 109 807 109 735.5 199.5 c 128,-1,14
 664 290 664 290 595.5 378.5 c 128,-1,15
 527 467 527 467 460 543 c 0,16,17
 432 572 432 572 415 571.5 c 128,-1,18
 398 571 398 571 372 538 c 0,19,20
 330 485 330 485 253.5 360 c 128,-1,21
 177 235 177 235 141 188 c 1,22,-1
 39 294 l 1,0,1
644 685 m 1,23,-1
 683 701 l 1,24,25
 726 663 726 663 763.5 616 c 128,-1,26
 801 569 801 569 815 546 c 1,27,-1
 741 515 l 1,28,29
 710 583 710 583 644 685 c 1,23,-1
780 737 m 1,30,-1
 819 754 l 1,31,32
 889 694 889 694 951 598 c 1,33,-1
 878 567 l 1,34,35
 847 635 847 635 780 737 c 1,30,-1
EndSplineSet
Substitution2: "'vrt2' Vertical Rotation & Alternates lookup 1 subtable" uni3079.vert
EndChar

StartChar: uni307A
Encoding: 12410 12410 57
Width: 1024
GlyphClass: 2
Flags: W
LayerCount: 2
Fore
SplineSet
39 294 m 1,0,1
 81 328 81 328 113 361.5 c 128,-1,2
 145 395 145 395 214.5 464.5 c 128,-1,3
 284 534 284 534 318 575 c 0,4,5
 372 637 372 637 417 637.5 c 128,-1,6
 462 638 462 638 509 589 c 0,7,8
 586 509 586 509 655 434 c 0,9,10
 819 257 819 257 974 128 c 1,11,-1
 887 28 l 1,12,13
 807 109 807 109 735.5 199.5 c 128,-1,14
 664 290 664 290 595.5 378.5 c 128,-1,15
 527 467 527 467 460 543 c 0,16,17
 432 572 432 572 415 571.5 c 128,-1,18
 398 571 398 571 372 538 c 0,19,20
 330 485 330 485 253.5 360 c 128,-1,21
 177 235 177 235 141 188 c 1,22,-1
 39 294 l 1,0,1
668 627.5 m 128,-1,24
 668 663 668 663 685 692 c 128,-1,25
 702 721 702 721 731.5 738.5 c 128,-1,26
 761 756 761 756 796 756 c 128,-1,27
 831 756 831 756 860.5 738.5 c 128,-1,28
 890 721 890 721 907.5 692 c 128,-1,29
 925 663 925 663 925 627.5 c 128,-1,30
 925 592 925 592 907.5 563 c 128,-1,31
 890 534 890 534 860.5 516.5 c 128,-1,32
 831 499 831 499 796 499 c 128,-1,33
 761 499 761 499 731.5 516.5 c 128,-1,34
 702 534 702 534 685 563 c 128,-1,23
 668 592 668 592 668 627.5 c 128,-1,24
725 627 m 256,35,36
 725 598 725 598 746 577 c 128,-1,37
 767 556 767 556 796 556 c 128,-1,38
 825 556 825 556 846 577 c 128,-1,39
 867 598 867 598 867 627 c 256,40,41
 867 656 867 656 846 677 c 128,-1,42
 825 698 825 698 796 698 c 128,-1,43
 767 698 767 698 746 677 c 128,-1,44
 725 656 725 656 725 627 c 256,35,36
EndSplineSet
Substitution2: "'vrt2' Vertical Rotation & Alternates lookup 1 subtable" uni307A.vert
EndChar

StartChar: uni307B
Encoding: 12411 12411 58
Width: 1024
GlyphClass: 2
Flags: W
LayerCount: 2
Fore
SplineSet
118 266.5 m 128,-1,1
 118 424 118 424 150 622 c 0,2,3
 167 727 167 727 170 786 c 1,4,-1
 290 775 l 1,5,6
 262 703 262 703 242 541 c 128,-1,7
 222 379 222 379 221.5 297.5 c 128,-1,8
 221 216 221 216 234.5 134 c 128,-1,9
 248 52 248 52 262 -35 c 1,10,-1
 158 -42 l 1,11,0
 118 109 118 109 118 266.5 c 128,-1,1
362 121 m 0,12,13
 362 193 362 193 415.5 238 c 128,-1,14
 469 283 469 283 571 283 c 0,15,16
 612 283 612 283 649 276 c 1,17,18
 649 284 649 284 642 428 c 1,19,20
 623 427 623 427 602 427 c 2,21,-1
 558 427 l 2,22,23
 474 427 474 427 372 432 c 1,24,-1
 372 489 l 1,25,26
 475 482 475 482 532 482 c 2,27,-1
 608 482 l 2,28,29
 626 482 626 482 642 483 c 1,30,-1
 642 680 l 1,31,32
 625 679 625 679 607 679 c 2,33,-1
 569 679 l 2,34,35
 542 679 542 679 387 683 c 1,36,-1
 387 740 l 1,37,38
 452 735 452 735 606 735 c 128,-1,39
 760 735 760 735 905 754 c 1,40,-1
 905 696 l 1,41,42
 844 688 844 688 743 684 c 1,43,-1
 743 487 l 1,44,45
 829 492 829 492 930 505 c 1,46,-1
 930 445 l 1,47,48
 868 437 868 437 743 432 c 1,49,50
 743 400 743 400 752 247 c 1,51,52
 876 198 876 198 971 113 c 1,53,-1
 911 20 l 1,54,55
 878 65 878 65 835.5 99 c 128,-1,56
 793 133 793 133 756 158 c 1,57,-1
 757 138 l 1,58,59
 757 45 757 45 708.5 6.5 c 128,-1,60
 660 -32 660 -32 573 -32 c 0,61,62
 445 -32 445 -32 391 34 c 0,63,64
 363 68 363 68 362 121 c 0,12,13
455 124 m 128,-1,66
 455 76 455 76 483 51 c 128,-1,67
 511 26 511 26 551.5 26 c 128,-1,68
 592 26 592 26 612.5 34.5 c 128,-1,69
 633 43 633 43 642 71 c 128,-1,70
 651 99 651 99 651 155 c 2,71,-1
 650 189 l 1,72,-1
 649 214 l 1,73,74
 601 229 601 229 557.5 229 c 128,-1,75
 514 229 514 229 484.5 200.5 c 128,-1,65
 455 172 455 172 455 124 c 128,-1,66
EndSplineSet
Substitution2: "'vrt2' Vertical Rotation & Alternates lookup 1 subtable" uni307B.vert
EndChar

StartChar: uni307C
Encoding: 12412 12412 59
Width: 1024
GlyphClass: 2
Flags: W
LayerCount: 2
Fore
SplineSet
88 272.5 m 128,-1,1
 88 436 88 436 132 699 c 0,2,3
 134 718 134 718 136.5 741.5 c 128,-1,4
 139 765 139 765 140 786 c 1,5,-1
 260 775 l 1,6,7
 255 762 255 762 249 736 c 128,-1,8
 243 710 243 710 237 686 c 0,9,10
 224 635 224 635 208 507 c 128,-1,11
 192 379 192 379 191.5 297.5 c 128,-1,12
 191 216 191 216 205 134 c 128,-1,13
 219 52 219 52 232 -35 c 1,14,-1
 128 -42 l 1,15,0
 88 109 88 109 88 272.5 c 128,-1,1
333 121 m 0,16,17
 333 193 333 193 386 238 c 128,-1,18
 439 283 439 283 542 283 c 0,19,20
 583 283 583 283 620 276 c 1,21,22
 619 287 619 287 617.5 315.5 c 128,-1,23
 616 344 616 344 614 376 c 128,-1,24
 612 408 612 408 612 428 c 1,25,26
 593 427 593 427 572 427 c 2,27,-1
 528 427 l 2,28,29
 444 427 444 427 342 432 c 1,30,-1
 342 489 l 1,31,32
 445 482 445 482 502 482 c 2,33,-1
 578 482 l 2,34,35
 596 482 596 482 612 483 c 1,36,-1
 612 680 l 1,37,38
 596 679 596 679 578 679 c 2,39,-1
 540 679 l 2,40,41
 513 679 513 679 357 683 c 1,42,-1
 357 740 l 1,43,44
 436 734 436 734 554 734 c 128,-1,45
 672 734 672 734 817 746 c 1,46,47
 795 796 795 796 785 812 c 1,48,-1
 824 828 l 1,49,50
 875 783 875 783 927 675 c 1,51,-1
 853 644 l 1,52,-1
 838 693 l 1,53,-1
 714 684 l 1,54,-1
 714 487 l 1,55,56
 800 492 800 492 900 505 c 1,57,-1
 900 445 l 1,58,59
 838 437 838 437 714 432 c 1,60,61
 715 422 715 422 716 390.5 c 128,-1,62
 717 359 717 359 719 320 c 128,-1,63
 721 281 721 281 722 247 c 1,64,65
 846 198 846 198 941 113 c 1,66,-1
 882 20 l 1,67,68
 849 65 849 65 806 99 c 128,-1,69
 763 133 763 133 726 158 c 1,70,-1
 727 138 l 1,71,72
 727 45 727 45 679 6.5 c 128,-1,73
 631 -32 631 -32 544 -32 c 0,74,75
 416 -32 416 -32 361 34 c 0,76,77
 333 68 333 68 333 121 c 0,16,17
425 124 m 128,-1,79
 425 76 425 76 453 51 c 128,-1,80
 481 26 481 26 521.5 26 c 128,-1,81
 562 26 562 26 582 34 c 0,82,83
 622 51 622 51 622 155 c 2,84,-1
 621 189 l 1,85,-1
 620 214 l 1,86,87
 572 229 572 229 528 229 c 128,-1,88
 484 229 484 229 454.5 200.5 c 128,-1,78
 425 172 425 172 425 124 c 128,-1,79
889 843 m 1,89,-1
 928 859 l 1,90,91
 979 814 979 814 1030 706 c 1,92,-1
 956 675 l 1,93,94
 916 801 916 801 889 843 c 1,89,-1
EndSplineSet
Substitution2: "'vrt2' Vertical Rotation & Alternates lookup 1 subtable" uni307C.vert
EndChar

StartChar: uni307D
Encoding: 12413 12413 60
Width: 1024
GlyphClass: 2
Flags: W
LayerCount: 2
Fore
SplineSet
88 272.5 m 128,-1,1
 88 436 88 436 132 699 c 0,2,3
 134 718 134 718 136.5 741.5 c 128,-1,4
 139 765 139 765 140 786 c 1,5,-1
 260 775 l 1,6,7
 255 762 255 762 249 736 c 128,-1,8
 243 710 243 710 237 686 c 0,9,10
 224 635 224 635 208 507 c 128,-1,11
 192 379 192 379 191.5 297.5 c 128,-1,12
 191 216 191 216 205 134 c 128,-1,13
 219 52 219 52 232 -35 c 1,14,-1
 128 -42 l 1,15,0
 88 109 88 109 88 272.5 c 128,-1,1
333 121 m 0,16,17
 333 193 333 193 386 238 c 128,-1,18
 439 283 439 283 542 283 c 0,19,20
 583 283 583 283 620 276 c 1,21,22
 619 287 619 287 617.5 315.5 c 128,-1,23
 616 344 616 344 614 376 c 128,-1,24
 612 408 612 408 612 428 c 1,25,26
 593 427 593 427 572 427 c 2,27,-1
 528 427 l 2,28,29
 444 427 444 427 342 432 c 1,30,-1
 342 489 l 1,31,32
 445 482 445 482 502 482 c 2,33,-1
 578 482 l 2,34,35
 596 482 596 482 612 483 c 1,36,-1
 612 680 l 1,37,38
 596 679 596 679 578 679 c 2,39,-1
 540 679 l 2,40,41
 513 679 513 679 357 683 c 1,42,-1
 357 740 l 1,43,44
 422 735 422 735 554.5 735 c 128,-1,45
 687 735 687 735 806 745 c 1,46,47
 799 764 799 764 799 784 c 0,48,49
 799 829 799 829 830 861.5 c 128,-1,50
 861 894 861 894 906 894 c 256,51,52
 951 894 951 894 983.5 861.5 c 128,-1,53
 1016 829 1016 829 1016 784 c 256,54,55
 1016 739 1016 739 983.5 708 c 128,-1,56
 951 677 951 677 911.5 677 c 128,-1,57
 872 677 872 677 847 694 c 1,58,59
 790 688 790 688 714 684 c 1,60,-1
 714 487 l 1,61,62
 800 492 800 492 900 505 c 1,63,-1
 900 445 l 1,64,65
 838 437 838 437 714 432 c 1,66,67
 715 422 715 422 716 390.5 c 128,-1,68
 717 359 717 359 719 320 c 128,-1,69
 721 281 721 281 722 247 c 1,70,71
 846 198 846 198 941 113 c 1,72,-1
 882 20 l 1,73,74
 849 65 849 65 806 99 c 128,-1,75
 763 133 763 133 726 158 c 1,76,-1
 727 138 l 1,77,78
 727 45 727 45 679 6.5 c 128,-1,79
 631 -32 631 -32 544 -32 c 0,80,81
 416 -32 416 -32 361 34 c 0,82,83
 333 68 333 68 333 121 c 0,16,17
425 124 m 128,-1,85
 425 76 425 76 453 51 c 128,-1,86
 481 26 481 26 521.5 26 c 128,-1,87
 562 26 562 26 582 34 c 0,88,89
 622 51 622 51 622 155 c 2,90,-1
 621 189 l 1,91,-1
 620 214 l 1,92,93
 572 229 572 229 528 229 c 128,-1,94
 484 229 484 229 454.5 200.5 c 128,-1,84
 425 172 425 172 425 124 c 128,-1,85
850 784 m 256,95,96
 850 760 850 760 866.5 744 c 128,-1,97
 883 728 883 728 906 728 c 0,98,99
 930 728 930 728 947 744.5 c 128,-1,100
 964 761 964 761 964 784 c 0,101,102
 964 808 964 808 947 824.5 c 128,-1,103
 930 841 930 841 906 841 c 256,104,105
 882 841 882 841 866 824.5 c 128,-1,106
 850 808 850 808 850 784 c 256,95,96
EndSplineSet
Substitution2: "'vrt2' Vertical Rotation & Alternates lookup 1 subtable" uni307D.vert
EndChar

StartChar: uni307E
Encoding: 12414 12414 61
Width: 1024
GlyphClass: 2
Flags: W
LayerCount: 2
Fore
SplineSet
176 106 m 0,0,1
 176 186 176 186 242.5 233 c 128,-1,2
 309 280 309 280 423 280 c 0,3,4
 453 280 453 280 494 274 c 1,5,-1
 488 398 l 1,6,7
 336 398 336 398 194 413 c 1,8,-1
 194 475 l 1,9,10
 320 456 320 456 487 456 c 1,11,-1
 487 615 l 1,12,13
 319 615 319 615 186 635 c 1,14,-1
 186 694 l 1,15,16
 297 671 297 671 488 672 c 1,17,-1
 488 737 l 2,18,19
 488 795 488 795 485 815 c 1,20,-1
 599 815 l 1,21,22
 598 798 598 798 595 732 c 2,23,-1
 595 674 l 1,24,25
 721 680 721 680 867 702 c 1,26,-1
 868 642 l 1,27,28
 639 622 639 622 594 620 c 1,29,-1
 594 586 l 1,30,-1
 593 492 l 1,31,-1
 593 459 l 1,32,33
 714 464 714 464 860 486 c 1,34,-1
 860 425 l 1,35,36
 717 406 717 406 595 402 c 1,37,38
 597 332 597 332 602 254 c 1,39,40
 744 213 744 213 893 95 c 1,41,-1
 829 -3 l 1,42,43
 788 49 788 49 730.5 95 c 128,-1,44
 673 141 673 141 608 171 c 1,45,46
 609 155 609 155 609 137 c 2,47,-1
 609 111 l 2,48,49
 609 70 609 70 589 33 c 128,-1,50
 569 -4 569 -4 526 -27.5 c 128,-1,51
 483 -51 483 -51 416 -51 c 0,52,53
 176 -51 176 -51 176 106 c 0,0,1
271 115 m 128,-1,55
 271 66 271 66 306 36 c 128,-1,56
 341 6 341 6 402 6 c 0,57,58
 498 6 498 6 498 126 c 2,59,-1
 496 214 l 1,60,61
 446 225 446 225 410 225 c 0,62,63
 339 225 339 225 305 194.5 c 128,-1,54
 271 164 271 164 271 115 c 128,-1,55
EndSplineSet
Substitution2: "'vrt2' Vertical Rotation & Alternates lookup 1 subtable" uni307E.vert
EndChar

StartChar: uni307F
Encoding: 12415 12415 62
Width: 1024
GlyphClass: 2
Flags: W
LayerCount: 2
Fore
SplineSet
65 188.5 m 128,-1,1
 65 263 65 263 105.5 319 c 128,-1,2
 146 375 146 375 220.5 406.5 c 128,-1,3
 295 438 295 438 395 442 c 1,4,5
 411 478 411 478 441.5 556.5 c 128,-1,6
 472 635 472 635 497 688 c 1,7,8
 473 688 473 688 407.5 684 c 128,-1,9
 342 680 342 680 314.5 678.5 c 128,-1,10
 287 677 287 677 237 672 c 1,11,-1
 232 741 l 1,12,13
 263 738 263 738 316 738 c 0,14,15
 518 738 518 738 615 760 c 1,16,-1
 652 730 l 1,17,18
 645 719 645 719 638.5 708 c 128,-1,19
 632 697 632 697 622 681.5 c 128,-1,20
 612 666 612 666 591.5 623.5 c 128,-1,21
 571 581 571 581 549.5 530.5 c 128,-1,22
 528 480 528 480 509 436 c 1,23,24
 658 415 658 415 764 370 c 1,25,26
 769 431 769 431 769 467.5 c 128,-1,27
 769 504 769 504 767 535 c 1,28,-1
 880 523 l 1,29,30
 874 424 874 424 855 323 c 1,31,32
 885 307 885 307 973 248 c 1,33,-1
 922 129 l 1,34,35
 866 190 866 190 829 221 c 1,36,37
 785 89 785 89 664 18 c 0,38,39
 606 -16 606 -16 532 -44 c 1,40,-1
 493 -11 l 1,41,42
 649 62 649 62 706 163 c 0,43,44
 735 215 735 215 750 280 c 1,45,46
 691 316 691 316 627.5 341.5 c 128,-1,47
 564 367 564 367 482 378 c 1,48,49
 457 320 457 320 431.5 259 c 128,-1,50
 406 198 406 198 375 146 c 0,51,52
 307 31 307 31 211 31 c 0,53,54
 149 31 149 31 107 72.5 c 128,-1,0
 65 114 65 114 65 188.5 c 128,-1,1
122 196 m 0,55,56
 122 115 122 115 186 115 c 0,57,58
 218 115 218 115 242.5 143 c 128,-1,59
 267 171 267 171 289.5 214.5 c 128,-1,60
 312 258 312 258 332 304 c 128,-1,61
 352 350 352 350 370 385 c 1,62,63
 277 377 277 377 222 346 c 0,64,65
 122 290 122 290 122 196 c 0,55,56
EndSplineSet
Substitution2: "'vrt2' Vertical Rotation & Alternates lookup 1 subtable" uni307F.vert
EndChar

StartChar: uni3080
Encoding: 12416 12416 63
Width: 1024
GlyphClass: 2
Flags: W
LayerCount: 2
Fore
SplineSet
94 294 m 0,0,1
 94 348 94 348 115.5 395.5 c 128,-1,2
 137 443 137 443 177.5 472.5 c 128,-1,3
 218 502 218 502 273 502 c 2,4,-1
 287 502 l 1,5,-1
 287 593 l 1,6,7
 185 593 185 593 104 603 c 1,8,-1
 102 665 l 1,9,10
 198 649 198 649 271 648 c 2,11,-1
 287 648 l 1,12,-1
 287 707 l 2,13,14
 287 781 287 781 281 813 c 1,15,-1
 398 813 l 1,16,17
 391 738 391 738 391 707 c 2,18,-1
 391 657 l 1,19,20
 473 666 473 666 568 691 c 1,21,-1
 568 631 l 1,22,23
 461 607 461 607 391 600 c 1,24,-1
 391 447 l 1,25,26
 420 407 420 407 420 351.5 c 128,-1,27
 420 296 420 296 404.5 250.5 c 128,-1,28
 389 205 389 205 366 176 c 1,29,30
 365 162 365 162 365 149 c 2,31,-1
 365 125 l 2,32,33
 365 76 365 76 382.5 53.5 c 128,-1,34
 400 31 400 31 429 20 c 128,-1,35
 458 9 458 9 496 9 c 0,36,37
 615 9 615 9 675 29 c 0,38,39
 747 53 747 53 748 199 c 0,40,41
 748 256 748 256 740 304 c 1,42,-1
 860 267 l 1,43,44
 861 256 861 256 861 246 c 2,45,-1
 861 225 l 2,46,47
 861 65 861 65 783.5 8.5 c 128,-1,48
 706 -48 706 -48 501 -48 c 0,49,50
 349 -48 349 -48 297 -8 c 0,51,52
 258 23 258 23 258 89 c 2,53,-1
 258 105 l 2,54,55
 258 114 258 114 259 121 c 1,56,-1
 241 121 l 2,57,58
 203 121 203 121 169 138 c 0,59,60
 94 177 94 177 94 294 c 0,0,1
171 302.5 m 128,-1,62
 171 229 171 229 194.5 203 c 128,-1,63
 218 177 218 177 244 177 c 0,64,65
 288 177 288 177 304 237 c 0,66,67
 317 285 317 285 317 336.5 c 128,-1,68
 317 388 317 388 304.5 419 c 128,-1,69
 292 450 292 450 268 450 c 0,70,71
 223 450 223 450 197 413 c 128,-1,61
 171 376 171 376 171 302.5 c 128,-1,62
671 650 m 1,72,-1
 710 692 l 1,73,74
 834 652 834 652 957 528 c 1,75,-1
 878 449 l 1,76,77
 834 512 834 512 787.5 559.5 c 128,-1,78
 741 607 741 607 671 650 c 1,72,-1
EndSplineSet
Substitution2: "'vrt2' Vertical Rotation & Alternates lookup 1 subtable" uni3080.vert
EndChar

StartChar: uni3081
Encoding: 12417 12417 64
Width: 1024
GlyphClass: 2
Flags: W
LayerCount: 2
Fore
SplineSet
79 215.5 m 128,-1,1
 79 337 79 337 152 445 c 0,2,3
 187 497 187 497 231 536 c 1,4,5
 215 580 215 580 201.5 628 c 128,-1,6
 188 676 188 676 169 716 c 1,7,-1
 282 752 l 1,8,9
 296 677 296 677 322 596 c 1,10,11
 435 657 435 657 567 662 c 1,12,13
 580 731 580 731 584 806 c 1,14,-1
 701 795 l 1,15,-1
 669 653 l 1,16,17
 745 637 745 637 805.5 594 c 128,-1,18
 866 551 866 551 901.5 487.5 c 128,-1,19
 937 424 937 424 937 348 c 0,20,21
 937 227 937 227 885 146 c 128,-1,22
 833 65 833 65 743.5 22.5 c 128,-1,23
 654 -20 654 -20 543 -26 c 1,24,-1
 512 17 l 1,25,26
 736 38 736 38 798 192 c 0,27,28
 827 263 827 263 826.5 336.5 c 128,-1,29
 826 410 826 410 806.5 461.5 c 128,-1,30
 787 513 787 513 749 549.5 c 128,-1,31
 711 586 711 586 654 598 c 1,32,33
 618 462 618 462 576 363 c 128,-1,34
 534 264 534 264 506 221 c 1,35,36
 526 194 526 194 557 165 c 1,37,-1
 470 93 l 1,38,39
 460 104 460 104 454 112 c 128,-1,40
 448 120 448 120 440 130 c 1,41,42
 344 22 344 22 233 23 c 0,43,44
 191 23 191 23 156 45 c 0,45,0
 79 94 79 94 79 215.5 c 128,-1,1
181 208 m 0,46,47
 181 155 181 155 200.5 118.5 c 128,-1,48
 220 82 220 82 248 82 c 0,49,50
 313 82 313 82 391 195 c 1,51,52
 313 303 313 303 257 466 c 1,53,54
 181 367 181 367 181 208 c 0,46,47
340 541 m 1,55,56
 393 386 393 386 452 297 c 1,57,58
 489 368 489 368 517 459 c 128,-1,59
 545 550 545 550 557 602 c 1,60,61
 426 596 426 596 340 541 c 1,55,56
EndSplineSet
Substitution2: "'vrt2' Vertical Rotation & Alternates lookup 1 subtable" uni3081.vert
EndChar

StartChar: uni3082
Encoding: 12418 12418 65
Width: 1024
GlyphClass: 2
Flags: W
LayerCount: 2
Fore
SplineSet
101 346 m 1,0,-1
 104 409 l 1,1,2
 197 375 197 375 302 367 c 1,3,4
 315 486 315 486 328 566 c 1,5,6
 219 575 219 575 127 600 c 1,7,-1
 130 659 l 1,8,9
 222 631 222 631 334 623 c 1,10,11
 337 651 337 651 340.5 675.5 c 128,-1,12
 344 700 344 700 345 718 c 128,-1,13
 346 736 346 736 348 757.5 c 128,-1,14
 350 779 350 779 350 799 c 2,15,-1
 350 813 l 1,16,-1
 469 807 l 1,17,18
 457 744 457 744 440 618 c 1,19,20
 554 618 554 618 636 633 c 1,21,-1
 634 572 l 1,22,23
 534 562 534 562 432 562 c 1,24,25
 422 497 422 497 407 362 c 1,26,27
 525 362 525 362 629 376 c 1,28,-1
 627 314 l 1,29,30
 533 304 533 304 402 304 c 1,31,32
 395 211 395 211 395 200 c 0,33,34
 395 126 395 126 442.5 84 c 128,-1,35
 490 42 490 42 583 42 c 0,36,37
 724 42 724 42 788 127 c 0,38,39
 821 170 821 170 821 236 c 0,40,41
 821 329 821 329 743 427 c 1,42,-1
 803 437 l 1,43,44
 902 328 902 328 902 200 c 0,45,46
 902 125 902 125 858 67.5 c 128,-1,47
 814 10 814 10 735.5 -21.5 c 128,-1,48
 657 -53 657 -53 567 -53 c 0,49,50
 288 -53 288 -53 288 183 c 0,51,52
 288 211 288 211 297 309 c 1,53,54
 201 316 201 316 101 346 c 1,0,-1
EndSplineSet
Substitution2: "'vrt2' Vertical Rotation & Alternates lookup 1 subtable" uni3082.vert
EndChar

StartChar: uni3083
Encoding: 12419 12419 66
Width: 1024
GlyphClass: 2
Flags: W
LayerCount: 2
Fore
SplineSet
110 328 m 1,0,1
 170 345 170 345 206 361 c 128,-1,2
 242 377 242 377 270 390 c 1,3,4
 222 490 222 490 176 553 c 1,5,-1
 279 595 l 1,6,7
 298 555 298 555 321 513.5 c 128,-1,8
 344 472 344 472 361 431 c 1,9,10
 489 486 489 486 555.5 502.5 c 128,-1,11
 622 519 622 519 683 519 c 128,-1,12
 744 519 744 519 784.5 495.5 c 128,-1,13
 825 472 825 472 846 433.5 c 128,-1,14
 867 395 867 395 867 349 c 256,15,16
 867 303 867 303 844 261 c 128,-1,17
 821 219 821 219 774 192.5 c 128,-1,18
 727 166 727 166 654.5 166 c 128,-1,19
 582 166 582 166 516 224 c 1,20,-1
 519 279 l 1,21,22
 583 224 583 224 639 223.5 c 128,-1,23
 695 223 695 223 720 241 c 0,24,25
 762 271 762 271 763 353 c 0,26,27
 763 402 763 402 736 432 c 128,-1,28
 709 462 709 462 653 462 c 0,29,30
 562 462 562 462 385 381 c 1,31,32
 466 215 466 215 553 -66 c 1,33,-1
 444 -95 l 1,34,35
 377 166 377 166 294 338 c 1,36,37
 227 304 227 304 139 264 c 1,38,-1
 110 328 l 1,0,1
339 623 m 1,39,-1
 378 659 l 1,40,41
 482 639 482 639 592 575 c 1,42,-1
 526 506 l 1,43,44
 445 580 445 580 339 623 c 1,39,-1
EndSplineSet
Substitution2: "'vrt2' Vertical Rotation & Alternates lookup 1 subtable" uni3083.vert
EndChar

StartChar: uni3084
Encoding: 12420 12420 67
Width: 1024
GlyphClass: 2
Flags: W
LayerCount: 2
Fore
SplineSet
72 431 m 1,0,1
 145 452 145 452 185 469.5 c 128,-1,2
 225 487 225 487 260 504 c 1,3,4
 232 560 232 560 206 609.5 c 128,-1,5
 180 659 180 659 146 703 c 1,6,-1
 256 748 l 1,7,8
 279 701 279 701 307 650 c 128,-1,9
 335 599 335 599 357 548 c 1,10,11
 504 611 504 611 569 628 c 128,-1,12
 634 645 634 645 667 648.5 c 128,-1,13
 700 652 700 652 736 652 c 0,14,15
 803 652 803 652 849.5 625.5 c 128,-1,16
 896 599 896 599 920 555 c 128,-1,17
 944 511 944 511 944 459.5 c 128,-1,18
 944 408 944 408 918 359.5 c 128,-1,19
 892 311 892 311 837.5 280.5 c 128,-1,20
 783 250 783 250 698 250 c 0,21,22
 654 250 654 250 613 269 c 128,-1,23
 572 288 572 288 544 314 c 1,24,-1
 546 368 l 1,25,26
 615 309 615 309 682.5 308.5 c 128,-1,27
 750 308 750 308 780 330 c 0,28,29
 831 367 831 367 830 463 c 0,30,31
 830 521 830 521 798 557.5 c 128,-1,32
 766 594 766 594 699 594 c 0,33,34
 588 594 588 594 381 498 c 1,35,36
 470 315 470 315 578 -22 c 1,37,-1
 459 -53 l 1,38,39
 383 244 383 244 283 452 c 1,40,41
 204 412 204 412 103 366 c 1,42,-1
 72 431 l 1,0,1
341 778 m 1,43,-1
 380 814 l 1,44,45
 501 789 501 789 621 721 c 1,46,-1
 551 646 l 1,47,48
 458 732 458 732 341 778 c 1,43,-1
EndSplineSet
Substitution2: "'vrt2' Vertical Rotation & Alternates lookup 1 subtable" uni3084.vert
EndChar

StartChar: uni3085
Encoding: 12421 12421 68
Width: 1024
GlyphClass: 2
Flags: W
LayerCount: 2
Fore
SplineSet
183 282 m 0,0,1
 183 369 183 369 204 532 c 0,2,3
 205 546 205 546 206 558.5 c 128,-1,4
 207 571 207 571 208 585 c 1,5,-1
 314 575 l 1,6,7
 310 562 310 562 306.5 548.5 c 128,-1,8
 303 535 303 535 299 522 c 0,9,10
 282 437 282 437 280 344 c 1,11,12
 322 420 322 420 388.5 469 c 128,-1,13
 455 518 455 518 532 537 c 1,14,15
 526 588 526 588 511 647 c 1,16,-1
 616 649 l 1,17,18
 623 612 623 612 631 546 c 1,19,20
 711 543 711 543 768.5 509.5 c 128,-1,21
 826 476 826 476 857.5 421.5 c 128,-1,22
 889 367 889 367 889 296 c 128,-1,23
 889 225 889 225 858.5 167.5 c 128,-1,24
 828 110 828 110 767.5 76.5 c 128,-1,25
 707 43 707 43 613 43 c 2,26,-1
 600 43 l 2,27,28
 591 43 591 43 585 44 c 1,29,30
 539 -42 539 -42 434 -94 c 1,31,-1
 388 -67 l 1,32,33
 436 -37 436 -37 460 -5 c 128,-1,34
 484 27 484 27 502 65 c 1,35,36
 415 102 415 102 364 203 c 1,37,-1
 397 239 l 1,38,39
 444 151 444 151 521 117 c 1,40,41
 547 213 547 213 547 314 c 128,-1,42
 547 415 547 415 539 482 c 1,43,44
 470 466 470 466 418.5 426 c 128,-1,45
 367 386 367 386 330 326 c 0,46,47
 285 255 285 255 290 196 c 1,48,49
 290 119 290 119 306 53 c 1,50,-1
 215 41 l 1,51,52
 183 141 183 141 183 282 c 0,0,1
609 99 m 1,53,-1
 614 99 l 2,54,55
 677 99 677 99 716.5 130.5 c 128,-1,56
 756 162 756 162 773 209 c 128,-1,57
 790 256 790 256 790 305 c 0,58,59
 790 382 790 382 750.5 435 c 128,-1,60
 711 488 711 488 637 492 c 1,61,62
 644 410 644 410 644 341 c 0,63,64
 644 189 644 189 609 99 c 1,53,-1
EndSplineSet
Substitution2: "'vrt2' Vertical Rotation & Alternates lookup 1 subtable" uni3085.vert
EndChar

StartChar: uni3086
Encoding: 12422 12422 69
Width: 1024
GlyphClass: 2
Flags: W
LayerCount: 2
Fore
SplineSet
123 382 m 0,0,1
 123 490 123 490 147 666 c 0,2,3
 150 694 150 694 154 740 c 1,4,-1
 268 731 l 1,5,6
 264 717 264 717 259 700 c 128,-1,7
 254 683 254 683 241 610.5 c 128,-1,8
 228 538 228 538 226 437 c 1,9,10
 274 531 274 531 355 592.5 c 128,-1,11
 436 654 436 654 530 676 c 1,12,13
 524 732 524 732 504 813 c 1,14,-1
 616 815 l 1,15,16
 629 735 629 735 636 686 c 1,17,18
 729 684 729 684 796.5 645.5 c 128,-1,19
 864 607 864 607 900 543.5 c 128,-1,20
 936 480 936 480 936 398.5 c 128,-1,21
 936 317 936 317 901.5 250.5 c 128,-1,22
 867 184 867 184 797 146.5 c 128,-1,23
 727 109 727 109 620 109 c 0,24,25
 597 109 597 109 583 111 c 1,26,27
 528 6 528 6 411 -50 c 1,28,-1
 365 -23 l 1,29,30
 421 12 421 12 448 50.5 c 128,-1,31
 475 89 475 89 496 132 c 1,32,33
 389 178 389 178 334 290 c 1,34,-1
 368 326 l 1,35,36
 424 222 424 222 514 184 c 1,37,38
 545 295 545 295 545 447 c 0,39,40
 545 538 545 538 536 621 c 1,41,42
 453 603 453 603 391.5 555.5 c 128,-1,43
 330 508 330 508 292 448.5 c 128,-1,44
 254 389 254 389 242 331 c 0,45,46
 240 324 240 324 240 310 c 2,47,-1
 240 250 l 2,48,49
 240 198 240 198 257 121 c 1,50,-1
 159 108 l 1,51,52
 123 220 123 220 123 382 c 0,0,1
608 167 m 1,53,-1
 621 166 l 1,54,55
 728 166 728 166 781 245 c 0,56,57
 828 314 828 314 828 410 c 0,58,59
 828 540 828 540 743 600 c 0,60,61
 701 630 701 630 641 631 c 1,62,63
 650 539 650 539 650 450 c 0,64,65
 650 273 650 273 608 167 c 1,53,-1
EndSplineSet
Substitution2: "'vrt2' Vertical Rotation & Alternates lookup 1 subtable" uni3086.vert
EndChar

StartChar: uni3087
Encoding: 12423 12423 70
Width: 1024
GlyphClass: 2
Flags: W
LayerCount: 2
Fore
SplineSet
171 74 m 0,0,1
 171 142 171 142 230 187.5 c 128,-1,2
 289 233 289 233 406 233 c 0,3,4
 421 233 421 233 463 230 c 1,5,6
 456 438 456 438 456 556 c 0,7,8
 454 622 454 622 450 656 c 1,9,-1
 566 656 l 1,10,-1
 559 555 l 1,11,-1
 559 476 l 1,12,13
 659 478 659 478 802 494 c 1,14,-1
 804 435 l 1,15,16
 691 425 691 425 559 420 c 1,17,18
 559 378 559 378 561.5 319.5 c 128,-1,19
 564 261 564 261 566 211 c 1,20,21
 718 166 718 166 839 56 c 1,22,-1
 777 -40 l 1,23,24
 738 9 738 9 684 56 c 128,-1,25
 630 103 630 103 572 131 c 1,26,27
 573 115 573 115 573 95 c 2,28,-1
 573 68 l 2,29,30
 573 -21 573 -21 501 -59 c 0,31,32
 462 -79 462 -79 398 -79.5 c 128,-1,33
 334 -80 334 -80 283 -65 c 0,34,35
 171 -32 171 -32 171 74 c 0,0,1
274 78 m 256,36,37
 274 33 274 33 301 5 c 128,-1,38
 328 -23 328 -23 387.5 -23 c 128,-1,39
 447 -23 447 -23 461 40 c 0,40,41
 467 68 467 68 467 103.5 c 128,-1,42
 467 139 467 139 465 170 c 1,43,44
 428 178 428 178 394 178 c 0,45,46
 336 178 336 178 305 150.5 c 128,-1,47
 274 123 274 123 274 78 c 256,36,37
EndSplineSet
Substitution2: "'vrt2' Vertical Rotation & Alternates lookup 1 subtable" uni3087.vert
EndChar

StartChar: uni3088
Encoding: 12424 12424 71
Width: 1024
GlyphClass: 2
Flags: W
LayerCount: 2
Fore
SplineSet
120 116.5 m 128,-1,1
 120 174 120 174 150 215 c 0,2,3
 215 304 215 304 388 304 c 0,4,5
 393 304 393 304 459 300 c 1,6,7
 451 511 451 511 451 683 c 0,8,9
 449 765 449 765 443 808 c 1,10,-1
 570 808 l 1,11,12
 565 741 565 741 562 683 c 2,13,-1
 562 587 l 1,14,15
 719 591 719 591 845 605 c 1,16,-1
 847 546 l 1,17,18
 696 532 696 532 562 528 c 1,19,20
 562 453 562 453 571 279 c 1,21,22
 671 250 671 250 752 201.5 c 128,-1,23
 833 153 833 153 887 102 c 1,24,-1
 820 -2 l 1,25,26
 774 55 774 55 710 110 c 128,-1,27
 646 165 646 165 578 197 c 1,28,29
 580 160 580 160 580 116 c 128,-1,30
 580 72 580 72 561 33 c 0,31,32
 519 -53 519 -53 368.5 -52.5 c 128,-1,33
 218 -52 218 -52 154 20 c 0,34,0
 120 59 120 59 120 116.5 c 128,-1,1
231 128 m 256,35,36
 231 75 231 75 263 40.5 c 128,-1,37
 295 6 295 6 368 6 c 128,-1,38
 441 6 441 6 457 82 c 0,39,40
 464 115 464 115 464 150 c 2,41,-1
 461 239 l 1,42,43
 420 248 420 248 375 248 c 0,44,45
 306 248 306 248 268.5 214.5 c 128,-1,46
 231 181 231 181 231 128 c 256,35,36
EndSplineSet
Substitution2: "'vrt2' Vertical Rotation & Alternates lookup 1 subtable" uni3088.vert
EndChar

StartChar: uni3089
Encoding: 12425 12425 72
Width: 1024
GlyphClass: 2
Flags: W
LayerCount: 2
Fore
SplineSet
170 211 m 1,0,1
 193 316 193 316 206.5 454 c 128,-1,2
 220 592 220 592 222 636 c 1,3,-1
 340 620 l 1,4,5
 315 479 315 479 301 364 c 1,6,7
 438 469 438 469 610 469 c 0,8,9
 694 469 694 469 755 438.5 c 128,-1,10
 816 408 816 408 850 356.5 c 128,-1,11
 884 305 884 305 884 244 c 0,12,13
 884 102 884 102 780.5 32.5 c 128,-1,14
 677 -37 677 -37 495 -37 c 0,15,16
 413 -37 413 -37 334 -26 c 1,17,-1
 316 29 l 1,18,19
 388 21 388 21 452 20 c 0,20,21
 602 20 602 20 683.5 71 c 128,-1,22
 765 122 765 122 765 236 c 0,23,24
 765 319 765 319 719 366.5 c 128,-1,25
 673 414 673 414 601 414 c 0,26,27
 508 414 508 414 432 375 c 128,-1,28
 356 336 356 336 305 276 c 0,29,30
 293 262 293 262 286.5 243.5 c 128,-1,31
 280 225 280 225 272 186 c 1,32,-1
 170 211 l 1,0,1
328 764 m 1,33,-1
 341 814 l 1,34,35
 440 782 440 782 658 747 c 0,36,37
 712 738 712 738 748 735 c 1,38,-1
 722 627 l 1,39,40
 522 684 522 684 448 710.5 c 128,-1,41
 374 737 374 737 328 764 c 1,33,-1
EndSplineSet
Substitution2: "'vrt2' Vertical Rotation & Alternates lookup 1 subtable" uni3089.vert
EndChar

StartChar: uni308A
Encoding: 12426 12426 73
Width: 1024
GlyphClass: 2
Flags: W
LayerCount: 2
Fore
SplineSet
205 381 m 0,0,1
 205 489 205 489 224 636 c 128,-1,2
 243 783 243 783 245 815 c 1,3,-1
 361 811 l 1,4,5
 330 686 330 686 321 582 c 1,6,7
 378 686 378 686 471 738 c 0,8,9
 520 766 520 766 584.5 766 c 128,-1,10
 649 766 649 766 705 731 c 0,11,12
 824 656 824 656 823 408 c 0,13,14
 823 202 823 202 695 87 c 0,15,16
 578 -17 578 -17 374 -41 c 1,17,-1
 343 4 l 1,18,19
 481 35 481 35 560.5 87 c 128,-1,20
 640 139 640 139 673.5 218 c 128,-1,21
 707 297 707 297 707 408 c 0,22,23
 707 563 707 563 669 636.5 c 128,-1,24
 631 710 631 710 566 710 c 0,25,26
 485 710 485 710 407 617 c 0,27,28
 344 542 344 542 319 469 c 1,29,30
 315 420 315 420 315 362 c 128,-1,31
 315 304 315 304 326 232 c 1,32,-1
 218 225 l 1,33,34
 205 322 205 322 205 381 c 0,0,1
EndSplineSet
Substitution2: "'vrt2' Vertical Rotation & Alternates lookup 1 subtable" uni308A.vert
EndChar

StartChar: uni308B
Encoding: 12427 12427 74
Width: 1024
GlyphClass: 2
Flags: W
LayerCount: 2
Fore
SplineSet
104 272 m 1,0,1
 239 383 239 383 292.5 428.5 c 128,-1,2
 346 474 346 474 367.5 492 c 128,-1,3
 389 510 389 510 421 536 c 0,4,5
 537 632 537 632 611 696 c 1,6,7
 555 694 555 694 489.5 690 c 128,-1,8
 424 686 424 686 359.5 683.5 c 128,-1,9
 295 681 295 681 255 676 c 1,10,-1
 252 743 l 1,11,12
 293 739 293 739 327.5 739 c 128,-1,13
 362 739 362 739 402 740 c 0,14,15
 647 746 647 746 741 761 c 1,16,-1
 783 706 l 1,17,18
 767 695 767 695 749 683.5 c 128,-1,19
 731 672 731 672 714.5 660.5 c 128,-1,20
 698 649 698 649 667 623.5 c 128,-1,21
 636 598 636 598 599 567 c 128,-1,22
 562 536 562 536 526 505 c 128,-1,23
 490 474 490 474 462 451 c 1,24,25
 515 463 515 463 594.5 463 c 128,-1,26
 674 463 674 463 741.5 431 c 128,-1,27
 809 399 809 399 848.5 346.5 c 128,-1,28
 888 294 888 294 888 232 c 0,29,30
 888 102 888 102 792.5 33 c 128,-1,31
 697 -36 697 -36 536.5 -36 c 128,-1,32
 376 -36 376 -36 318 30 c 0,33,34
 288 64 288 64 288 120.5 c 128,-1,35
 288 177 288 177 336.5 212 c 128,-1,36
 385 247 385 247 450 247 c 128,-1,37
 515 247 515 247 561.5 222 c 128,-1,38
 608 197 608 197 639 151.5 c 128,-1,39
 670 106 670 106 678 48 c 1,40,41
 726 72 726 72 750.5 111.5 c 128,-1,42
 775 151 775 151 775 233 c 0,43,44
 775 287 775 287 747 327 c 128,-1,45
 719 367 719 367 670 388 c 128,-1,46
 621 409 621 409 559 409 c 0,47,48
 453 409 453 409 373.5 357 c 128,-1,49
 294 305 294 305 185 190 c 1,50,-1
 104 272 l 1,0,1
381 114.5 m 128,-1,52
 381 72 381 72 416.5 46 c 128,-1,53
 452 20 452 20 503.5 20 c 128,-1,54
 555 20 555 20 580 24 c 1,55,56
 573 111 573 111 541.5 152.5 c 128,-1,57
 510 194 510 194 460 194 c 0,58,59
 430 194 430 194 405.5 175.5 c 128,-1,51
 381 157 381 157 381 114.5 c 128,-1,52
EndSplineSet
Substitution2: "'vrt2' Vertical Rotation & Alternates lookup 1 subtable" uni308B.vert
EndChar

StartChar: uni308C
Encoding: 12428 12428 75
Width: 1024
GlyphClass: 2
Flags: W
LayerCount: 2
Fore
SplineSet
63 145 m 1,0,1
 112 205 112 205 177 296 c 128,-1,2
 242 387 242 387 268 428 c 1,3,-1
 271 470 l 2,4,5
 273 498 273 498 275.5 525.5 c 128,-1,6
 278 553 278 553 279 569 c 1,7,8
 259 567 259 567 94 545 c 1,9,-1
 89 611 l 1,10,11
 161 611 161 611 201.5 616.5 c 128,-1,12
 242 622 242 622 282 628 c 1,13,14
 284 662 284 662 286.5 686.5 c 128,-1,15
 289 711 289 711 289 748.5 c 128,-1,16
 289 786 289 786 286 817 c 1,17,-1
 410 813 l 1,18,19
 397 736 397 736 376 506 c 1,20,21
 416 542 416 542 464 581 c 0,22,23
 578 675 578 675 674 675 c 0,24,25
 752 675 752 675 790 634 c 128,-1,26
 828 593 828 593 828 536.5 c 128,-1,27
 828 480 828 480 810 343.5 c 128,-1,28
 792 207 792 207 792.5 165 c 128,-1,29
 793 123 793 123 800.5 95 c 128,-1,30
 808 67 808 67 841.5 67 c 128,-1,31
 875 67 875 67 936 116 c 0,32,33
 963 138 963 138 985 162 c 1,34,-1
 993 105 l 1,35,36
 954 46 954 46 877 16 c 0,37,38
 841 2 841 2 805 2 c 0,39,40
 751 2 751 2 716 36.5 c 128,-1,41
 681 71 681 71 681 122 c 0,42,43
 681 201 681 201 700 322 c 128,-1,44
 719 443 719 443 719 483.5 c 128,-1,45
 719 524 719 524 715 552 c 0,46,47
 705 618 705 618 644.5 617.5 c 128,-1,48
 584 617 584 617 441 495 c 0,49,50
 402 461 402 461 369 425 c 1,51,52
 365 316 365 316 365 183 c 128,-1,53
 365 50 365 50 374 -39 c 1,54,-1
 256 -39 l 1,55,56
 259 -17 259 -17 260 87 c 128,-1,57
 261 191 261 191 264 323 c 1,58,59
 180 200 180 200 102 91 c 1,60,-1
 63 145 l 1,0,1
EndSplineSet
Substitution2: "'vrt2' Vertical Rotation & Alternates lookup 1 subtable" uni308C.vert
EndChar

StartChar: uni308D
Encoding: 12429 12429 76
Width: 1024
GlyphClass: 2
Flags: W
LayerCount: 2
Fore
SplineSet
93 263 m 1,0,1
 193 358 193 358 369.5 507.5 c 128,-1,2
 546 657 546 657 575 684 c 1,3,4
 326 674 326 674 247 666 c 1,5,-1
 246 741 l 1,6,7
 278 737 278 737 315 737 c 128,-1,8
 352 737 352 737 394 738 c 0,9,10
 668 745 668 745 727 757 c 1,11,-1
 774 696 l 1,12,13
 737 678 737 678 712.5 658.5 c 128,-1,14
 688 639 688 639 616.5 583 c 128,-1,15
 545 527 545 527 471 466 c 1,16,17
 526 479 526 479 597 479 c 128,-1,18
 668 479 668 479 737.5 454.5 c 128,-1,19
 807 430 807 430 847.5 379 c 128,-1,20
 888 328 888 328 888 252 c 0,21,22
 888 111 888 111 779.5 34 c 128,-1,23
 671 -43 671 -43 513 -43 c 0,24,25
 430 -43 430 -43 352 -25 c 1,26,-1
 334 38 l 1,27,28
 419 25 419 25 466 25 c 0,29,30
 612 25 612 25 687.5 83.5 c 128,-1,31
 763 142 763 142 763 249 c 0,32,33
 763 323 763 323 710 369 c 128,-1,34
 657 415 657 415 568 415 c 128,-1,35
 479 415 479 415 408.5 371 c 128,-1,36
 338 327 338 327 284 276 c 128,-1,37
 230 225 230 225 180 171 c 1,38,-1
 93 263 l 1,0,1
EndSplineSet
Substitution2: "'vrt2' Vertical Rotation & Alternates lookup 1 subtable" uni308D.vert
EndChar

StartChar: uni308E
Encoding: 12430 12430 77
Width: 1024
GlyphClass: 2
Flags: W
LayerCount: 2
Fore
SplineSet
132 106 m 1,0,1
 235 235 235 235 311 351 c 1,2,-1
 317 468 l 1,3,4
 301 466 301 466 161 446 c 1,5,-1
 156 511 l 1,6,7
 250 514 250 514 322 524 c 1,8,9
 324 552 324 552 326 573 c 128,-1,10
 328 594 328 594 328 622 c 128,-1,11
 328 650 328 650 325 678 c 1,12,-1
 439 674 l 1,13,14
 419 558 419 558 409 415 c 1,15,16
 535 520 535 520 670 520 c 0,17,18
 736 520 736 520 790.5 491.5 c 128,-1,19
 845 463 845 463 877.5 410 c 128,-1,20
 910 357 910 357 910 273.5 c 128,-1,21
 910 190 910 190 867 129 c 0,22,23
 786 13 786 13 571 -13 c 1,24,-1
 550 35 l 1,25,26
 627 47 627 47 685 75 c 0,27,28
 806 133 806 133 806 289 c 0,29,30
 806 391 806 391 748 438 c 0,31,32
 716 464 716 464 654 464 c 128,-1,33
 592 464 592 464 534.5 432.5 c 128,-1,34
 477 401 477 401 404 342 c 1,35,36
 400 250 400 250 400 142 c 128,-1,37
 400 34 400 34 409 -48 c 1,38,-1
 300 -48 l 1,39,40
 302 -21 302 -21 302.5 25.5 c 128,-1,41
 303 72 303 72 304 128 c 128,-1,42
 305 184 305 184 306 247 c 1,43,44
 255 171 255 171 171 55 c 1,45,-1
 132 106 l 1,0,1
EndSplineSet
Substitution2: "'vrt2' Vertical Rotation & Alternates lookup 1 subtable" uni308E.vert
EndChar

StartChar: uni308F
Encoding: 12431 12431 78
Width: 1024
GlyphClass: 2
Flags: W
LayerCount: 2
Fore
SplineSet
62 145 m 1,0,1
 168 276 168 276 269 428 c 1,2,-1
 278 569 l 1,3,4
 263 567 263 567 94 545 c 1,5,-1
 89 611 l 1,6,7
 178 613 178 613 210 617 c 128,-1,8
 242 621 242 621 282 627 c 1,9,10
 284 661 284 661 286.5 686 c 128,-1,11
 289 711 289 711 289 748.5 c 128,-1,12
 289 786 289 786 286 817 c 1,13,-1
 410 813 l 1,14,15
 385 658 385 658 375 494 c 1,16,17
 525 623 525 623 682 623 c 0,18,19
 758 623 758 623 820.5 589.5 c 128,-1,20
 883 556 883 556 920.5 495.5 c 128,-1,21
 958 435 958 435 958 353 c 0,22,23
 958 146 958 146 774 63 c 0,24,25
 687 24 687 24 571 10 c 1,26,-1
 549 58 l 1,27,28
 739 86 739 86 808 200 c 0,29,30
 845 260 845 260 845 357 c 0,31,32
 845 498 845 498 755 547 c 0,33,34
 721 565 721 565 670 565 c 0,35,36
 592 565 592 565 523.5 528.5 c 128,-1,37
 455 492 455 492 370 421 c 1,38,39
 365 331 365 331 365 190.5 c 128,-1,40
 365 50 365 50 374 -39 c 1,41,-1
 257 -39 l 1,42,43
 259 -10 259 -10 260 92 c 128,-1,44
 261 194 261 194 264 323 c 1,45,46
 197 226 197 226 102 92 c 1,47,-1
 62 145 l 1,0,1
EndSplineSet
Substitution2: "'vrt2' Vertical Rotation & Alternates lookup 1 subtable" uni308F.vert
EndChar

StartChar: uni3090
Encoding: 12432 12432 79
Width: 1024
GlyphClass: 2
Flags: W
LayerCount: 2
Fore
SplineSet
82 150.5 m 128,-1,1
 82 201 82 201 109.5 264 c 128,-1,2
 137 327 137 327 187 381 c 0,3,4
 294 498 294 498 446 547 c 1,5,6
 473 631 473 631 490 708 c 1,7,8
 364 704 364 704 222 688 c 1,9,-1
 218 756 l 1,10,11
 255 752 255 752 283 752 c 0,12,13
 463 752 463 752 587 772 c 1,14,-1
 624 745 l 1,15,16
 600 703 600 703 590.5 675.5 c 128,-1,17
 581 648 581 648 556 568 c 1,18,-1
 574 568 l 2,19,20
 672 568 672 568 750.5 533.5 c 128,-1,21
 829 499 829 499 874.5 433.5 c 128,-1,22
 920 368 920 368 920 281.5 c 128,-1,23
 920 195 920 195 886 124 c 128,-1,24
 852 53 852 53 783 9.5 c 128,-1,25
 714 -34 714 -34 610.5 -34 c 128,-1,26
 507 -34 507 -34 459 23 c 0,27,28
 434 52 434 52 434 97 c 0,29,30
 434 158 434 158 480 191.5 c 128,-1,31
 526 225 526 225 592 225 c 0,32,33
 723 226 723 226 775 113 c 1,34,35
 812 187 812 187 812 262 c 128,-1,36
 812 337 812 337 788.5 390.5 c 128,-1,37
 765 444 765 444 715.5 478 c 128,-1,38
 666 512 666 512 586 512 c 2,39,-1
 562 512 l 2,40,41
 549 512 549 512 538 510 c 1,42,43
 474 314 474 314 444.5 243 c 128,-1,44
 415 172 415 172 383 124 c 0,45,46
 312 16 312 16 205 16 c 0,47,48
 174 16 174 16 146 31 c 128,-1,49
 118 46 118 46 100 73 c 128,-1,0
 82 100 82 100 82 150.5 c 128,-1,1
181 152 m 0,50,51
 181 116 181 116 192 97.5 c 128,-1,52
 203 79 203 79 213 79 c 0,53,54
 288 79 288 79 361 293 c 0,55,56
 380 349 380 349 391.5 386 c 128,-1,57
 403 423 403 423 411 443.5 c 128,-1,58
 419 464 419 464 425 481 c 1,59,60
 312 436 312 436 242 329 c 0,61,62
 181 236 181 236 181 152 c 0,50,51
515 95 m 128,-1,64
 515 56 515 56 543 39 c 128,-1,65
 571 22 571 22 610.5 22 c 128,-1,66
 650 22 650 22 695 48 c 1,67,68
 688 111 688 111 658.5 142.5 c 128,-1,69
 629 174 629 174 596 174 c 128,-1,70
 563 174 563 174 539 154 c 128,-1,63
 515 134 515 134 515 95 c 128,-1,64
EndSplineSet
Substitution2: "'vrt2' Vertical Rotation & Alternates lookup 1 subtable" uni3090.vert
EndChar

StartChar: uni3091
Encoding: 12433 12433 80
Width: 1024
GlyphClass: 2
Flags: W
LayerCount: 2
Fore
SplineSet
51 0 m 1,0,1
 134 89 134 89 256 184 c 0,2,3
 313 229 313 229 369 264 c 1,4,5
 327 280 327 280 310.5 310 c 128,-1,6
 294 340 294 340 294 371.5 c 128,-1,7
 294 403 294 403 317.5 429.5 c 128,-1,8
 341 456 341 456 378.5 469.5 c 128,-1,9
 416 483 416 483 464 483 c 128,-1,10
 512 483 512 483 552 454.5 c 128,-1,11
 592 426 592 426 592 380 c 0,12,13
 592 366 592 366 580.5 345.5 c 128,-1,14
 569 325 569 325 544 306 c 1,15,16
 654 308 654 308 706 367 c 0,17,18
 733 397 733 397 732.5 445 c 128,-1,19
 732 493 732 493 688.5 530 c 128,-1,20
 645 567 645 567 564.5 567 c 128,-1,21
 484 567 484 567 398.5 528.5 c 128,-1,22
 313 490 313 490 179 382 c 1,23,-1
 113 463 l 1,24,25
 260 561 260 561 532 717 c 1,26,-1
 257 706 l 1,27,-1
 255 766 l 1,28,29
 298 763 298 763 330 763 c 0,30,31
 578 763 578 763 708 783 c 1,32,-1
 753 726 l 1,33,34
 681 706 681 706 506 609 c 1,35,36
 550 614 550 614 573 614 c 0,37,38
 732 614 732 614 805 541 c 0,39,40
 842 504 842 504 842 448 c 0,41,42
 842 340 842 340 745 286 c 0,43,44
 656 235 656 235 526 234 c 0,45,46
 480 234 480 234 434 244 c 1,47,-1
 383 210 l 2,48,49
 354 191 354 191 334 174 c 1,50,51
 363 178 363 178 376 178 c 0,52,53
 459 178 459 178 505 89 c 1,54,55
 540 139 540 139 591.5 171 c 128,-1,56
 643 203 643 203 702.5 203 c 128,-1,57
 762 203 762 203 810 174 c 0,58,59
 902 120 902 120 961 -13 c 1,60,-1
 851 -56 l 1,61,62
 832 0 832 0 812.5 46 c 128,-1,63
 793 92 793 92 765 120 c 128,-1,64
 737 148 737 148 700 148 c 0,65,66
 634 148 634 148 595 83 c 0,67,68
 561 27 561 27 554 -45 c 1,69,-1
 443 -45 l 1,70,71
 421 130 421 130 342 130 c 0,72,73
 311 130 311 130 286.5 112.5 c 128,-1,74
 262 95 262 95 234 63.5 c 128,-1,75
 206 32 206 32 147 -54 c 1,76,-1
 51 0 l 1,0,1
364 374 m 128,-1,78
 364 348 364 348 386 331 c 128,-1,79
 408 314 408 314 445 309 c 1,80,81
 511 335 511 335 511 378 c 0,82,83
 511 402 511 402 493.5 419 c 128,-1,84
 476 436 476 436 443 436 c 128,-1,85
 410 436 410 436 387 418 c 128,-1,77
 364 400 364 400 364 374 c 128,-1,78
EndSplineSet
Substitution2: "'vrt2' Vertical Rotation & Alternates lookup 1 subtable" uni3091.vert
EndChar

StartChar: uni3092
Encoding: 12434 12434 81
Width: 1024
GlyphClass: 2
Flags: W
LayerCount: 2
Fore
SplineSet
84 312 m 1,0,1
 243 461 243 461 322 620 c 1,2,3
 213 620 213 620 126 625 c 1,4,-1
 126 687 l 1,5,6
 218 676 218 676 344 676 c 1,7,8
 372 773 372 773 374 820 c 1,9,-1
 487 812 l 1,10,11
 469 735 469 735 453 679 c 1,12,13
 609 685 609 685 751 711 c 1,14,-1
 751 651 l 1,15,16
 603 629 603 629 432 623 c 1,17,18
 392 537 392 537 348 475 c 1,19,20
 399 512 399 512 472.5 512 c 128,-1,21
 546 512 546 512 589 464 c 0,22,23
 611 440 611 440 614 403 c 1,24,25
 663 426 663 426 734.5 456.5 c 128,-1,26
 806 487 806 487 866 518 c 1,27,-1
 892 459 l 1,28,29
 723 396 723 396 621 348 c 1,30,-1
 625 138 l 1,31,-1
 518 138 l 1,32,33
 522 173 522 173 522 298 c 1,34,35
 425 247 425 247 380 188 c 0,36,37
 358 159 358 159 358 131 c 0,38,39
 358 47 358 47 554 47 c 0,40,41
 688 47 688 47 840 75 c 1,42,-1
 837 -38 l 1,43,44
 723 -50 723 -50 552 -50 c 128,-1,45
 381 -50 381 -50 314 14 c 0,46,47
 277 49 277 49 278 115 c 0,48,49
 278 194 278 194 356 258 c 0,50,51
 411 303 411 303 521 357 c 1,52,53
 515 458 515 458 438 459 c 0,54,55
 387 459 387 459 327 404.5 c 128,-1,56
 267 350 267 350 235.5 311 c 128,-1,57
 204 272 204 272 178 241 c 1,58,-1
 84 312 l 1,0,1
EndSplineSet
Substitution2: "'vrt2' Vertical Rotation & Alternates lookup 1 subtable" uni3092.vert
EndChar

StartChar: uni3093
Encoding: 12435 12435 82
Width: 1024
GlyphClass: 2
Flags: W
LayerCount: 2
Fore
SplineSet
69 1 m 1,0,1
 154 236 154 236 415 719 c 1,2,-1
 421 732 l 2,3,4
 428 745 428 745 436 762.5 c 128,-1,5
 444 780 444 780 452 796 c 128,-1,6
 460 812 460 812 462 818 c 1,7,-1
 583 769 l 1,8,9
 575 758 575 758 565 741 c 128,-1,10
 555 724 555 724 542 704 c 0,11,12
 477 609 477 609 372 408 c 1,13,14
 431 446 431 446 490 445.5 c 128,-1,15
 549 445 549 445 583 411 c 128,-1,16
 617 377 617 377 621 313 c 0,17,18
 622 293 622 293 622 276 c 2,19,-1
 622 223 l 2,20,21
 622 130 622 130 630.5 97.5 c 128,-1,22
 639 65 639 65 653.5 49 c 128,-1,23
 668 33 668 33 694 33 c 0,24,25
 745 33 745 33 788 68 c 0,26,27
 874 138 874 138 912 287 c 1,28,-1
 952 255 l 1,29,30
 921 113 921 113 858 35.5 c 128,-1,31
 795 -42 795 -42 684.5 -42 c 128,-1,32
 574 -42 574 -42 536 30 c 0,33,34
 519 62 519 62 517 96.5 c 128,-1,35
 515 131 515 131 515 197.5 c 128,-1,36
 515 264 515 264 507 330 c 0,37,38
 500 388 500 388 447 388 c 0,39,40
 388 388 388 388 341 318 c 0,41,42
 315 281 315 281 286 218 c 0,43,44
 221 82 221 82 189 -40 c 1,45,-1
 69 1 l 1,0,1
EndSplineSet
Substitution2: "'vrt2' Vertical Rotation & Alternates lookup 1 subtable" uni3093.vert
EndChar

StartChar: uni3094
Encoding: 12436 12436 83
Width: 1024
GlyphClass: 2
Flags: W
LayerCount: 2
Fore
SplineSet
139 493 m 1,0,1
 164 494 164 494 198 501 c 128,-1,2
 232 508 232 508 262.5 514 c 128,-1,3
 293 520 293 520 336 533 c 0,4,5
 449 566 449 566 541 566 c 0,6,7
 663 566 663 566 734.5 508.5 c 128,-1,8
 806 451 806 451 806 336 c 0,9,10
 806 88 806 88 521 2 c 0,11,12
 434 -24 434 -24 333 -40 c 1,13,-1
 303 7 l 1,14,15
 491 31 491 31 588.5 109.5 c 128,-1,16
 686 188 686 188 686 340 c 0,17,18
 686 433 686 433 618 478 c 0,19,20
 583 502 583 502 513 502 c 128,-1,21
 443 502 443 502 376.5 484 c 128,-1,22
 310 466 310 466 257 451.5 c 128,-1,23
 204 437 204 437 160 419 c 1,24,-1
 139 493 l 1,0,1
271 729 m 1,25,-1
 283 790 l 1,26,27
 504 783 504 783 720 740 c 1,28,-1
 701 632 l 1,29,30
 602 680 602 680 488.5 700.5 c 128,-1,31
 375 721 375 721 271 729 c 1,25,-1
721 687 m 1,32,-1
 760 703 l 1,33,34
 834 638 834 638 882 562 c 1,35,-1
 808 531 l 1,36,37
 775 603 775 603 721 687 c 1,32,-1
837 730 m 1,38,-1
 876 746 l 1,39,40
 950 681 950 681 997 605 c 1,41,-1
 924 574 l 1,42,43
 891 646 891 646 837 730 c 1,38,-1
EndSplineSet
EndChar

StartChar: uni3095
Encoding: 12437 12437 84
Width: 1024
GlyphClass: 2
Flags: W
LayerCount: 2
Fore
SplineSet
145 -33 m 1,0,1
 202 44 202 44 252 166 c 128,-1,2
 302 288 302 288 332 401 c 1,3,4
 296 397 296 397 262 394 c 128,-1,5
 228 391 228 391 167 382 c 1,6,-1
 158 451 l 1,7,8
 172 450 172 450 184 450 c 2,9,-1
 208 450 l 2,10,11
 259 450 259 450 345 458 c 1,12,13
 369 580 369 580 369 656 c 1,14,-1
 485 644 l 1,15,16
 471 588 471 588 450 466 c 1,17,18
 524 472 524 472 527 472 c 0,19,20
 625 472 625 472 666 416 c 0,21,22
 689 385 689 385 688 330 c 0,23,24
 686 40 686 40 598 -40 c 0,25,26
 569 -66 569 -66 526 -67 c 0,27,28
 461 -67 461 -67 391 -37 c 1,29,-1
 381 19 l 1,30,31
 454 -1 454 -1 486 -1 c 128,-1,32
 518 -1 518 -1 530 20 c 0,33,34
 552 61 552 61 570 145 c 128,-1,35
 588 229 588 229 589 318 c 0,36,37
 589 372 589 372 569 394 c 128,-1,38
 549 416 549 416 511 416 c 0,39,40
 500 416 500 416 479.5 414 c 128,-1,41
 459 412 459 412 437 411 c 1,42,43
 365 120 365 120 251 -75 c 1,44,-1
 145 -33 l 1,0,1
691 519 m 1,45,-1
 746 544 l 1,46,47
 836 485 836 485 902 349 c 0,48,49
 930 291 930 291 944 241 c 1,50,-1
 844 193 l 1,51,52
 819 324 819 324 769 416 c 0,53,54
 739 471 739 471 691 519 c 1,45,-1
EndSplineSet
EndChar

StartChar: uni3096
Encoding: 12438 12438 85
Width: 1024
GlyphClass: 2
Flags: W
LayerCount: 2
Fore
SplineSet
178 222 m 128,-1,1
 178 357 178 357 207 547 c 0,2,3
 211 575 211 575 214 618 c 1,4,-1
 330 607 l 1,5,6
 319 573 319 573 306 513 c 0,7,8
 276 382 276 382 275.5 256 c 128,-1,9
 275 130 275 130 289.5 67 c 128,-1,10
 304 4 304 4 315 -40 c 1,11,-1
 221 -52 l 1,12,0
 178 87 178 87 178 222 c 128,-1,1
418 377 m 1,13,-1
 418 438 l 1,14,15
 501 426 501 426 562.5 426 c 128,-1,16
 624 426 624 426 658 428 c 1,17,18
 654 579 654 579 645 621 c 1,19,-1
 760 621 l 1,20,21
 756 595 756 595 756 548.5 c 128,-1,22
 756 502 756 502 758 434 c 1,23,24
 826 441 826 441 894 458 c 1,25,-1
 893 394 l 1,26,27
 827 382 827 382 758 377 c 1,28,-1
 758 350 l 2,29,30
 758 149 758 149 717 58 c 0,31,32
 694 6 694 6 651 -32.5 c 128,-1,33
 608 -71 608 -71 539 -104 c 1,34,-1
 493 -72 l 1,35,36
 550 -36 550 -36 583 0 c 128,-1,37
 616 36 616 36 632.5 81.5 c 128,-1,38
 649 127 649 127 654 191.5 c 128,-1,39
 659 256 659 256 659 350 c 2,40,-1
 659 371 l 1,41,42
 638 370 638 370 618 370 c 2,43,-1
 542 370 l 2,44,45
 486 370 486 370 418 377 c 1,13,-1
EndSplineSet
EndChar

StartChar: uni3099
Encoding: 12441 12441 86
Width: 1024
GlyphClass: 2
Flags: W
LayerCount: 2
Fore
SplineSet
16 788 m 1,0,-1
 55 805 l 1,1,2
 115 755 115 755 183 647 c 1,3,-1
 110 616 l 1,4,5
 88 666 88 666 59 717 c 128,-1,6
 30 768 30 768 16 788 c 1,0,-1
142 837 m 1,7,-1
 181 853 l 1,8,9
 219 822 219 822 257 770.5 c 128,-1,10
 295 719 295 719 309 695 c 1,11,-1
 236 665 l 1,12,13
 222 697 222 697 189 756.5 c 128,-1,14
 156 816 156 816 142 837 c 1,7,-1
EndSplineSet
EndChar

StartChar: uni309A
Encoding: 12442 12442 87
Width: 1024
GlyphClass: 2
Flags: W
LayerCount: 2
Fore
SplineSet
28 725 m 0,0,1
 28 792 28 792 86 828 c 0,2,3
 114 844 114 844 146 844 c 0,4,5
 179 844 179 844 206 828 c 128,-1,6
 233 812 233 812 249 785 c 128,-1,7
 265 758 265 758 265 725 c 256,8,9
 265 692 265 692 249 665 c 128,-1,10
 233 638 233 638 206 621.5 c 128,-1,11
 179 605 179 605 146 605 c 256,12,13
 113 605 113 605 86 622 c 0,14,15
 28 657 28 657 28 725 c 0,0,1
79 725 m 256,16,17
 79 698 79 698 99.5 677.5 c 128,-1,18
 120 657 120 657 146 657 c 0,19,20
 173 657 173 657 193 677.5 c 128,-1,21
 213 698 213 698 213 725 c 256,22,23
 213 752 213 752 193 771.5 c 128,-1,24
 173 791 173 791 146 791 c 256,25,26
 119 791 119 791 99 771.5 c 128,-1,27
 79 752 79 752 79 725 c 256,16,17
EndSplineSet
EndChar

StartChar: uni309B
Encoding: 12443 12443 88
Width: 1024
GlyphClass: 2
Flags: W
LayerCount: 2
Fore
SplineSet
16 788 m 1,0,-1
 55 805 l 1,1,2
 115 755 115 755 183 647 c 1,3,-1
 110 616 l 1,4,5
 88 666 88 666 59 717 c 128,-1,6
 30 768 30 768 16 788 c 1,0,-1
142 837 m 1,7,-1
 181 853 l 1,8,9
 219 822 219 822 257 770.5 c 128,-1,10
 295 719 295 719 309 695 c 1,11,-1
 236 665 l 1,12,13
 222 697 222 697 189 756.5 c 128,-1,14
 156 816 156 816 142 837 c 1,7,-1
EndSplineSet
Substitution2: "'vrt2' Vertical Rotation & Alternates lookup 1 subtable" uni309B.vert
EndChar

StartChar: uni309C
Encoding: 12444 12444 89
Width: 1024
GlyphClass: 2
Flags: W
LayerCount: 2
Fore
SplineSet
28 725 m 0,0,1
 28 792 28 792 86 828 c 0,2,3
 114 844 114 844 146 844 c 0,4,5
 179 844 179 844 206 828 c 128,-1,6
 233 812 233 812 249 785 c 128,-1,7
 265 758 265 758 265 725 c 256,8,9
 265 692 265 692 249 665 c 128,-1,10
 233 638 233 638 206 621.5 c 128,-1,11
 179 605 179 605 146 605 c 256,12,13
 113 605 113 605 86 622 c 0,14,15
 28 657 28 657 28 725 c 0,0,1
79 725 m 256,16,17
 79 698 79 698 99.5 677.5 c 128,-1,18
 120 657 120 657 146 657 c 0,19,20
 173 657 173 657 193 677.5 c 128,-1,21
 213 698 213 698 213 725 c 256,22,23
 213 752 213 752 193 771.5 c 128,-1,24
 173 791 173 791 146 791 c 256,25,26
 119 791 119 791 99 771.5 c 128,-1,27
 79 752 79 752 79 725 c 256,16,17
EndSplineSet
Substitution2: "'vrt2' Vertical Rotation & Alternates lookup 1 subtable" uni309C.vert
EndChar

StartChar: uni309D
Encoding: 12445 12445 90
Width: 1024
GlyphClass: 2
Flags: W
LayerCount: 2
Fore
SplineSet
321 600 m 1,0,-1
 365 635 l 1,1,2
 604 463 604 463 781 259 c 1,3,-1
 754 176 l 1,4,5
 586 168 586 168 404 115 c 1,6,-1
 385 153 l 1,7,8
 473 186 473 186 513 202 c 0,9,10
 578 228 578 228 641 252 c 1,11,12
 605 309 605 309 530 390 c 0,13,14
 406 524 406 524 321 600 c 1,0,-1
EndSplineSet
Substitution2: "'vrt2' Vertical Rotation & Alternates lookup 1 subtable" uni309D.vert
EndChar

StartChar: uni309E
Encoding: 12446 12446 91
Width: 1024
GlyphClass: 2
Flags: W
LayerCount: 2
Fore
SplineSet
282 600 m 1,0,-1
 326 635 l 1,1,2
 565 463 565 463 742 259 c 1,3,-1
 715 176 l 1,4,5
 591 170 591 170 438 134 c 0,6,7
 396 124 396 124 366 115 c 1,8,-1
 346 153 l 1,9,10
 434 186 434 186 474 202 c 0,11,12
 539 228 539 228 602 252 c 1,13,14
 566 309 566 309 491 390 c 0,15,16
 367 524 367 524 282 600 c 1,0,-1
534 718 m 1,17,-1
 572 734 l 1,18,19
 610 703 610 703 648 651.5 c 128,-1,20
 686 600 686 600 700 577 c 1,21,-1
 627 546 l 1,22,23
 608 589 608 589 577.5 643.5 c 128,-1,24
 547 698 547 698 534 718 c 1,17,-1
659 766 m 1,25,-1
 698 782 l 1,26,27
 741 747 741 747 776 697.5 c 128,-1,28
 811 648 811 648 826 625 c 1,29,-1
 753 594 l 1,30,31
 717 677 717 677 659 766 c 1,25,-1
EndSplineSet
Substitution2: "'vrt2' Vertical Rotation & Alternates lookup 1 subtable" uni309E.vert
EndChar

StartChar: uni309F
Encoding: 12447 12447 92
Width: 1024
GlyphClass: 3
Flags: W
LayerCount: 2
Fore
SplineSet
66 6 m 1,0,1
 234 194 234 194 390 488 c 0,2,3
 453 605 453 605 514 766 c 0,4,5
 537 828 537 828 541 868 c 1,6,-1
 667 828 l 1,7,8
 646 792 646 792 632 756.5 c 128,-1,9
 618 721 618 721 608 699 c 128,-1,10
 598 677 598 677 592 663 c 1,11,12
 691 646 691 646 758 625 c 128,-1,13
 825 604 825 604 872 587 c 1,14,-1
 846 528 l 1,15,16
 708 583 708 583 568 608 c 1,17,18
 487 443 487 443 447 378 c 1,19,20
 508 412 508 412 583 412 c 128,-1,21
 658 412 658 412 698 384 c 0,22,23
 774 329 774 329 774 217 c 0,24,25
 774 78 774 78 682 -6 c 0,26,27
 595 -84 595 -84 481 -84 c 0,28,29
 435 -84 435 -84 384.5 -64 c 128,-1,30
 334 -44 334 -44 293 -2 c 1,31,-1
 307 51 l 1,32,33
 351 11 351 11 393 1 c 128,-1,34
 435 -9 435 -9 484.5 -9 c 128,-1,35
 534 -9 534 -9 575.5 20.5 c 128,-1,36
 617 50 617 50 641 100 c 128,-1,37
 665 150 665 150 665 199 c 128,-1,38
 665 248 665 248 655 281 c 0,39,40
 632 356 632 356 554 356 c 0,41,42
 475 356 475 356 410 280 c 0,43,44
 369 233 369 233 294 118.5 c 128,-1,45
 219 4 219 4 175 -50 c 1,46,-1
 66 6 l 1,0,1
EndSplineSet
EndChar

StartChar: uni30A0
Encoding: 12448 12448 93
Width: 1024
GlyphClass: 2
Flags: W
LayerCount: 2
Fore
SplineSet
289 289 m 1,0,-1
 289 328 l 1,1,-1
 735 328 l 1,2,-1
 735 289 l 1,3,-1
 289 289 l 1,0,-1
289 451 m 1,4,-1
 289 489 l 1,5,-1
 735 489 l 1,6,-1
 735 451 l 1,7,-1
 289 451 l 1,4,-1
EndSplineSet
EndChar

StartChar: uni30A1
Encoding: 12449 12449 94
Width: 1024
GlyphClass: 2
Flags: W
LayerCount: 2
Fore
SplineSet
164 503 m 1,0,-1
 164 574 l 1,1,2
 217 566 217 566 274 566 c 2,3,-1
 767 566 l 2,4,5
 824 566 824 566 867 572 c 1,6,-1
 906 537 l 1,7,8
 879 506 879 506 866.5 484 c 128,-1,9
 854 462 854 462 814 419 c 0,10,11
 720 318 720 318 621 268 c 1,12,-1
 583 301 l 1,13,14
 649 346 649 346 689.5 402.5 c 128,-1,15
 730 459 730 459 757 509 c 1,16,-1
 274 509 l 2,17,18
 252 509 252 509 164 503 c 1,0,-1
236 -54 m 1,19,20
 367 9 367 9 407 109 c 0,21,22
 438 185 438 185 438 327 c 0,23,24
 438 378 438 378 431 426 c 1,25,-1
 548 426 l 1,26,27
 548 337 548 337 539.5 260 c 128,-1,28
 531 183 531 183 504 119 c 128,-1,29
 477 55 477 55 424 3 c 128,-1,30
 371 -49 371 -49 280 -90 c 1,31,-1
 236 -54 l 1,19,20
EndSplineSet
Substitution2: "'vrt2' Vertical Rotation & Alternates lookup 1 subtable" uni30A1.vert
EndChar

StartChar: uni30A2
Encoding: 12450 12450 95
Width: 1024
GlyphClass: 2
Flags: W
LayerCount: 2
Fore
SplineSet
118 658 m 1,0,-1
 118 733 l 1,1,2
 192 723 192 723 242 723 c 2,3,-1
 814 723 l 2,4,5
 901 723 901 723 930 730 c 1,6,-1
 970 692 l 1,7,8
 963 683 963 683 951.5 670 c 128,-1,9
 940 657 940 657 929 638 c 0,10,11
 904 594 904 594 817 511 c 0,12,13
 729 430 729 430 644 386 c 1,14,-1
 606 419 l 1,15,16
 684 472 684 472 731 539 c 128,-1,17
 778 606 778 606 809 665 c 1,18,-1
 242 665 l 2,19,20
 219 665 219 665 118 658 c 1,0,-1
205 5 m 1,21,22
 356 75 356 75 402 197 c 0,23,24
 436 288 436 288 436 457 c 0,25,26
 436 521 436 521 429 560 c 1,27,-1
 555 560 l 1,28,29
 555 458 555 458 545.5 370.5 c 128,-1,30
 536 283 536 283 505 209 c 0,31,32
 440 54 440 54 248 -32 c 1,33,-1
 205 5 l 1,21,22
EndSplineSet
Substitution2: "'vrt2' Vertical Rotation & Alternates lookup 1 subtable" uni30A2.vert
EndChar

StartChar: uni30A3
Encoding: 12451 12451 96
Width: 1024
GlyphClass: 2
Flags: W
LayerCount: 2
Fore
SplineSet
117 276 m 1,0,1
 321 330 321 330 477 430 c 128,-1,2
 633 530 633 530 739 665 c 1,3,-1
 825 587 l 1,4,5
 715 477 715 477 587 394 c 1,6,-1
 587 28 l 2,7,8
 587 -51 587 -51 595 -84 c 1,9,-1
 469 -84 l 1,10,11
 475 -32 475 -32 475 28 c 2,12,-1
 475 334 l 1,13,14
 361 280 361 280 146 228 c 1,15,-1
 117 276 l 1,0,1
EndSplineSet
Substitution2: "'vrt2' Vertical Rotation & Alternates lookup 1 subtable" uni30A3.vert
EndChar

StartChar: uni30A4
Encoding: 12452 12452 97
Width: 1024
GlyphClass: 2
Flags: W
LayerCount: 2
Fore
SplineSet
87 370 m 1,0,1
 395 451 395 451 607 618 c 0,2,3
 715 703 715 703 807 816 c 1,4,-1
 899 733 l 1,5,6
 788 622 788 622 621 512 c 1,7,-1
 621 83 l 2,8,9
 621 -5 621 -5 629 -42 c 1,10,-1
 498 -42 l 1,11,12
 505 23 505 23 505 83 c 2,13,-1
 505 446 l 1,14,15
 366 380 366 380 117 321 c 1,16,-1
 87 370 l 1,0,1
EndSplineSet
Substitution2: "'vrt2' Vertical Rotation & Alternates lookup 1 subtable" uni30A4.vert
EndChar

StartChar: uni30A5
Encoding: 12453 12453 98
Width: 1024
GlyphClass: 2
Flags: W
LayerCount: 2
Fore
SplineSet
175 217 m 1,0,1
 179 278 179 278 179 288 c 2,2,-1
 179 427 l 2,3,4
 179 474 179 474 175 507 c 1,5,6
 234 502 234 502 268 502 c 2,7,-1
 454 502 l 1,8,-1
 454 570 l 2,9,10
 454 603 454 603 445 650 c 1,11,-1
 568 650 l 1,12,13
 562 579 562 579 562 570 c 2,14,-1
 562 502 l 1,15,-1
 733 502 l 2,16,17
 792 502 792 502 823 511 c 1,18,-1
 868 482 l 1,19,20
 856 449 856 449 852 419 c 0,21,22
 827 267 827 267 770.5 166 c 128,-1,23
 714 65 714 65 620 5 c 128,-1,24
 526 -55 526 -55 391 -83 c 1,25,-1
 352 -39 l 1,26,27
 471 -12 471 -12 553 46 c 0,28,29
 716 161 716 161 738 445 c 1,30,-1
 283 445 l 1,31,-1
 283 283 l 2,32,33
 283 244 283 244 287 217 c 1,34,-1
 175 217 l 1,0,1
EndSplineSet
Substitution2: "'vrt2' Vertical Rotation & Alternates lookup 1 subtable" uni30A5.vert
EndChar

StartChar: uni30A6
Encoding: 12454 12454 99
Width: 1024
GlyphClass: 2
Flags: W
LayerCount: 2
Fore
SplineSet
123 647 m 1,0,1
 187 642 187 642 227 642 c 2,2,-1
 446 642 l 1,3,-1
 446 726 l 2,4,5
 446 762 446 762 438 815 c 1,6,-1
 571 815 l 1,7,8
 565 760 565 760 565 726 c 2,9,-1
 565 642 l 1,10,-1
 768 642 l 2,11,12
 844 642 844 642 872 652 c 1,13,-1
 921 623 l 1,14,15
 908 588 908 588 902 550 c 0,16,17
 874 375 874 375 808.5 257.5 c 128,-1,18
 743 140 743 140 635.5 71 c 128,-1,19
 528 2 528 2 373 -29 c 1,20,-1
 333 15 l 1,21,22
 471 47 471 47 566 116 c 0,23,24
 754 252 754 252 778 585 c 1,25,-1
 240 585 l 1,26,-1
 240 391 l 2,27,28
 240 355 240 355 245 319 c 1,29,-1
 124 319 l 1,30,31
 128 385 128 385 128 397 c 2,32,-1
 128 560 l 2,33,34
 128 601 128 601 123 647 c 1,0,1
EndSplineSet
Substitution2: "'vrt2' Vertical Rotation & Alternates lookup 1 subtable" uni30A6.vert
EndChar

StartChar: uni30A7
Encoding: 12455 12455 100
Width: 1024
GlyphClass: 2
Flags: W
LayerCount: 2
Fore
SplineSet
135 -16 m 1,0,-1
 135 54 l 1,1,2
 183 47 183 47 224 47 c 2,3,-1
 454 47 l 1,4,-1
 454 466 l 1,5,-1
 275 466 l 2,6,7
 231 466 231 466 190 461 c 1,8,-1
 190 528 l 1,9,10
 236 523 236 523 275 523 c 2,11,-1
 757 523 l 2,12,13
 794 523 794 523 843 528 c 1,14,-1
 843 461 l 1,15,16
 794 466 794 466 757 466 c 2,17,-1
 564 466 l 1,18,-1
 564 47 l 1,19,-1
 805 47 l 2,20,21
 817 47 817 47 889 54 c 1,22,-1
 889 -16 l 1,23,24
 852 -12 852 -12 805 -12 c 2,25,-1
 224 -12 l 2,26,27
 180 -12 180 -12 135 -16 c 1,0,-1
EndSplineSet
Substitution2: "'vrt2' Vertical Rotation & Alternates lookup 1 subtable" uni30A7.vert
EndChar

StartChar: uni30A8
Encoding: 12456 12456 101
Width: 1024
GlyphClass: 2
Flags: W
LayerCount: 2
Fore
SplineSet
78 48 m 1,0,-1
 78 121 l 1,1,2
 129 113 129 113 177 113 c 2,3,-1
 449 113 l 1,4,-1
 449 607 l 1,5,-1
 237 607 l 2,6,7
 191 607 191 607 142 602 c 1,8,-1
 142 672 l 1,9,10
 193 667 193 667 237 667 c 2,11,-1
 797 667 l 2,12,13
 839 667 839 667 893 672 c 1,14,-1
 893 603 l 1,15,16
 848 607 848 607 797 607 c 2,17,-1
 568 607 l 1,18,-1
 568 113 l 1,19,-1
 853 113 l 2,20,21
 871 113 871 113 946 120 c 1,22,-1
 946 48 l 1,23,24
 905 52 905 52 853 52 c 2,25,-1
 177 52 l 2,26,27
 129 52 129 52 78 48 c 1,0,-1
EndSplineSet
Substitution2: "'vrt2' Vertical Rotation & Alternates lookup 1 subtable" uni30A8.vert
EndChar

StartChar: uni30A9
Encoding: 12457 12457 102
Width: 1024
GlyphClass: 2
Flags: W
LayerCount: 2
Fore
SplineSet
161 84 m 1,0,1
 317 166 317 166 445 308 c 0,2,3
 503 373 503 373 544 434 c 1,4,-1
 276 434 l 2,5,6
 227 434 227 434 179 431 c 1,7,-1
 179 498 l 1,8,9
 224 491 224 491 274 490 c 2,10,-1
 574 490 l 1,11,12
 573 510 573 510 573 555 c 128,-1,13
 573 600 573 600 563 653 c 1,14,-1
 680 653 l 1,15,16
 675 602 675 602 675 559 c 2,17,-1
 676 490 l 1,18,-1
 795 490 l 2,19,20
 827 490 827 490 884 498 c 1,21,-1
 884 432 l 1,22,23
 845 434 845 434 799 434 c 2,24,-1
 677 434 l 1,25,-1
 684 14 l 2,26,27
 684 -27 684 -27 659 -49.5 c 128,-1,28
 634 -72 634 -72 583 -72 c 128,-1,29
 532 -72 532 -72 444 -66 c 1,30,-1
 439 -3 l 1,31,32
 507 -14 507 -14 551 -14 c 0,33,34
 582 -14 582 -14 582 57 c 0,35,36
 582 103 582 103 581 174.5 c 128,-1,37
 580 246 580 246 579 321 c 1,38,39
 494 214 494 214 343 121 c 0,40,41
 270 76 270 76 195 44 c 1,42,-1
 161 84 l 1,0,1
EndSplineSet
Substitution2: "'vrt2' Vertical Rotation & Alternates lookup 1 subtable" uni30A9.vert
EndChar

StartChar: uni30AA
Encoding: 12458 12458 103
Width: 1024
GlyphClass: 2
Flags: W
LayerCount: 2
Fore
SplineSet
98 135 m 1,0,1
 281 232 281 232 430 399 c 0,2,3
 498 475 498 475 545 548 c 1,4,-1
 226 548 l 2,5,6
 170 548 170 548 118 545 c 1,7,-1
 118 613 l 1,8,9
 178 605 178 605 224 605 c 2,10,-1
 578 605 l 1,11,12
 575 745 575 745 564 795 c 1,13,-1
 691 795 l 1,14,15
 685 748 685 748 685 689 c 2,16,-1
 686 605 l 1,17,-1
 828 605 l 2,18,19
 858 605 858 605 928 613 c 1,20,-1
 928 546 l 1,21,22
 885 548 885 548 834 548 c 2,23,-1
 687 548 l 1,24,25
 689 415 689 415 693 277 c 128,-1,26
 697 139 697 139 696 56 c 0,27,28
 696 10 696 10 669 -15 c 128,-1,29
 642 -40 642 -40 599.5 -40 c 128,-1,30
 557 -40 557 -40 533 -39.5 c 128,-1,31
 509 -39 509 -39 484 -37.5 c 128,-1,32
 459 -36 459 -36 425 -34 c 1,33,-1
 421 32 l 1,34,35
 514 18 514 18 546 18 c 0,36,37
 585 18 585 18 585 105 c 0,38,39
 585 287 585 287 582 423 c 1,40,41
 488 300 488 300 307 187 c 0,42,43
 221 133 221 133 132 95 c 1,44,-1
 98 135 l 1,0,1
EndSplineSet
Substitution2: "'vrt2' Vertical Rotation & Alternates lookup 1 subtable" uni30AA.vert
EndChar

StartChar: uni30AB
Encoding: 12459 12459 104
Width: 1024
GlyphClass: 2
Flags: W
LayerCount: 2
Fore
SplineSet
120 614 m 1,0,1
 209 608 209 608 249 608 c 2,2,-1
 410 608 l 1,3,4
 413 653 413 653 413 702 c 128,-1,5
 413 751 413 751 404 800 c 1,6,-1
 534 800 l 1,7,8
 526 648 526 648 523 608 c 1,9,-1
 740 608 l 2,10,11
 824 608 824 608 855 614 c 1,12,-1
 887 599 l 1,13,14
 885 586 885 586 883 570 c 2,15,-1
 881 545 l 1,16,17
 868 150 868 150 819 46 c 0,18,19
 805 16 805 16 783.5 -1 c 128,-1,20
 762 -18 762 -18 726 -18 c 0,21,22
 713 -18 713 -18 695 -15 c 0,23,24
 614 0 614 0 518 46 c 1,25,-1
 512 99 l 1,26,27
 624 65 624 65 655 65 c 128,-1,28
 686 65 686 65 699 81.5 c 128,-1,29
 712 98 712 98 721 118 c 128,-1,30
 730 138 730 138 738 178 c 0,31,32
 753 254 753 254 761.5 364 c 128,-1,33
 770 474 770 474 770 550 c 1,34,-1
 518 550 l 1,35,36
 489 316 489 316 399 181 c 0,37,38
 322 66 322 66 176 -23 c 1,39,-1
 135 12 l 1,40,41
 274 125 274 125 329 237 c 128,-1,42
 384 349 384 349 404 550 c 1,43,-1
 252 550 l 2,44,45
 182 550 182 550 123 546 c 1,46,-1
 120 614 l 1,0,1
EndSplineSet
Substitution2: "'vrt2' Vertical Rotation & Alternates lookup 1 subtable" uni30AB.vert
EndChar

StartChar: uni30AC
Encoding: 12460 12460 105
Width: 1024
GlyphClass: 2
Flags: W
LayerCount: 2
Fore
SplineSet
99 614 m 1,0,1
 188 608 188 608 228 608 c 2,2,-1
 389 608 l 1,3,4
 392 653 392 653 392 702 c 128,-1,5
 392 751 392 751 384 800 c 1,6,-1
 513 800 l 1,7,8
 505 648 505 648 503 608 c 1,9,-1
 720 608 l 2,10,11
 804 608 804 608 835 614 c 1,12,-1
 866 599 l 1,13,14
 864 586 864 586 863 570 c 2,15,-1
 860 545 l 1,16,17
 847 150 847 150 799 46 c 0,18,19
 769 -18 769 -18 706 -18 c 0,20,21
 693 -18 693 -18 675 -15 c 0,22,23
 594 0 594 0 498 46 c 1,24,-1
 492 99 l 1,25,26
 604 65 604 65 635 65 c 128,-1,27
 666 65 666 65 678.5 81.5 c 128,-1,28
 691 98 691 98 700.5 118 c 128,-1,29
 710 138 710 138 718 178 c 0,30,31
 732 246 732 246 740.5 360 c 128,-1,32
 749 474 749 474 750 550 c 1,33,-1
 498 550 l 1,34,35
 469 316 469 316 378 181 c 0,36,37
 301 66 301 66 156 -23 c 1,38,-1
 115 12 l 1,39,40
 254 125 254 125 308.5 237 c 128,-1,41
 363 349 363 349 384 550 c 1,42,-1
 231 550 l 2,43,44
 161 550 161 550 102 546 c 1,45,-1
 99 614 l 1,0,1
712 794 m 1,46,-1
 751 810 l 1,47,48
 828 742 828 742 871 673 c 1,49,-1
 798 642 l 1,50,51
 773 698 773 698 712 794 c 1,46,-1
828 837 m 1,52,-1
 867 853 l 1,53,54
 944 785 944 785 988 716 c 1,55,-1
 914 685 l 1,56,57
 889 741 889 741 828 837 c 1,52,-1
EndSplineSet
Substitution2: "'vrt2' Vertical Rotation & Alternates lookup 1 subtable" uni30AC.vert
EndChar

StartChar: uni30AD
Encoding: 12461 12461 106
Width: 1024
GlyphClass: 2
Flags: W
LayerCount: 2
Fore
SplineSet
113 273 m 1,0,1
 208 281 208 281 304.5 296.5 c 128,-1,2
 401 312 401 312 464 322 c 1,3,-1
 422 545 l 1,4,5
 217 512 217 512 132 495 c 1,6,-1
 119 567 l 1,7,8
 239 576 239 576 297 585 c 128,-1,9
 355 594 355 594 410 602 c 1,10,11
 395 673 395 673 386.5 720.5 c 128,-1,12
 378 768 378 768 364 804 c 1,13,-1
 486 824 l 1,14,15
 488 808 488 808 492 786 c 2,16,-1
 499 746 l 2,17,18
 500 741 500 741 504 720 c 0,19,20
 509 691 509 691 522 621 c 1,21,22
 576 630 576 630 615 636 c 0,23,24
 740 655 740 655 813 674 c 1,25,-1
 826 608 l 1,26,27
 733 595 733 595 534 562 c 1,28,-1
 575 341 l 1,29,30
 800 377 800 377 902 401 c 1,31,-1
 906 385 l 2,32,33
 914 352 914 352 914 343.5 c 128,-1,34
 914 335 914 335 912 335 c 0,35,36
 816 321 816 321 588 284 c 1,37,38
 597 238 597 238 614 146 c 0,39,40
 633 50 633 50 658 -36 c 1,41,-1
 532 -58 l 1,42,43
 511 89 511 89 476 265 c 1,44,45
 221 223 221 223 127 203 c 1,46,-1
 113 273 l 1,0,1
EndSplineSet
Substitution2: "'vrt2' Vertical Rotation & Alternates lookup 1 subtable" uni30AD.vert
EndChar

StartChar: uni30AE
Encoding: 12462 12462 107
Width: 1024
GlyphClass: 2
Flags: W
LayerCount: 2
Fore
SplineSet
95 273 m 1,0,1
 190 281 190 281 287 296.5 c 128,-1,2
 384 312 384 312 446 322 c 1,3,-1
 404 545 l 1,4,5
 198 512 198 512 115 495 c 1,6,-1
 101 567 l 1,7,8
 221 576 221 576 279.5 585 c 128,-1,9
 338 594 338 594 392 602 c 1,10,11
 363 760 363 760 346 804 c 1,12,-1
 469 824 l 1,13,14
 471 808 471 808 475 786 c 2,15,-1
 481 746 l 2,16,17
 482 741 482 741 485.5 720.5 c 128,-1,18
 489 700 489 700 494.5 673.5 c 128,-1,19
 500 647 500 647 505 621 c 1,20,21
 559 630 559 630 597 636 c 0,22,23
 704 651 704 651 788 673 c 1,24,-1
 802 607 l 1,25,26
 728 597 728 597 647.5 583.5 c 128,-1,27
 567 570 567 570 516 562 c 1,28,-1
 558 341 l 1,29,30
 776 376 776 376 885 401 c 1,31,-1
 899 336 l 1,32,33
 886 334 886 334 570 284 c 1,34,35
 579 238 579 238 599.5 130.5 c 128,-1,36
 620 23 620 23 641 -36 c 1,37,-1
 515 -58 l 1,38,39
 511 -30 511 -30 508 -4 c 0,40,41
 502 37 502 37 486.5 115.5 c 128,-1,42
 471 194 471 194 459 265 c 1,43,44
 215 226 215 226 110 203 c 1,45,-1
 95 273 l 1,0,1
708 827 m 1,46,-1
 746 844 l 1,47,48
 821 780 821 780 867 708 c 1,49,-1
 794 677 l 1,50,51
 770 729 770 729 708 827 c 1,46,-1
824 870 m 1,52,-1
 863 887 l 1,53,54
 938 823 938 823 984 751 c 1,55,-1
 910 720 l 1,56,57
 886 772 886 772 824 870 c 1,52,-1
EndSplineSet
Substitution2: "'vrt2' Vertical Rotation & Alternates lookup 1 subtable" uni30AE.vert
EndChar

StartChar: uni30AF
Encoding: 12463 12463 108
Width: 1024
GlyphClass: 2
Flags: W
LayerCount: 2
Fore
SplineSet
112 392 m 1,0,1
 268 510 268 510 350 641 c 0,2,3
 406 729 406 729 422 773 c 128,-1,4
 438 817 438 817 444 841 c 1,5,-1
 572 799 l 1,6,7
 553 770 553 770 529 725 c 128,-1,8
 505 680 505 680 501 675 c 128,-1,9
 497 670 497 670 494 666 c 1,10,-1
 744 666 l 2,11,12
 828 666 828 666 852 676 c 1,13,-1
 911 640 l 1,14,15
 890 605 890 605 881 575 c 0,16,17
 728 80 728 80 270 -38 c 1,18,-1
 228 1 l 1,19,20
 471 97 471 97 589.5 239 c 128,-1,21
 708 381 708 381 759 609 c 1,22,-1
 451 609 l 1,23,24
 392 530 392 530 313 472 c 128,-1,25
 234 414 234 414 152 364 c 1,26,-1
 112 392 l 1,0,1
EndSplineSet
Substitution2: "'vrt2' Vertical Rotation & Alternates lookup 1 subtable" uni30AF.vert
EndChar

StartChar: uni30B0
Encoding: 12464 12464 109
Width: 1024
GlyphClass: 2
Flags: W
LayerCount: 2
Fore
SplineSet
75 392 m 1,0,1
 231 510 231 510 313 641 c 0,2,3
 369 729 369 729 385 773 c 128,-1,4
 401 817 401 817 408 841 c 1,5,-1
 536 799 l 1,6,7
 517 770 517 770 492.5 725 c 128,-1,8
 468 680 468 680 464 675 c 128,-1,9
 460 670 460 670 457 666 c 1,10,-1
 708 666 l 2,11,12
 774 666 774 666 809 674 c 1,13,14
 780 739 780 739 724 823 c 1,15,-1
 763 840 l 1,16,17
 836 778 836 778 884 701 c 1,18,-1
 818 674 l 1,19,-1
 874 640 l 1,20,21
 853 605 853 605 844 575 c 0,22,23
 691 80 691 80 233 -38 c 1,24,-1
 191 1 l 1,25,26
 434 97 434 97 552.5 239 c 128,-1,27
 671 381 671 381 722 609 c 1,28,-1
 414 609 l 1,29,30
 355 530 355 530 276.5 472 c 128,-1,31
 198 414 198 414 115 364 c 1,32,-1
 75 392 l 1,0,1
840 867 m 1,33,-1
 879 884 l 1,34,35
 952 820 952 820 999 745 c 1,36,-1
 926 715 l 1,37,38
 895 782 895 782 840 867 c 1,33,-1
EndSplineSet
Substitution2: "'vrt2' Vertical Rotation & Alternates lookup 1 subtable" uni30B0.vert
EndChar

StartChar: uni30B1
Encoding: 12465 12465 110
Width: 1024
GlyphClass: 2
Flags: W
LayerCount: 2
Fore
SplineSet
77 358 m 1,0,1
 239 517 239 517 285 690 c 0,2,3
 307 778 307 778 310 818 c 1,4,-1
 439 792 l 1,5,6
 432 774 432 774 423 746 c 0,7,8
 400 675 400 675 369 604 c 1,9,-1
 841 604 l 2,10,11
 894 604 894 604 935 611 c 1,12,-1
 935 542 l 1,13,14
 857 545 857 545 841 545 c 2,15,-1
 685 545 l 1,16,17
 672 303 672 303 580 166 c 0,18,19
 536 100 536 100 476.5 52.5 c 128,-1,20
 417 5 417 5 346 -35 c 1,21,-1
 295 -1 l 1,22,23
 426 74 426 74 493 196 c 128,-1,24
 560 318 560 318 566 545 c 1,25,-1
 334 545 l 1,26,27
 280 458 280 458 125 329 c 1,28,-1
 77 358 l 1,0,1
EndSplineSet
Substitution2: "'vrt2' Vertical Rotation & Alternates lookup 1 subtable" uni30B1.vert
EndChar

StartChar: uni30B2
Encoding: 12466 12466 111
Width: 1024
GlyphClass: 2
Flags: W
LayerCount: 2
Fore
SplineSet
63 358 m 1,0,1
 231 526 231 526 271 690 c 0,2,3
 293 778 293 778 297 818 c 1,4,-1
 426 792 l 1,5,6
 417 768 417 768 397 708.5 c 128,-1,7
 377 649 377 649 355 604 c 1,8,-1
 826 604 l 2,9,10
 879 604 879 604 921 611 c 1,11,-1
 922 542 l 1,12,13
 842 545 842 545 827 545 c 2,14,-1
 672 545 l 1,15,16
 659 303 659 303 566 166 c 0,17,18
 522 100 522 100 462.5 52.5 c 128,-1,19
 403 5 403 5 333 -35 c 1,20,-1
 282 -1 l 1,21,22
 413 74 413 74 480 196 c 128,-1,23
 547 318 547 318 553 545 c 1,24,-1
 321 545 l 1,25,26
 267 458 267 458 112 329 c 1,27,-1
 63 358 l 1,0,1
718 811 m 1,28,-1
 757 827 l 1,29,30
 824 770 824 770 880 684 c 1,31,-1
 806 653 l 1,32,33
 772 727 772 727 718 811 c 1,28,-1
834 854 m 1,34,-1
 872 870 l 1,35,36
 939 813 939 813 995 727 c 1,37,-1
 922 696 l 1,38,39
 888 770 888 770 834 854 c 1,34,-1
EndSplineSet
Substitution2: "'vrt2' Vertical Rotation & Alternates lookup 1 subtable" uni30B2.vert
EndChar

StartChar: uni30B3
Encoding: 12467 12467 112
Width: 1024
GlyphClass: 2
Flags: W
LayerCount: 2
Fore
SplineSet
163 50 m 1,0,-1
 163 121 l 1,1,2
 222 116 222 116 286 116 c 2,3,-1
 762 116 l 1,4,-1
 762 626 l 1,5,-1
 298 626 l 2,6,7
 240 626 240 626 175 623 c 1,8,-1
 175 692 l 1,9,10
 258 686 258 686 298 686 c 2,11,-1
 797 686 l 2,12,13
 852 686 852 686 883 688 c 1,14,15
 881 651 881 651 881 598 c 2,16,-1
 881 112 l 2,17,18
 881 32 881 32 885 -5 c 1,19,-1
 760 -5 l 1,20,-1
 761 54 l 1,21,-1
 290 54 l 2,22,23
 257 54 257 54 222 53 c 2,24,-1
 163 50 l 1,0,-1
EndSplineSet
Substitution2: "'vrt2' Vertical Rotation & Alternates lookup 1 subtable" uni30B3.vert
EndChar

StartChar: uni30B4
Encoding: 12468 12468 113
Width: 1024
GlyphClass: 2
Flags: W
LayerCount: 2
Fore
SplineSet
141 50 m 1,0,-1
 141 121 l 1,1,2
 200 116 200 116 264 116 c 2,3,-1
 740 116 l 1,4,-1
 740 626 l 1,5,-1
 276 626 l 2,6,7
 218 626 218 626 154 623 c 1,8,-1
 154 692 l 1,9,10
 237 686 237 686 276 686 c 2,11,-1
 775 686 l 2,12,13
 830 686 830 686 861 688 c 1,14,15
 859 651 859 651 859 598 c 2,16,-1
 859 112 l 2,17,18
 859 69 859 69 863 -5 c 1,19,-1
 738 -5 l 1,20,-1
 739 54 l 1,21,-1
 268 54 l 2,22,23
 235 54 235 54 200 53 c 2,24,-1
 141 50 l 1,0,-1
689 852 m 1,25,-1
 728 868 l 1,26,27
 803 804 803 804 847 737 c 1,28,-1
 773 707 l 1,29,30
 752 752 752 752 689 852 c 1,25,-1
822 883 m 1,31,-1
 861 899 l 1,32,33
 936 835 936 835 980 768 c 1,34,-1
 906 737 l 1,35,36
 885 782 885 782 822 883 c 1,31,-1
EndSplineSet
Substitution2: "'vrt2' Vertical Rotation & Alternates lookup 1 subtable" uni30B4.vert
EndChar

StartChar: uni30B5
Encoding: 12469 12469 114
Width: 1024
GlyphClass: 2
Flags: W
LayerCount: 2
Fore
SplineSet
60 511 m 1,0,-1
 60 581 l 1,1,2
 113 573 113 573 171 572 c 2,3,-1
 267 572 l 1,4,-1
 267 705 l 2,5,6
 267 724 267 724 262 791 c 1,7,-1
 386 791 l 1,8,9
 379 744 379 744 379 705 c 2,10,-1
 379 572 l 1,11,-1
 641 572 l 1,12,-1
 641 706 l 2,13,14
 641 756 641 756 635 799 c 1,15,-1
 761 799 l 1,16,17
 754 749 754 749 754 706 c 2,18,-1
 754 572 l 1,19,-1
 846 572 l 2,20,21
 922 572 922 572 952 580 c 1,22,-1
 952 510 l 1,23,24
 921 514 921 514 847 514 c 2,25,-1
 754 514 l 1,26,-1
 754 483 l 2,27,28
 754 256 754 256 686 146 c 0,29,30
 650 87 650 87 588 42.5 c 128,-1,31
 526 -2 526 -2 436 -43 c 1,32,-1
 387 7 l 1,33,34
 460 34 460 34 508.5 69 c 128,-1,35
 557 104 557 104 586 157 c 0,36,37
 641 255 641 255 641 477 c 2,38,-1
 641 514 l 1,39,-1
 379 514 l 1,40,-1
 379 354 l 2,41,42
 379 304 379 304 383 251 c 1,43,-1
 262 251 l 1,44,45
 267 318 267 318 267 354 c 2,46,-1
 267 514 l 1,47,-1
 171 514 l 2,48,49
 106 514 106 514 60 511 c 1,0,-1
EndSplineSet
Substitution2: "'vrt2' Vertical Rotation & Alternates lookup 1 subtable" uni30B5.vert
EndChar

StartChar: uni30B6
Encoding: 12470 12470 115
Width: 1024
GlyphClass: 2
Flags: W
LayerCount: 2
Fore
SplineSet
43 511 m 1,0,-1
 43 581 l 1,1,2
 96 573 96 573 154 572 c 2,3,-1
 250 572 l 1,4,-1
 250 705 l 2,5,6
 250 724 250 724 245 791 c 1,7,-1
 369 791 l 1,8,9
 362 744 362 744 361 705 c 2,10,-1
 361 572 l 1,11,-1
 624 572 l 1,12,-1
 624 706 l 2,13,14
 624 756 624 756 617 799 c 1,15,-1
 743 799 l 1,16,17
 736 749 736 749 736 706 c 2,18,-1
 736 572 l 1,19,-1
 828 572 l 2,20,21
 904 572 904 572 935 580 c 1,22,-1
 935 510 l 1,23,24
 904 514 904 514 829 514 c 2,25,-1
 736 514 l 1,26,-1
 736 483 l 2,27,28
 736 256 736 256 668 146 c 0,29,30
 632 87 632 87 571 42.5 c 128,-1,31
 510 -2 510 -2 419 -43 c 1,32,-1
 370 7 l 1,33,34
 443 34 443 34 491.5 69 c 128,-1,35
 540 104 540 104 569 157 c 0,36,37
 624 255 624 255 624 477 c 2,38,-1
 624 514 l 1,39,-1
 361 514 l 1,40,-1
 361 354 l 2,41,42
 361 304 361 304 366 251 c 1,43,-1
 245 251 l 1,44,45
 250 318 250 318 250 354 c 2,46,-1
 250 514 l 1,47,-1
 154 514 l 2,48,49
 89 514 89 514 43 511 c 1,0,-1
763 783 m 1,50,-1
 802 800 l 1,51,52
 863 746 863 746 899 665 c 1,53,-1
 825 634 l 1,54,55
 799 727 799 727 763 783 c 1,50,-1
862 814 m 1,56,-1
 901 830 l 1,57,58
 958 780 958 780 998 695 c 1,59,-1
 925 665 l 1,60,61
 897 763 897 763 862 814 c 1,56,-1
EndSplineSet
Substitution2: "'vrt2' Vertical Rotation & Alternates lookup 1 subtable" uni30B6.vert
EndChar

StartChar: uni30B7
Encoding: 12471 12471 116
Width: 1024
GlyphClass: 2
Flags: W
LayerCount: 2
Fore
SplineSet
91 475 m 1,0,-1
 125 526 l 1,1,2
 267 496 267 496 391 426 c 1,3,-1
 327 328 l 1,4,5
 268 382 268 382 198 421.5 c 128,-1,6
 128 461 128 461 91 475 c 1,0,-1
135 71 m 1,7,8
 364 93 364 93 582 233 c 0,9,10
 683 298 683 298 763 377 c 128,-1,11
 843 456 843 456 893 538 c 1,12,-1
 925 487 l 1,13,14
 775 218 775 218 502 68 c 0,15,16
 365 -8 365 -8 201 -43 c 1,17,-1
 135 71 l 1,7,8
247 708 m 1,18,-1
 280 758 l 1,19,20
 402 728 402 728 545 652 c 1,21,-1
 479 557 l 1,22,23
 423 613 423 613 329 668 c 0,24,25
 285 695 285 695 247 708 c 1,18,-1
EndSplineSet
Substitution2: "'vrt2' Vertical Rotation & Alternates lookup 1 subtable" uni30B7.vert
EndChar

StartChar: uni30B8
Encoding: 12472 12472 117
Width: 1024
GlyphClass: 2
Flags: W
LayerCount: 2
Fore
SplineSet
78 475 m 1,0,-1
 112 526 l 1,1,2
 254 496 254 496 378 426 c 1,3,-1
 313 328 l 1,4,5
 254 382 254 382 159 436 c 0,6,7
 115 461 115 461 78 475 c 1,0,-1
122 71 m 1,8,9
 351 93 351 93 569 233 c 0,10,11
 670 298 670 298 749.5 377 c 128,-1,12
 829 456 829 456 880 538 c 1,13,-1
 911 487 l 1,14,15
 757 216 757 216 489 68 c 0,16,17
 352 -8 352 -8 187 -43 c 1,18,-1
 122 71 l 1,8,9
233 708 m 1,19,-1
 266 758 l 1,20,21
 378 731 378 731 531 652 c 1,22,-1
 466 557 l 1,23,24
 409 614 409 614 315 668 c 0,25,26
 270 695 270 695 233 708 c 1,19,-1
670 751 m 1,27,-1
 709 767 l 1,28,29
 750 731 750 731 788.5 680.5 c 128,-1,30
 827 630 827 630 842 606 c 1,31,-1
 768 575 l 1,32,33
 752 611 752 611 717.5 671 c 128,-1,34
 683 731 683 731 670 751 c 1,27,-1
806 800 m 1,35,-1
 845 816 l 1,36,37
 910 760 910 760 978 655 c 1,38,-1
 904 625 l 1,39,40
 868 704 868 704 806 800 c 1,35,-1
EndSplineSet
Substitution2: "'vrt2' Vertical Rotation & Alternates lookup 1 subtable" uni30B8.vert
EndChar

StartChar: uni30B9
Encoding: 12473 12473 118
Width: 1024
GlyphClass: 2
Flags: W
LayerCount: 2
Fore
SplineSet
119 25 m 1,0,1
 403 164 403 164 564 403 c 0,2,3
 641 518 641 518 677 645 c 1,4,-1
 299 645 l 2,5,6
 269 645 269 645 183 639 c 1,7,-1
 183 713 l 1,8,9
 197 710 197 710 239.5 707.5 c 128,-1,10
 282 705 282 705 299 705 c 2,11,-1
 679 705 l 2,12,13
 780 705 780 705 807 715 c 1,14,-1
 840 690 l 1,15,16
 825 670 825 670 808 630 c 128,-1,17
 791 590 791 590 762 535 c 0,18,19
 697 409 697 409 622 324 c 1,20,21
 760 216 760 216 936 44 c 1,22,-1
 838 -42 l 1,23,24
 754 110 754 110 581 278 c 1,25,26
 485 167 485 167 309 62 c 0,27,28
 231 16 231 16 158 -15 c 1,29,-1
 119 25 l 1,0,1
EndSplineSet
Substitution2: "'vrt2' Vertical Rotation & Alternates lookup 1 subtable" uni30B9.vert
EndChar

StartChar: uni30BA
Encoding: 12474 12474 119
Width: 1024
GlyphClass: 2
Flags: W
LayerCount: 2
Fore
SplineSet
98 25 m 1,0,1
 382 164 382 164 543 403 c 0,2,3
 620 518 620 518 656 645 c 1,4,-1
 279 645 l 2,5,6
 249 645 249 645 163 639 c 1,7,-1
 163 713 l 1,8,9
 200 705 200 705 279 705 c 2,10,-1
 658 705 l 2,11,12
 753 705 753 705 784 714 c 1,13,14
 768 745 768 745 714 835 c 1,15,-1
 753 851 l 1,16,17
 823 790 823 790 878 705 c 1,18,-1
 810 677 l 1,19,20
 795 649 795 649 782.5 619.5 c 128,-1,21
 770 590 770 590 742 535 c 0,22,23
 677 409 677 409 601 324 c 1,24,25
 739 216 739 216 915 44 c 1,26,-1
 817 -42 l 1,27,28
 733 110 733 110 560 278 c 1,29,30
 464 167 464 167 289 62 c 0,31,32
 211 16 211 16 137 -15 c 1,33,-1
 98 25 l 1,0,1
837 870 m 1,34,-1
 876 887 l 1,35,36
 946 827 946 827 1000 740 c 1,37,-1
 927 710 l 1,38,39
 894 784 894 784 837 870 c 1,34,-1
EndSplineSet
Substitution2: "'vrt2' Vertical Rotation & Alternates lookup 1 subtable" uni30BA.vert
EndChar

StartChar: uni30BB
Encoding: 12475 12475 120
Width: 1024
GlyphClass: 2
Flags: W
LayerCount: 2
Fore
SplineSet
63 466 m 1,0,1
 99 471 99 471 298 507 c 1,2,-1
 298 684 l 2,3,4
 298 745 298 745 290 793 c 1,5,-1
 421 793 l 1,6,7
 413 730 413 730 413 684 c 2,8,-1
 413 529 l 1,9,10
 845 611 845 611 873 628 c 1,11,-1
 924 589 l 1,12,13
 916 577 916 577 893 536.5 c 128,-1,14
 870 496 870 496 832 443 c 0,15,16
 747 326 747 326 663 256 c 1,17,-1
 621 282 l 1,18,19
 705 373 705 373 769 542 c 1,20,-1
 718 531 l 2,21,22
 682 524 682 524 633 514.5 c 128,-1,23
 584 505 584 505 527 493 c 128,-1,24
 470 481 470 481 413 470 c 1,25,-1
 413 162 l 2,26,27
 413 99 413 99 441.5 62.5 c 128,-1,28
 470 26 470 26 549 26 c 0,29,30
 709 26 709 26 874 58 c 1,31,-1
 870 -11 l 1,32,33
 710 -33 710 -33 588.5 -33 c 128,-1,34
 467 -33 467 -33 418.5 -22.5 c 128,-1,35
 370 -12 370 -12 344 9 c 0,36,37
 298 46 298 46 298 134 c 2,38,-1
 298 446 l 1,39,-1
 77 400 l 1,40,-1
 63 466 l 1,0,1
EndSplineSet
Substitution2: "'vrt2' Vertical Rotation & Alternates lookup 1 subtable" uni30BB.vert
EndChar

StartChar: uni30BC
Encoding: 12476 12476 121
Width: 1024
GlyphClass: 2
Flags: W
LayerCount: 2
Fore
SplineSet
50 466 m 1,0,1
 86 471 86 471 285 507 c 1,2,-1
 285 684 l 2,3,4
 285 745 285 745 276 793 c 1,5,-1
 408 793 l 1,6,7
 400 730 400 730 399 684 c 2,8,-1
 399 529 l 1,9,10
 825 610 825 610 860 628 c 1,11,-1
 910 589 l 1,12,13
 903 579 903 579 896 565 c 0,14,15
 863 504 863 504 819 443 c 0,16,17
 737 331 737 331 649 256 c 1,18,-1
 607 282 l 1,19,20
 668 351 668 351 719 455 c 0,21,22
 742 502 742 502 756 542 c 1,23,-1
 705 531 l 2,24,25
 669 524 669 524 619.5 514.5 c 128,-1,26
 570 505 570 505 513.5 493 c 128,-1,27
 457 481 457 481 399 470 c 1,28,-1
 399 162 l 2,29,30
 399 99 399 99 428 62.5 c 128,-1,31
 457 26 457 26 536 26 c 0,32,33
 696 26 696 26 861 58 c 1,34,-1
 857 -11 l 1,35,36
 697 -33 697 -33 575.5 -33 c 128,-1,37
 454 -33 454 -33 405 -22.5 c 128,-1,38
 356 -12 356 -12 330 9 c 0,39,40
 284 46 284 46 285 134 c 2,41,-1
 285 446 l 1,42,-1
 63 400 l 1,43,-1
 50 466 l 1,0,1
720 815 m 1,44,-1
 759 831 l 1,45,46
 825 775 825 775 883 686 c 1,47,-1
 809 655 l 1,48,49
 775 730 775 730 720 815 c 1,44,-1
836 859 m 1,50,-1
 874 876 l 1,51,52
 947 812 947 812 998 730 c 1,53,-1
 925 699 l 1,54,55
 891 774 891 774 836 859 c 1,50,-1
EndSplineSet
Substitution2: "'vrt2' Vertical Rotation & Alternates lookup 1 subtable" uni30BC.vert
EndChar

StartChar: uni30BD
Encoding: 12477 12477 122
Width: 1024
GlyphClass: 2
Flags: W
LayerCount: 2
Fore
SplineSet
109 697 m 1,0,-1
 165 727 l 1,1,2
 256 665 256 665 397 454 c 1,3,-1
 284 389 l 1,4,5
 243 497 243 497 176 605 c 0,6,7
 143 658 143 658 109 697 c 1,0,-1
288 14 m 1,8,9
 428 87 428 87 518 180.5 c 128,-1,10
 608 274 608 274 659.5 391 c 128,-1,11
 711 508 711 508 737 648 c 0,12,13
 747 705 747 705 748 753 c 1,14,-1
 886 733 l 1,15,16
 877 702 877 702 860 632 c 0,17,18
 810 385 810 385 673 222 c 128,-1,19
 536 59 536 59 331 -23 c 1,20,-1
 288 14 l 1,8,9
EndSplineSet
Substitution2: "'vrt2' Vertical Rotation & Alternates lookup 1 subtable" uni30BD.vert
EndChar

StartChar: uni30BE
Encoding: 12478 12478 123
Width: 1024
GlyphClass: 2
Flags: W
LayerCount: 2
Fore
SplineSet
91 697 m 1,0,-1
 147 727 l 1,1,2
 238 665 238 665 380 454 c 1,3,-1
 266 389 l 1,4,5
 225 497 225 497 158 605 c 0,6,7
 125 658 125 658 91 697 c 1,0,-1
270 14 m 1,8,9
 472 125 472 125 569 263 c 0,10,11
 656 386 656 386 708 594 c 0,12,13
 724 657 724 657 724 698 c 1,14,-1
 857 679 l 1,15,16
 850 654 850 654 843 625 c 0,17,18
 795 427 795 427 722.5 307.5 c 128,-1,19
 650 188 650 188 550.5 110 c 128,-1,20
 451 32 451 32 313 -23 c 1,21,-1
 270 14 l 1,8,9
695 846 m 1,22,-1
 734 862 l 1,23,24
 808 799 808 799 852 730 c 1,25,-1
 778 699 l 1,26,27
 753 754 753 754 695 846 c 1,22,-1
827 877 m 1,28,-1
 866 893 l 1,29,30
 940 830 940 830 984 761 c 1,31,-1
 910 730 l 1,32,33
 879 799 879 799 827 877 c 1,28,-1
EndSplineSet
Substitution2: "'vrt2' Vertical Rotation & Alternates lookup 1 subtable" uni30BE.vert
EndChar

StartChar: uni30BF
Encoding: 12479 12479 124
Width: 1024
GlyphClass: 2
Flags: W
LayerCount: 2
Fore
SplineSet
103 391 m 1,0,1
 240 487 240 487 340 642 c 0,2,3
 423 771 423 771 441 850 c 1,4,-1
 567 810 l 1,5,6
 550 784 550 784 502 696 c 1,7,-1
 492 680 l 1,8,-1
 745 680 l 2,9,10
 779 680 779 680 811.5 684 c 128,-1,11
 844 688 844 688 853 691 c 1,12,-1
 910 656 l 1,13,14
 885 610 885 610 873 568.5 c 128,-1,15
 861 527 861 527 822.5 449 c 128,-1,16
 784 371 784 371 731 299 c 1,17,18
 827 240 827 240 836 233 c 1,19,-1
 758 132 l 1,20,21
 709 185 709 185 667 223 c 1,22,23
 597 147 597 147 494 77.5 c 128,-1,24
 391 8 391 8 256 -38 c 1,25,-1
 211 0 l 1,26,27
 396 64 396 64 509 174 c 0,28,29
 561 224 561 224 603 280 c 1,30,31
 511 353 511 353 385 434 c 1,32,-1
 415 468 l 1,33,34
 574 391 574 391 647 346 c 1,35,36
 721 472 721 472 762 624 c 1,37,-1
 451 624 l 1,38,39
 392 547 392 547 311 476.5 c 128,-1,40
 230 406 230 406 144 360 c 1,41,-1
 103 391 l 1,0,1
EndSplineSet
Substitution2: "'vrt2' Vertical Rotation & Alternates lookup 1 subtable" uni30BF.vert
EndChar

StartChar: uni30C0
Encoding: 12480 12480 125
Width: 1024
GlyphClass: 2
Flags: W
LayerCount: 2
Fore
SplineSet
75 391 m 1,0,1
 212 487 212 487 311 642 c 0,2,3
 394 771 394 771 413 850 c 1,4,-1
 539 810 l 1,5,6
 516 774 516 774 473 696 c 1,7,-1
 463 680 l 1,8,-1
 717 680 l 2,9,10
 761 680 761 680 806 687 c 1,11,12
 775 749 775 749 724 828 c 1,13,-1
 763 845 l 1,14,15
 840 777 840 777 884 708 c 1,16,-1
 833 686 l 1,17,-1
 882 656 l 1,18,19
 857 610 857 610 845 568.5 c 128,-1,20
 833 527 833 527 794.5 449 c 128,-1,21
 756 371 756 371 702 299 c 1,22,23
 798 240 798 240 807 233 c 1,24,-1
 729 132 l 1,25,26
 680 185 680 185 638 223 c 1,27,28
 568 147 568 147 465 77.5 c 128,-1,29
 362 8 362 8 227 -38 c 1,30,-1
 182 0 l 1,31,32
 367 64 367 64 481 174 c 0,33,34
 533 224 533 224 574 280 c 1,35,36
 482 353 482 353 356 434 c 1,37,-1
 386 468 l 1,38,39
 545 391 545 391 618 346 c 1,40,41
 692 472 692 472 733 624 c 1,42,-1
 422 624 l 1,43,44
 363 547 363 547 282.5 476.5 c 128,-1,45
 202 406 202 406 116 360 c 1,46,-1
 75 391 l 1,0,1
840 871 m 1,47,-1
 879 888 l 1,48,49
 956 820 956 820 999 751 c 1,50,-1
 926 720 l 1,51,52
 894 791 894 791 840 871 c 1,47,-1
EndSplineSet
Substitution2: "'vrt2' Vertical Rotation & Alternates lookup 1 subtable" uni30C0.vert
EndChar

StartChar: uni30C1
Encoding: 12481 12481 126
Width: 1024
GlyphClass: 2
Flags: W
LayerCount: 2
Fore
SplineSet
92 394 m 1,0,-1
 92 461 l 1,1,2
 153 455 153 455 188 455 c 2,3,-1
 473 455 l 1,4,-1
 473 638 l 1,5,6
 348 627 348 627 188 624 c 1,7,-1
 175 672 l 1,8,9
 412 685 412 685 607 739 c 0,10,11
 705 766 705 766 773 803 c 1,12,-1
 846 707 l 1,13,14
 826 702 826 702 805.5 696.5 c 128,-1,15
 785 691 785 691 748.5 681.5 c 128,-1,16
 712 672 712 672 587 651 c 1,17,-1
 587 455 l 1,18,-1
 845 455 l 2,19,20
 900 455 900 455 935 459 c 1,21,-1
 935 394 l 1,22,23
 877 397 877 397 847 397 c 2,24,-1
 586 397 l 1,25,26
 580 245 580 245 501.5 135 c 128,-1,27
 423 25 423 25 293 -37 c 1,28,-1
 246 -1 l 1,29,30
 342 48 342 48 403.5 144 c 128,-1,31
 465 240 465 240 471 397 c 1,32,-1
 189 397 l 2,33,34
 153 397 153 397 92 394 c 1,0,-1
EndSplineSet
Substitution2: "'vrt2' Vertical Rotation & Alternates lookup 1 subtable" uni30C1.vert
EndChar

StartChar: uni30C2
Encoding: 12482 12482 127
Width: 1024
GlyphClass: 2
Flags: W
LayerCount: 2
Fore
SplineSet
66 394 m 1,0,-1
 66 461 l 1,1,2
 127 455 127 455 162 455 c 2,3,-1
 446 455 l 1,4,-1
 446 638 l 1,5,6
 321 627 321 627 162 624 c 1,7,-1
 148 672 l 1,8,9
 385 685 385 685 580 739 c 0,10,11
 678 766 678 766 746 803 c 1,12,-1
 819 707 l 1,13,14
 799 702 799 702 779 696.5 c 128,-1,15
 759 691 759 691 722.5 681.5 c 128,-1,16
 686 672 686 672 560 651 c 1,17,-1
 560 455 l 1,18,-1
 818 455 l 2,19,20
 873 455 873 455 908 459 c 1,21,-1
 908 394 l 1,22,23
 850 397 850 397 820 397 c 2,24,-1
 559 397 l 1,25,26
 553 245 553 245 474.5 135 c 128,-1,27
 396 25 396 25 266 -37 c 1,28,-1
 219 -1 l 1,29,30
 315 48 315 48 376.5 144 c 128,-1,31
 438 240 438 240 444 397 c 1,32,-1
 163 397 l 2,33,34
 127 397 127 397 66 394 c 1,0,-1
727 635 m 1,35,-1
 766 651 l 1,36,37
 842 587 842 587 877 531 c 1,38,-1
 803 501 l 1,39,40
 774 565 774 565 727 635 c 1,35,-1
838 676 m 1,41,-1
 877 692 l 1,42,43
 953 628 953 628 987 572 c 1,44,-1
 913 542 l 1,45,46
 884 606 884 606 838 676 c 1,41,-1
EndSplineSet
Substitution2: "'vrt2' Vertical Rotation & Alternates lookup 1 subtable" uni30C2.vert
EndChar

StartChar: uni30C3
Encoding: 12483 12483 128
Width: 1024
GlyphClass: 2
Flags: W
LayerCount: 2
Fore
SplineSet
146 534 m 1,0,-1
 204 555 l 1,1,2
 269 487 269 487 356 314 c 1,3,-1
 252 275 l 1,4,5
 238 363 238 363 176 485 c 0,6,7
 159 518 159 518 146 534 c 1,0,-1
315 -45 m 1,8,9
 532 34 532 34 641.5 191 c 128,-1,10
 751 348 751 348 776 583 c 1,11,-1
 895 549 l 1,12,13
 889 535 889 535 883.5 516.5 c 128,-1,14
 878 498 878 498 873 484 c 0,15,16
 752 40 752 40 355 -86 c 1,17,-1
 315 -45 l 1,8,9
394 590 m 1,18,-1
 450 608 l 1,19,20
 504 552 504 552 552 455 c 0,21,22
 573 413 573 413 590 378 c 1,23,-1
 487 342 l 1,24,25
 476 424 476 424 423 537 c 0,26,27
 407 570 407 570 394 590 c 1,18,-1
EndSplineSet
Substitution2: "'vrt2' Vertical Rotation & Alternates lookup 1 subtable" uni30C3.vert
EndChar

StartChar: uni30C4
Encoding: 12484 12484 129
Width: 1024
GlyphClass: 2
Flags: W
LayerCount: 2
Fore
SplineSet
80 685 m 1,0,-1
 139 708 l 1,1,2
 200 647 200 647 265 524 c 0,3,4
 291 474 291 474 312 434 c 1,5,-1
 200 393 l 1,6,7
 192 447 192 447 150.5 547.5 c 128,-1,8
 109 648 109 648 80 685 c 1,0,-1
278 13 m 1,9,10
 603 130 603 130 729 418 c 0,11,12
 791 559 791 559 810 738 c 1,13,-1
 938 702 l 1,14,15
 931 686 931 686 925.5 665.5 c 128,-1,16
 920 645 920 645 915 631 c 0,17,18
 776 116 776 116 318 -30 c 1,19,-1
 278 13 l 1,9,10
369 751 m 1,20,-1
 425 770 l 1,21,22
 483 710 483 710 541 595 c 2,23,-1
 584 509 l 1,24,-1
 474 470 l 1,25,26
 467 523 467 523 434 613.5 c 128,-1,27
 401 704 401 704 369 751 c 1,20,-1
EndSplineSet
Substitution2: "'vrt2' Vertical Rotation & Alternates lookup 1 subtable" uni30C4.vert
EndChar

StartChar: uni30C5
Encoding: 12485 12485 130
Width: 1024
GlyphClass: 2
Flags: W
LayerCount: 2
Fore
SplineSet
61 685 m 1,0,-1
 121 708 l 1,1,2
 182 647 182 647 246 524 c 0,3,4
 272 474 272 474 294 434 c 1,5,-1
 181 393 l 1,6,7
 173 447 173 447 143 521 c 0,8,9
 90 648 90 648 61 685 c 1,0,-1
259 13 m 1,10,11
 426 75 426 75 533 170 c 128,-1,12
 640 265 640 265 699.5 394.5 c 128,-1,13
 759 524 759 524 783 692 c 1,14,-1
 909 662 l 1,15,16
 902 646 902 646 897 625 c 0,17,18
 843 428 843 428 762 304.5 c 128,-1,19
 681 181 681 181 567.5 99.5 c 128,-1,20
 454 18 454 18 300 -30 c 1,21,-1
 259 13 l 1,10,11
350 751 m 1,22,-1
 407 770 l 1,23,24
 465 710 465 710 523 595 c 0,25,26
 547 547 547 547 565 509 c 1,27,-1
 456 470 l 1,28,29
 449 523 449 523 415.5 613.5 c 128,-1,30
 382 704 382 704 350 751 c 1,22,-1
703 849 m 1,31,-1
 742 865 l 1,32,33
 816 800 816 800 861 731 c 1,34,-1
 787 700 l 1,35,36
 761 756 761 756 703 849 c 1,31,-1
836 880 m 1,37,-1
 874 896 l 1,38,39
 948 831 948 831 993 762 c 1,40,-1
 920 731 l 1,41,42
 888 802 888 802 836 880 c 1,37,-1
EndSplineSet
Substitution2: "'vrt2' Vertical Rotation & Alternates lookup 1 subtable" uni30C5.vert
EndChar

StartChar: uni30C6
Encoding: 12486 12486 131
Width: 1024
GlyphClass: 2
Flags: W
LayerCount: 2
Fore
SplineSet
89 436 m 1,0,-1
 89 503 l 1,1,2
 145 498 145 498 186 498 c 2,3,-1
 856 498 l 2,4,5
 888 498 888 498 946 504 c 1,6,-1
 946 436 l 1,7,8
 918 439 918 439 856 439 c 2,9,-1
 597 439 l 1,10,11
 595 191 595 191 460 61 c 0,12,13
 395 -2 395 -2 303 -43 c 1,14,-1
 260 -9 l 1,15,16
 387 62 387 62 431.5 162 c 128,-1,17
 476 262 476 262 478 439 c 1,18,-1
 186 439 l 2,19,20
 123 439 123 439 89 436 c 1,0,-1
210 690 m 1,21,-1
 210 759 l 1,22,23
 273 751 273 751 314 751 c 2,24,-1
 727 751 l 2,25,26
 779 751 779 751 834 759 c 1,27,-1
 834 690 l 1,28,29
 796 693 796 693 727 693 c 2,30,-1
 314 693 l 2,31,32
 243 693 243 693 210 690 c 1,21,-1
EndSplineSet
Substitution2: "'vrt2' Vertical Rotation & Alternates lookup 1 subtable" uni30C6.vert
EndChar

StartChar: uni30C7
Encoding: 12487 12487 132
Width: 1024
GlyphClass: 2
Flags: W
LayerCount: 2
Fore
SplineSet
78 436 m 1,0,-1
 78 503 l 1,1,2
 134 498 134 498 175 498 c 2,3,-1
 845 498 l 2,4,5
 877 498 877 498 935 504 c 1,6,-1
 935 436 l 1,7,8
 907 439 907 439 845 439 c 2,9,-1
 586 439 l 1,10,11
 582 189 582 189 449 61 c 0,12,13
 384 -2 384 -2 292 -43 c 1,14,-1
 249 -9 l 1,15,16
 376 62 376 62 420.5 162 c 128,-1,17
 465 262 465 262 467 439 c 1,18,-1
 175 439 l 2,19,20
 112 439 112 439 78 436 c 1,0,-1
199 690 m 1,21,-1
 199 759 l 1,22,23
 262 751 262 751 303 751 c 2,24,-1
 650 751 l 2,25,26
 702 751 702 751 757 759 c 1,27,-1
 757 690 l 1,28,29
 719 693 719 693 650 693 c 2,30,-1
 303 693 l 2,31,32
 232 693 232 693 199 690 c 1,21,-1
740 820 m 1,33,-1
 779 837 l 1,34,35
 851 774 851 774 901 696 c 1,36,-1
 827 666 l 1,37,38
 796 735 796 735 740 820 c 1,33,-1
856 863 m 1,39,-1
 895 880 l 1,40,41
 967 817 967 817 1017 739 c 1,42,-1
 943 709 l 1,43,44
 912 778 912 778 856 863 c 1,39,-1
EndSplineSet
Substitution2: "'vrt2' Vertical Rotation & Alternates lookup 1 subtable" uni30C7.vert
EndChar

StartChar: uni30C8
Encoding: 12488 12488 133
Width: 1024
GlyphClass: 2
Flags: W
LayerCount: 2
Fore
SplineSet
321 795 m 1,0,-1
 456 795 l 1,1,2
 449 702 449 702 449 676 c 2,3,-1
 449 501 l 1,4,5
 621 473 621 473 883 365 c 1,6,-1
 834 245 l 1,7,8
 744 314 744 314 545 398 c 0,9,10
 493 420 493 420 449 435 c 1,11,-1
 449 104 l 2,12,13
 449 24 449 24 458 -31 c 1,14,-1
 322 -31 l 1,15,16
 331 31 331 31 331 104 c 2,17,-1
 331 676 l 2,18,19
 331 742 331 742 321 795 c 1,0,-1
EndSplineSet
Substitution2: "'vrt2' Vertical Rotation & Alternates lookup 1 subtable" uni30C8.vert
EndChar

StartChar: uni30C9
Encoding: 12489 12489 134
Width: 1024
GlyphClass: 2
Flags: W
LayerCount: 2
Fore
SplineSet
289 795 m 1,0,-1
 424 795 l 1,1,2
 417 702 417 702 417 676 c 2,3,-1
 417 501 l 1,4,5
 585 475 585 475 851 365 c 1,6,-1
 802 245 l 1,7,8
 730 299 730 299 616.5 352 c 128,-1,9
 503 405 503 405 417 435 c 1,10,-1
 417 104 l 2,11,12
 417 52 417 52 426 -31 c 1,13,-1
 290 -31 l 1,14,15
 299 31 299 31 299 104 c 2,16,-1
 299 676 l 2,17,18
 299 728 299 728 289 795 c 1,0,-1
614 732 m 1,19,-1
 653 749 l 1,20,21
 692 715 692 715 730 665.5 c 128,-1,22
 768 616 768 616 782 593 c 1,23,-1
 709 562 l 1,24,25
 690 603 690 603 658.5 657.5 c 128,-1,26
 627 712 627 712 614 732 c 1,19,-1
743 783 m 1,27,-1
 782 800 l 1,28,29
 821 766 821 766 859 717 c 128,-1,30
 897 668 897 668 911 644 c 1,31,-1
 838 613 l 1,32,33
 819 654 819 654 787.5 708.5 c 128,-1,34
 756 763 756 763 743 783 c 1,27,-1
EndSplineSet
Substitution2: "'vrt2' Vertical Rotation & Alternates lookup 1 subtable" uni30C9.vert
EndChar

StartChar: uni30CA
Encoding: 12490 12490 135
Width: 1024
GlyphClass: 2
Flags: W
LayerCount: 2
Fore
SplineSet
101 480 m 1,0,-1
 101 548 l 1,1,2
 203 543 203 543 209 543 c 2,3,-1
 480 543 l 1,4,-1
 480 680 l 2,5,6
 480 746 480 746 468 795 c 1,7,-1
 607 795 l 1,8,9
 599 754 599 754 599 680 c 2,10,-1
 599 543 l 1,11,-1
 839 543 l 2,12,13
 909 543 909 543 941 547 c 1,14,-1
 941 480 l 1,15,16
 895 483 895 483 838 483 c 2,17,-1
 599 483 l 1,18,19
 593 237 593 237 467 95 c 0,20,21
 400 19 400 19 287 -34 c 1,22,-1
 239 4 l 1,23,24
 338 61 338 61 389 132.5 c 128,-1,25
 440 204 440 204 459 291 c 128,-1,26
 478 378 478 378 480 483 c 1,27,-1
 211 483 l 2,28,29
 163 483 163 483 101 480 c 1,0,-1
EndSplineSet
Substitution2: "'vrt2' Vertical Rotation & Alternates lookup 1 subtable" uni30CA.vert
EndChar

StartChar: uni30CB
Encoding: 12491 12491 136
Width: 1024
GlyphClass: 2
Flags: W
LayerCount: 2
Fore
SplineSet
93 70 m 1,0,-1
 93 144 l 1,1,2
 179 138 179 138 213 138 c 2,3,-1
 805 138 l 2,4,5
 852 138 852 138 911 145 c 1,6,-1
 911 70 l 1,7,8
 844 75 844 75 805 75 c 2,9,-1
 213 75 l 2,10,11
 162 75 162 75 93 70 c 1,0,-1
180 585 m 1,12,-1
 180 655 l 1,13,14
 247 650 247 650 293 650 c 2,15,-1
 715 650 l 2,16,17
 769 650 769 650 825 655 c 1,18,-1
 825 585 l 1,19,20
 735 589 735 589 715 589 c 2,21,-1
 294 589 l 2,22,23
 287 589 287 589 180 585 c 1,12,-1
EndSplineSet
Substitution2: "'vrt2' Vertical Rotation & Alternates lookup 1 subtable" uni30CB.vert
EndChar

StartChar: uni30CC
Encoding: 12492 12492 137
Width: 1024
GlyphClass: 2
Flags: W
LayerCount: 2
Fore
SplineSet
155 1 m 1,0,1
 387 113 387 113 516 260 c 1,2,3
 389 361 389 361 244 449 c 1,4,-1
 272 485 l 1,5,6
 428 423 428 423 570 330 c 1,7,8
 665 465 665 465 706 653 c 1,9,-1
 303 653 l 2,10,11
 226 653 226 653 179 649 c 1,12,-1
 179 719 l 1,13,14
 250 713 250 713 303 713 c 2,15,-1
 715 713 l 2,16,17
 743 713 743 713 774.5 718 c 128,-1,18
 806 723 806 723 814 727 c 1,19,-1
 861 691 l 1,20,21
 840 655 840 655 819.5 591.5 c 128,-1,22
 799 528 799 528 755 439.5 c 128,-1,23
 711 351 711 351 651 275 c 1,24,25
 777 186 777 186 862 121 c 1,26,-1
 780 25 l 1,27,28
 683 122 683 122 588 202 c 1,29,30
 428 35 428 35 199 -40 c 1,31,-1
 155 1 l 1,0,1
EndSplineSet
Substitution2: "'vrt2' Vertical Rotation & Alternates lookup 1 subtable" uni30CC.vert
EndChar

StartChar: uni30CD
Encoding: 12493 12493 138
Width: 1024
GlyphClass: 2
Flags: W
LayerCount: 2
Fore
SplineSet
95 210 m 1,0,1
 282 256 282 256 445 364.5 c 128,-1,2
 608 473 608 473 686 596 c 1,3,-1
 278 596 l 2,4,5
 194 596 194 596 144 592 c 1,6,-1
 144 659 l 1,7,8
 197 653 197 653 275 653 c 2,9,-1
 462 653 l 1,10,-1
 462 725 l 2,11,12
 462 778 462 778 455 821 c 1,13,-1
 582 821 l 1,14,15
 575 753 575 753 574 725 c 2,16,-1
 574 653 l 1,17,-1
 720 653 l 2,18,19
 793 653 793 653 820 663 c 1,20,-1
 866 618 l 1,21,22
 850 601 850 601 830.5 581 c 128,-1,23
 811 561 811 561 783 529 c 0,24,25
 712 446 712 446 626 380 c 1,26,27
 796 319 796 319 956 223 c 1,28,-1
 884 127 l 1,29,30
 724 269 724 269 572 340 c 1,31,-1
 572 71 l 2,32,33
 572 10 572 10 578 -54 c 1,34,-1
 452 -54 l 1,35,36
 460 9 460 9 460 71 c 2,37,-1
 460 279 l 1,38,39
 325 212 325 212 125 163 c 1,40,-1
 95 210 l 1,0,1
EndSplineSet
Substitution2: "'vrt2' Vertical Rotation & Alternates lookup 1 subtable" uni30CD.vert
EndChar

StartChar: uni30CE
Encoding: 12494 12494 139
Width: 1024
GlyphClass: 2
Flags: W
LayerCount: 2
Fore
SplineSet
164 35 m 1,0,1
 415 158 415 158 544 348 c 0,2,3
 660 517 660 517 706 770 c 1,4,-1
 838 735 l 1,5,6
 827 711 827 711 817 682 c 0,7,8
 753 490 753 490 672 362 c 128,-1,9
 591 234 591 234 478 142.5 c 128,-1,10
 365 51 365 51 206 -10 c 1,11,-1
 164 35 l 1,0,1
EndSplineSet
Substitution2: "'vrt2' Vertical Rotation & Alternates lookup 1 subtable" uni30CE.vert
EndChar

StartChar: uni30CF
Encoding: 12495 12495 140
Width: 1024
GlyphClass: 2
Flags: W
LayerCount: 2
Fore
SplineSet
62 20 m 1,0,1
 175 148 175 148 235 322.5 c 128,-1,2
 295 497 295 497 317 709 c 1,3,-1
 442 683 l 1,4,5
 437 664 437 664 431 636.5 c 128,-1,6
 425 609 425 609 414.5 563 c 128,-1,7
 404 517 404 517 374.5 435.5 c 128,-1,8
 345 354 345 354 305 274 c 0,9,10
 219 100 219 100 114 -1 c 1,11,-1
 62 20 l 1,0,1
598 684 m 1,12,-1
 648 703 l 1,13,14
 883 320 883 320 964 40 c 1,15,-1
 838 0 l 1,16,17
 808 158 808 158 740 354.5 c 128,-1,18
 672 551 672 551 598 684 c 1,12,-1
EndSplineSet
Substitution2: "'vrt2' Vertical Rotation & Alternates lookup 1 subtable" uni30CF.vert
EndChar

StartChar: uni30D0
Encoding: 12496 12496 141
Width: 1024
GlyphClass: 2
Flags: W
LayerCount: 2
Fore
SplineSet
49 20 m 1,0,1
 162 148 162 148 222 322.5 c 128,-1,2
 282 497 282 497 304 709 c 1,3,-1
 429 683 l 1,4,5
 424 664 424 664 418 636.5 c 128,-1,6
 412 609 412 609 401.5 563 c 128,-1,7
 391 517 391 517 361.5 435.5 c 128,-1,8
 332 354 332 354 292 274 c 0,9,10
 206 100 206 100 100 -1 c 1,11,-1
 49 20 l 1,0,1
585 684 m 1,12,-1
 635 703 l 1,13,14
 870 320 870 320 950 40 c 1,15,-1
 824 0 l 1,16,17
 794 158 794 158 726.5 354.5 c 128,-1,18
 659 551 659 551 585 684 c 1,12,-1
724 796 m 1,19,-1
 763 812 l 1,20,21
 839 745 839 745 886 671 c 1,22,-1
 812 640 l 1,23,24
 782 707 782 707 724 796 c 1,19,-1
841 840 m 1,25,-1
 880 856 l 1,26,27
 950 797 950 797 1002 715 c 1,28,-1
 929 684 l 1,29,30
 899 751 899 751 841 840 c 1,25,-1
EndSplineSet
Substitution2: "'vrt2' Vertical Rotation & Alternates lookup 1 subtable" uni30D0.vert
EndChar

StartChar: uni30D1
Encoding: 12497 12497 142
Width: 1024
GlyphClass: 2
Flags: W
LayerCount: 2
Fore
SplineSet
49 20 m 1,0,1
 162 148 162 148 222 322.5 c 128,-1,2
 282 497 282 497 304 709 c 1,3,-1
 429 683 l 1,4,5
 424 664 424 664 418 636.5 c 128,-1,6
 412 609 412 609 401.5 563 c 128,-1,7
 391 517 391 517 361.5 435.5 c 128,-1,8
 332 354 332 354 292 274 c 0,9,10
 206 100 206 100 100 -1 c 1,11,-1
 49 20 l 1,0,1
585 684 m 1,12,-1
 635 703 l 1,13,14
 870 320 870 320 950 40 c 1,15,-1
 824 0 l 1,16,17
 794 158 794 158 726.5 354.5 c 128,-1,18
 659 551 659 551 585 684 c 1,12,-1
756 733 m 128,-1,20
 756 774 756 774 771.5 800.5 c 128,-1,21
 787 827 787 827 814 843 c 128,-1,22
 841 859 841 859 873 859 c 0,23,24
 906 859 906 859 934 843 c 0,25,26
 992 809 992 809 992 741 c 0,27,28
 992 672 992 672 934 640 c 0,29,30
 906 624 906 624 865 624 c 128,-1,31
 824 624 824 624 790 658 c 128,-1,19
 756 692 756 692 756 733 c 128,-1,20
810 741 m 256,32,33
 810 714 810 714 829 696 c 128,-1,34
 848 678 848 678 873 678 c 0,35,36
 899 678 899 678 918.5 696.5 c 128,-1,37
 938 715 938 715 938 741 c 0,38,39
 938 768 938 768 918.5 787 c 128,-1,40
 899 806 899 806 873 806 c 256,41,42
 847 806 847 806 828.5 787 c 128,-1,43
 810 768 810 768 810 741 c 256,32,33
EndSplineSet
Substitution2: "'vrt2' Vertical Rotation & Alternates lookup 1 subtable" uni30D1.vert
EndChar

StartChar: uni30D2
Encoding: 12498 12498 143
Width: 1024
GlyphClass: 2
Flags: W
LayerCount: 2
Fore
SplineSet
214 790 m 1,0,-1
 344 790 l 1,1,2
 336 735 336 735 336 692 c 2,3,-1
 336 466 l 1,4,5
 649 548 649 548 812 666 c 1,6,-1
 859 554 l 1,7,8
 589 450 589 450 336 402 c 1,9,-1
 336 172 l 2,10,11
 336 124 336 124 354 98 c 0,12,13
 388 49 388 49 520 49 c 0,14,15
 714 49 714 49 877 81 c 1,16,-1
 877 7 l 1,17,18
 736 -15 736 -15 523 -14 c 0,19,20
 460 -14 460 -14 405 -10.5 c 128,-1,21
 350 -7 350 -7 309 8 c 0,22,23
 222 40 222 40 222 142 c 2,24,-1
 222 692 l 2,25,26
 222 735 222 735 214 790 c 1,0,-1
EndSplineSet
Substitution2: "'vrt2' Vertical Rotation & Alternates lookup 1 subtable" uni30D2.vert
EndChar

StartChar: uni30D3
Encoding: 12499 12499 144
Width: 1024
GlyphClass: 2
Flags: W
LayerCount: 2
Fore
SplineSet
173 790 m 1,0,-1
 303 790 l 1,1,2
 295 735 295 735 295 692 c 2,3,-1
 295 466 l 1,4,5
 593 544 593 544 755 658 c 1,6,-1
 802 547 l 1,7,8
 554 450 554 450 295 402 c 1,9,-1
 295 172 l 2,10,11
 295 124 295 124 314 98 c 0,12,13
 347 49 347 49 480 49 c 0,14,15
 673 49 673 49 836 81 c 1,16,-1
 836 7 l 1,17,18
 695 -15 695 -15 482 -14 c 0,19,20
 419 -14 419 -14 364 -10.5 c 128,-1,21
 309 -7 309 -7 268 8 c 0,22,23
 181 40 181 40 181 142 c 2,24,-1
 181 692 l 2,25,26
 181 735 181 735 173 790 c 1,0,-1
684 807 m 1,27,-1
 723 823 l 1,28,29
 757 794 757 794 792.5 751.5 c 128,-1,30
 828 709 828 709 851 674 c 1,31,-1
 777 643 l 1,32,33
 746 711 746 711 684 807 c 1,27,-1
801 850 m 1,34,-1
 840 866 l 1,35,36
 874 837 874 837 909.5 794.5 c 128,-1,37
 945 752 945 752 968 717 c 1,38,-1
 894 686 l 1,39,40
 863 754 863 754 801 850 c 1,34,-1
EndSplineSet
Substitution2: "'vrt2' Vertical Rotation & Alternates lookup 1 subtable" uni30D3.vert
EndChar

StartChar: uni30D4
Encoding: 12500 12500 145
Width: 1024
GlyphClass: 2
Flags: W
LayerCount: 2
Fore
SplineSet
173 790 m 1,0,-1
 303 790 l 1,1,2
 295 735 295 735 295 692 c 2,3,-1
 295 466 l 1,4,5
 593 544 593 544 755 658 c 1,6,-1
 802 547 l 1,7,8
 554 450 554 450 295 402 c 1,9,-1
 295 172 l 2,10,11
 295 124 295 124 314 98 c 0,12,13
 347 49 347 49 480 49 c 0,14,15
 673 49 673 49 836 81 c 1,16,-1
 836 7 l 1,17,18
 695 -15 695 -15 482 -14 c 0,19,20
 419 -14 419 -14 364 -10.5 c 128,-1,21
 309 -7 309 -7 268 8 c 0,22,23
 181 40 181 40 181 142 c 2,24,-1
 181 692 l 2,25,26
 181 735 181 735 173 790 c 1,0,-1
729 740 m 0,27,28
 729 772 729 772 745 799 c 128,-1,29
 761 826 761 826 787.5 842 c 128,-1,30
 814 858 814 858 847 858 c 256,31,32
 880 858 880 858 907 842 c 128,-1,33
 934 826 934 826 950 799 c 128,-1,34
 966 772 966 772 966 740 c 128,-1,35
 966 708 966 708 950 681 c 128,-1,36
 934 654 934 654 907 638.5 c 128,-1,37
 880 623 880 623 839 623 c 128,-1,38
 798 623 798 623 763.5 657 c 128,-1,39
 729 691 729 691 729 740 c 0,27,28
783 740 m 256,40,41
 783 714 783 714 802 695.5 c 128,-1,42
 821 677 821 677 847 677 c 256,43,44
 873 677 873 677 892 696 c 128,-1,45
 911 715 911 715 911 740 c 0,46,47
 911 766 911 766 891.5 785.5 c 128,-1,48
 872 805 872 805 847 805 c 0,49,50
 821 805 821 805 802 785.5 c 128,-1,51
 783 766 783 766 783 740 c 256,40,41
EndSplineSet
Substitution2: "'vrt2' Vertical Rotation & Alternates lookup 1 subtable" uni30D4.vert
EndChar

StartChar: uni30D5
Encoding: 12501 12501 146
Width: 1024
GlyphClass: 2
Flags: W
LayerCount: 2
Fore
SplineSet
138 653 m 1,0,-1
 138 725 l 1,1,2
 206 716 206 716 253 716 c 2,3,-1
 750 716 l 2,4,5
 829 716 829 716 855 723 c 1,6,-1
 901 692 l 1,7,8
 892 673 892 673 882 631 c 0,9,10
 846 468 846 468 775 340 c 0,11,12
 628 74 628 74 304 -12 c 1,13,-1
 261 33 l 1,14,15
 423 90 423 90 526.5 175.5 c 128,-1,16
 630 261 630 261 684.5 380.5 c 128,-1,17
 739 500 739 500 757 657 c 1,18,-1
 253 657 l 2,19,20
 181 657 181 657 138 653 c 1,0,-1
EndSplineSet
Substitution2: "'vrt2' Vertical Rotation & Alternates lookup 1 subtable" uni30D5.vert
EndChar

StartChar: uni30D6
Encoding: 12502 12502 147
Width: 1024
GlyphClass: 2
Flags: W
LayerCount: 2
Fore
SplineSet
118 653 m 1,0,-1
 118 725 l 1,1,2
 186 716 186 716 232 716 c 2,3,-1
 628 716 l 2,4,5
 764 716 764 716 780 717 c 1,6,7
 752 769 752 769 707 841 c 1,8,-1
 745 857 l 1,9,10
 826 786 826 786 864 726 c 1,11,-1
 843 717 l 1,12,-1
 881 692 l 1,13,14
 872 673 872 673 861 631 c 0,15,16
 825 468 825 468 755 340 c 0,17,18
 608 74 608 74 284 -12 c 1,19,-1
 241 33 l 1,20,21
 403 90 403 90 506 175.5 c 128,-1,22
 609 261 609 261 664 380.5 c 128,-1,23
 719 500 719 500 736 657 c 1,24,-1
 232 657 l 2,25,26
 160 657 160 657 118 653 c 1,0,-1
843 867 m 1,27,-1
 882 884 l 1,28,29
 963 813 963 813 1000 753 c 1,30,-1
 927 722 l 1,31,32
 906 767 906 767 843 867 c 1,27,-1
EndSplineSet
Substitution2: "'vrt2' Vertical Rotation & Alternates lookup 1 subtable" uni30D6.vert
EndChar

StartChar: uni30D7
Encoding: 12503 12503 148
Width: 1024
GlyphClass: 2
Flags: W
LayerCount: 2
Fore
SplineSet
118 653 m 1,0,-1
 118 725 l 1,1,2
 186 716 186 716 232 716 c 2,3,-1
 626 716 l 2,4,5
 761 716 761 716 775 717 c 1,6,7
 769 735 769 735 769 761.5 c 128,-1,8
 769 788 769 788 785 815 c 0,9,10
 819 873 819 873 887 873 c 0,11,12
 920 873 920 873 947 857.5 c 128,-1,13
 974 842 974 842 990 815 c 128,-1,14
 1006 788 1006 788 1006 756 c 0,15,16
 1006 723 1006 723 990 696.5 c 128,-1,17
 974 670 974 670 947 654 c 128,-1,18
 920 638 920 638 896.5 638 c 128,-1,19
 873 638 873 638 863 640 c 0,20,21
 862 638 862 638 862 635.5 c 128,-1,22
 862 633 862 633 861 631 c 0,23,24
 825 468 825 468 755 340 c 0,25,26
 608 74 608 74 284 -12 c 1,27,-1
 241 33 l 1,28,29
 403 90 403 90 506 175.5 c 128,-1,30
 609 261 609 261 664 380.5 c 128,-1,31
 719 500 719 500 736 657 c 1,32,-1
 232 657 l 2,33,34
 160 657 160 657 118 653 c 1,0,-1
823 756 m 256,35,36
 823 729 823 729 841.5 710.5 c 128,-1,37
 860 692 860 692 887 692 c 256,38,39
 914 692 914 692 932.5 710.5 c 128,-1,40
 951 729 951 729 951 756 c 256,41,42
 951 783 951 783 932 801.5 c 128,-1,43
 913 820 913 820 887 820 c 0,44,45
 860 820 860 820 841.5 801.5 c 128,-1,46
 823 783 823 783 823 756 c 256,35,36
EndSplineSet
Substitution2: "'vrt2' Vertical Rotation & Alternates lookup 1 subtable" uni30D7.vert
EndChar

StartChar: uni30D8
Encoding: 12504 12504 149
Width: 1024
GlyphClass: 2
Flags: W
LayerCount: 2
Fore
SplineSet
49 298 m 1,0,1
 123 360 123 360 186.5 432 c 128,-1,2
 250 504 250 504 301 560 c 128,-1,3
 352 616 352 616 374 631 c 128,-1,4
 396 646 396 646 420 646 c 0,5,6
 467 646 467 646 519 600 c 0,7,8
 636 497 636 497 751 376.5 c 128,-1,9
 866 256 866 256 981 130 c 1,10,-1
 891 32 l 1,11,12
 839 99 839 99 784 171 c 128,-1,13
 729 243 729 243 674 313 c 0,14,15
 544 481 544 481 466 556 c 0,16,17
 441 580 441 580 424 580 c 256,18,19
 407 580 407 580 382 547 c 128,-1,20
 357 514 357 514 327 468.5 c 128,-1,21
 297 423 297 423 265 373.5 c 128,-1,22
 233 324 233 324 204.5 277 c 128,-1,23
 176 230 176 230 153 193 c 1,24,-1
 49 298 l 1,0,1
EndSplineSet
Substitution2: "'vrt2' Vertical Rotation & Alternates lookup 1 subtable" uni30D8.vert
EndChar

StartChar: uni30D9
Encoding: 12505 12505 150
Width: 1024
GlyphClass: 2
Flags: W
LayerCount: 2
Fore
SplineSet
40 298 m 1,0,1
 114 360 114 360 177.5 432 c 128,-1,2
 241 504 241 504 292 560 c 128,-1,3
 343 616 343 616 365 631 c 128,-1,4
 387 646 387 646 411 646 c 0,5,6
 458 646 458 646 510 600 c 0,7,8
 627 497 627 497 742 376.5 c 128,-1,9
 857 256 857 256 972 130 c 1,10,-1
 882 32 l 1,11,12
 830 99 830 99 775 171 c 128,-1,13
 720 243 720 243 665 313 c 0,14,15
 540 474 540 474 457 556 c 0,16,17
 432 580 432 580 415 580 c 256,18,19
 398 580 398 580 373 547 c 128,-1,20
 348 514 348 514 318 468.5 c 128,-1,21
 288 423 288 423 256 373.5 c 128,-1,22
 224 324 224 324 195.5 277 c 128,-1,23
 167 230 167 230 143 193 c 1,24,-1
 40 298 l 1,0,1
644 689 m 1,25,-1
 683 706 l 1,26,27
 725 669 725 669 762 621 c 128,-1,28
 799 573 799 573 814 550 c 1,29,-1
 740 519 l 1,30,31
 707 592 707 592 644 689 c 1,25,-1
778 740 m 1,32,-1
 817 757 l 1,33,34
 857 722 857 722 895.5 673.5 c 128,-1,35
 934 625 934 625 948 601 c 1,36,-1
 874 570 l 1,37,38
 841 643 841 643 778 740 c 1,32,-1
EndSplineSet
Substitution2: "'vrt2' Vertical Rotation & Alternates lookup 1 subtable" uni30D9.vert
EndChar

StartChar: uni30DA
Encoding: 12506 12506 151
Width: 1024
GlyphClass: 2
Flags: W
LayerCount: 2
Fore
SplineSet
40 298 m 1,0,1
 114 360 114 360 177.5 432 c 128,-1,2
 241 504 241 504 292 560 c 128,-1,3
 343 616 343 616 365 631 c 128,-1,4
 387 646 387 646 411 646 c 0,5,6
 458 646 458 646 510 600 c 0,7,8
 627 497 627 497 742 376.5 c 128,-1,9
 857 256 857 256 972 130 c 1,10,-1
 882 32 l 1,11,12
 830 99 830 99 775 171 c 128,-1,13
 720 243 720 243 665 313 c 0,14,15
 540 474 540 474 457 556 c 0,16,17
 432 580 432 580 415 580 c 256,18,19
 398 580 398 580 373 547 c 128,-1,20
 348 514 348 514 318 468.5 c 128,-1,21
 288 423 288 423 256 373.5 c 128,-1,22
 224 324 224 324 195.5 277 c 128,-1,23
 167 230 167 230 143 193 c 1,24,-1
 40 298 l 1,0,1
672 638 m 256,25,26
 672 674 672 674 689.5 703 c 128,-1,27
 707 732 707 732 735.5 749.5 c 128,-1,28
 764 767 764 767 800 767 c 256,29,30
 836 767 836 767 865 749.5 c 128,-1,31
 894 732 894 732 911.5 703 c 128,-1,32
 929 674 929 674 929 638 c 256,33,34
 929 602 929 602 911.5 573.5 c 128,-1,35
 894 545 894 545 865 528 c 128,-1,36
 836 511 836 511 800 511 c 0,37,38
 728 511 728 511 690 574 c 0,39,40
 672 602 672 602 672 638 c 256,25,26
729 638 m 256,41,42
 729 608 729 608 749.5 587.5 c 128,-1,43
 770 567 770 567 800 567 c 256,44,45
 830 567 830 567 850 587.5 c 128,-1,46
 870 608 870 608 870 638 c 256,47,48
 870 668 870 668 849.5 688.5 c 128,-1,49
 829 709 829 709 800 709 c 0,50,51
 770 709 770 709 749.5 688.5 c 128,-1,52
 729 668 729 668 729 638 c 256,41,42
EndSplineSet
Substitution2: "'vrt2' Vertical Rotation & Alternates lookup 1 subtable" uni30DA.vert
EndChar

StartChar: uni30DB
Encoding: 12507 12507 152
Width: 1024
GlyphClass: 2
Flags: W
LayerCount: 2
Fore
SplineSet
91 92 m 1,0,1
 142 158 142 158 189 256 c 128,-1,2
 236 354 236 354 261 466 c 1,3,-1
 360 418 l 1,4,5
 324 285 324 285 218 154 c 0,6,7
 173 99 173 99 135 62 c 1,8,-1
 91 92 l 1,0,1
104 553 m 1,9,-1
 104 622 l 1,10,11
 157 615 157 615 201 614 c 2,12,-1
 471 614 l 1,13,-1
 471 721 l 2,14,15
 471 765 471 765 462 805 c 1,16,-1
 593 805 l 1,17,18
 584 750 584 750 584 720 c 2,19,-1
 584 614 l 1,20,-1
 837 614 l 2,21,22
 881 614 881 614 932 620 c 1,23,-1
 932 554 l 1,24,25
 887 556 887 556 838 556 c 2,26,-1
 584 556 l 1,27,-1
 584 50 l 2,28,29
 584 -41 584 -41 483 -41 c 0,30,31
 397 -41 397 -41 335 -34 c 1,32,-1
 330 33 l 1,33,34
 401 20 401 20 436 19 c 0,35,36
 470 19 470 19 470 98 c 2,37,-1
 471 227 l 1,38,-1
 471 556 l 1,39,-1
 202 556 l 2,40,41
 150 556 150 556 104 553 c 1,9,-1
714 423 m 1,42,-1
 754 446 l 1,43,44
 835 365 835 365 911 230 c 0,45,46
 946 168 946 168 970 108 c 1,47,-1
 866 51 l 1,48,49
 834 170 834 170 789 270.5 c 128,-1,50
 744 371 744 371 714 423 c 1,42,-1
EndSplineSet
Substitution2: "'vrt2' Vertical Rotation & Alternates lookup 1 subtable" uni30DB.vert
EndChar

StartChar: uni30DC
Encoding: 12508 12508 153
Width: 1024
GlyphClass: 2
Flags: W
LayerCount: 2
Fore
SplineSet
74 92 m 1,0,1
 125 158 125 158 171.5 256 c 128,-1,2
 218 354 218 354 244 466 c 1,3,-1
 343 418 l 1,4,5
 290 234 290 234 118 62 c 1,6,-1
 74 92 l 1,0,1
87 553 m 1,7,-1
 87 622 l 1,8,9
 142 615 142 615 183 614 c 2,10,-1
 454 614 l 1,11,-1
 454 721 l 2,12,13
 454 765 454 765 444 805 c 1,14,-1
 575 805 l 1,15,16
 566 750 566 750 566 720 c 2,17,-1
 566 614 l 1,18,-1
 819 614 l 2,19,20
 863 614 863 614 914 620 c 1,21,-1
 914 554 l 1,22,23
 867 556 867 556 820 556 c 2,24,-1
 566 556 l 1,25,-1
 566 50 l 2,26,27
 566 -41 566 -41 466 -41 c 0,28,29
 378 -41 378 -41 317 -34 c 1,30,-1
 312 33 l 1,31,32
 381 20 381 20 419 19 c 0,33,34
 453 19 453 19 453 98 c 2,35,-1
 454 227 l 1,36,-1
 454 556 l 1,37,-1
 184 556 l 2,38,39
 131 556 131 556 87 553 c 1,7,-1
696 423 m 1,40,-1
 736 446 l 1,41,42
 818 364 818 364 893 230 c 0,43,44
 928 168 928 168 952 108 c 1,45,-1
 849 51 l 1,46,47
 799 236 799 236 696 423 c 1,40,-1
710 803 m 1,48,-1
 749 819 l 1,49,50
 820 759 820 759 869 682 c 1,51,-1
 796 651 l 1,52,53
 771 707 771 707 710 803 c 1,48,-1
837 833 m 1,54,-1
 876 849 l 1,55,56
 953 781 953 781 996 712 c 1,57,-1
 923 681 l 1,58,59
 898 737 898 737 837 833 c 1,54,-1
EndSplineSet
Substitution2: "'vrt2' Vertical Rotation & Alternates lookup 1 subtable" uni30DC.vert
EndChar

StartChar: uni30DD
Encoding: 12509 12509 154
Width: 1024
GlyphClass: 2
Flags: W
LayerCount: 2
Fore
SplineSet
74 92 m 1,0,1
 125 158 125 158 171.5 256 c 128,-1,2
 218 354 218 354 244 466 c 1,3,-1
 343 418 l 1,4,5
 290 234 290 234 118 62 c 1,6,-1
 74 92 l 1,0,1
87 553 m 1,7,-1
 87 622 l 1,8,9
 142 615 142 615 183 614 c 2,10,-1
 454 614 l 1,11,-1
 454 721 l 2,12,13
 454 765 454 765 444 805 c 1,14,-1
 575 805 l 1,15,16
 566 750 566 750 566 720 c 2,17,-1
 566 614 l 1,18,-1
 819 614 l 2,19,20
 863 614 863 614 914 620 c 1,21,-1
 914 554 l 1,22,23
 867 556 867 556 820 556 c 2,24,-1
 566 556 l 1,25,-1
 566 50 l 2,26,27
 566 -41 566 -41 466 -41 c 0,28,29
 378 -41 378 -41 317 -34 c 1,30,-1
 312 33 l 1,31,32
 381 20 381 20 419 19 c 0,33,34
 453 19 453 19 453 98 c 2,35,-1
 454 227 l 1,36,-1
 454 556 l 1,37,-1
 184 556 l 2,38,39
 131 556 131 556 87 553 c 1,7,-1
696 423 m 1,40,-1
 736 446 l 1,41,42
 818 364 818 364 893 230 c 0,43,44
 928 168 928 168 952 108 c 1,45,-1
 849 51 l 1,46,47
 799 236 799 236 696 423 c 1,40,-1
728 775 m 256,48,49
 728 823 728 823 761.5 856.5 c 128,-1,50
 795 890 795 890 834.5 890 c 128,-1,51
 874 890 874 890 900.5 874.5 c 128,-1,52
 927 859 927 859 942.5 833 c 128,-1,53
 958 807 958 807 958 775 c 256,54,55
 958 743 958 743 942.5 717 c 128,-1,56
 927 691 927 691 900.5 675.5 c 128,-1,57
 874 660 874 660 834.5 660 c 128,-1,58
 795 660 795 660 761.5 693.5 c 128,-1,59
 728 727 728 727 728 775 c 256,48,49
782 775 m 256,60,61
 782 749 782 749 799.5 731.5 c 128,-1,62
 817 714 817 714 843 714 c 256,63,64
 869 714 869 714 886.5 732 c 128,-1,65
 904 750 904 750 904 775 c 0,66,67
 904 801 904 801 886 819 c 128,-1,68
 868 837 868 837 843 837 c 0,69,70
 817 837 817 837 799.5 819 c 128,-1,71
 782 801 782 801 782 775 c 256,60,61
EndSplineSet
Substitution2: "'vrt2' Vertical Rotation & Alternates lookup 1 subtable" uni30DD.vert
EndChar

StartChar: uni30DE
Encoding: 12510 12510 155
Width: 1024
GlyphClass: 2
Flags: W
LayerCount: 2
Fore
SplineSet
95 629 m 1,0,-1
 95 703 l 1,1,2
 163 694 163 694 210 694 c 2,3,-1
 802 694 l 2,4,5
 880 694 880 694 910 705 c 1,6,-1
 968 657 l 1,7,8
 959 647 959 647 949.5 637 c 128,-1,9
 940 627 940 627 935 620 c 0,10,11
 844 471 844 471 722 338 c 0,12,13
 653 262 653 262 572 199 c 1,14,15
 652 126 652 126 729 37 c 1,16,-1
 628 -44 l 1,17,18
 449 225 449 225 242 372 c 1,19,-1
 281 403 l 1,20,21
 422 325 422 325 523 241 c 1,22,23
 653 350 653 350 728 480 c 0,24,25
 768 549 768 549 799 635 c 1,26,-1
 210 635 l 2,27,28
 151 635 151 635 95 629 c 1,0,-1
EndSplineSet
Substitution2: "'vrt2' Vertical Rotation & Alternates lookup 1 subtable" uni30DE.vert
EndChar

StartChar: uni30DF
Encoding: 12511 12511 156
Width: 1024
GlyphClass: 2
Flags: W
LayerCount: 2
Fore
SplineSet
155 141 m 1,0,-1
 178 198 l 1,1,2
 347 182 347 182 533 141 c 128,-1,3
 719 100 719 100 816 68 c 1,4,-1
 768 -41 l 1,5,6
 656 19 656 19 396 87 c 0,7,8
 277 117 277 117 155 141 c 1,0,-1
243 437 m 1,9,-1
 266 494 l 1,10,11
 438 476 438 476 660 423 c 0,12,13
 723 408 723 408 776 393 c 1,14,-1
 733 286 l 1,15,16
 645 329 645 329 505 369.5 c 128,-1,17
 365 410 365 410 243 437 c 1,9,-1
250 711 m 1,18,-1
 272 767 l 1,19,20
 464 750 464 750 703 701 c 0,21,22
 779 686 779 686 845 670 c 1,23,-1
 800 561 l 1,24,25
 589 655 589 655 250 711 c 1,18,-1
EndSplineSet
Substitution2: "'vrt2' Vertical Rotation & Alternates lookup 1 subtable" uni30DF.vert
EndChar

StartChar: uni30E0
Encoding: 12512 12512 157
Width: 1024
GlyphClass: 2
Flags: W
LayerCount: 2
Fore
SplineSet
73 131 m 1,0,1
 148 131 148 131 240 133 c 1,2,3
 379 541 379 541 416 788 c 1,4,-1
 550 760 l 1,5,6
 528 703 528 703 501 625 c 128,-1,7
 474 547 474 547 423 405 c 128,-1,8
 372 263 372 263 312 135 c 1,9,10
 581 142 581 142 781 163 c 1,11,12
 738 266 738 266 663 387 c 1,13,-1
 708 409 l 1,14,15
 823 276 823 276 920 104 c 0,16,17
 950 51 950 51 970 7 c 1,18,-1
 853 -46 l 1,19,20
 820 61 820 61 804 103 c 1,21,22
 629 67 629 67 254 23 c 0,23,24
 163 12 163 12 93 5 c 1,25,-1
 73 131 l 1,0,1
EndSplineSet
Substitution2: "'vrt2' Vertical Rotation & Alternates lookup 1 subtable" uni30E0.vert
EndChar

StartChar: uni30E1
Encoding: 12513 12513 158
Width: 1024
GlyphClass: 2
Flags: W
LayerCount: 2
Fore
SplineSet
126 16 m 1,0,1
 379 148 379 148 526 351 c 1,2,3
 379 480 379 480 242 566 c 1,4,-1
 270 603 l 1,5,6
 413 547 413 547 578 429 c 1,7,8
 668 578 668 578 718 785 c 1,9,-1
 845 739 l 1,10,11
 776 535 776 535 658 368 c 1,12,13
 770 281 770 281 896 165 c 1,14,-1
 808 69 l 1,15,16
 696 192 696 192 597 287 c 1,17,18
 413 65 413 65 170 -25 c 1,19,-1
 126 16 l 1,0,1
EndSplineSet
Substitution2: "'vrt2' Vertical Rotation & Alternates lookup 1 subtable" uni30E1.vert
EndChar

StartChar: uni30E2
Encoding: 12514 12514 159
Width: 1024
GlyphClass: 2
Flags: W
LayerCount: 2
Fore
SplineSet
110 360 m 1,0,-1
 110 428 l 1,1,2
 166 423 166 423 217 423 c 2,3,-1
 398 423 l 1,4,-1
 398 666 l 1,5,-1
 287 666 l 2,6,7
 259 666 259 666 187 663 c 1,8,-1
 187 727 l 1,9,10
 234 723 234 723 287 723 c 2,11,-1
 756 723 l 2,12,13
 800 723 800 723 848 728 c 1,14,-1
 848 663 l 1,15,16
 783 666 783 666 756 666 c 2,17,-1
 515 666 l 1,18,-1
 515 423 l 1,19,-1
 841 423 l 2,20,21
 858 423 858 423 887 424 c 2,22,-1
 936 427 l 1,23,-1
 937 362 l 1,24,25
 917 364 917 364 888 365 c 2,26,-1
 515 365 l 1,27,-1
 515 160 l 2,28,29
 515 125 515 125 523 97 c 0,30,31
 540 36 540 36 640.5 36 c 128,-1,32
 741 36 741 36 898 48 c 1,33,-1
 894 -19 l 1,34,35
 779 -27 779 -27 618.5 -27.5 c 128,-1,36
 458 -28 458 -28 418 45 c 0,37,38
 399 80 399 80 398 127 c 2,39,-1
 398 365 l 1,40,-1
 217 365 l 2,41,42
 157 365 157 365 110 360 c 1,0,-1
EndSplineSet
Substitution2: "'vrt2' Vertical Rotation & Alternates lookup 1 subtable" uni30E2.vert
EndChar

StartChar: uni30E3
Encoding: 12515 12515 160
Width: 1024
GlyphClass: 2
Flags: W
LayerCount: 2
Fore
SplineSet
134 397 m 1,0,1
 215 407 215 407 257 415 c 128,-1,2
 299 423 299 423 338 430 c 1,3,4
 297 582 297 582 275 628 c 1,5,-1
 390 654 l 1,6,7
 399 602 399 602 414 552 c 128,-1,8
 429 502 429 502 443 450 c 1,9,10
 497 460 497 460 551.5 470 c 128,-1,11
 606 480 606 480 688 496 c 0,12,13
 790 515 790 515 819 524 c 128,-1,14
 848 533 848 533 861 537 c 1,15,-1
 901 507 l 1,16,17
 849 337 849 337 649 203 c 1,18,-1
 604 228 l 1,19,20
 678 293 678 293 730 383 c 0,21,22
 754 423 754 423 762 455 c 1,23,24
 638 432 638 432 459 396 c 1,25,26
 497 260 497 260 530 136 c 128,-1,27
 563 12 563 12 575 -20.5 c 128,-1,28
 587 -53 587 -53 593 -71 c 1,29,-1
 475 -98 l 1,30,31
 469 -63 469 -63 448.5 12.5 c 128,-1,32
 428 88 428 88 401 192.5 c 128,-1,33
 374 297 374 297 352 375 c 1,34,35
 198 344 198 344 152 333 c 1,36,-1
 134 397 l 1,0,1
EndSplineSet
Substitution2: "'vrt2' Vertical Rotation & Alternates lookup 1 subtable" uni30E3.vert
EndChar

StartChar: uni30E4
Encoding: 12516 12516 161
Width: 1024
GlyphClass: 2
Flags: W
LayerCount: 2
Fore
SplineSet
71 518 m 1,0,1
 147 526 147 526 204 537.5 c 128,-1,2
 261 549 261 549 307 557 c 1,3,4
 257 739 257 739 236 788 c 1,5,-1
 359 817 l 1,6,7
 365 777 365 777 388.5 697.5 c 128,-1,8
 412 618 412 618 422 580 c 1,9,10
 485 592 485 592 548 604 c 0,11,12
 865 661 865 661 909 680 c 1,13,-1
 953 649 l 1,14,15
 895 457 895 457 664 301 c 1,16,-1
 618 327 l 1,17,18
 706 406 706 406 765 511 c 0,19,20
 792 559 792 559 801 595 c 1,21,22
 579 553 579 553 437 524 c 1,23,24
 481 362 481 362 515.5 242.5 c 128,-1,25
 550 123 550 123 558.5 89 c 128,-1,26
 567 55 567 55 577 27.5 c 128,-1,27
 587 0 587 0 593 -18 c 1,28,-1
 466 -49 l 1,29,30
 460 -10 460 -10 448.5 29.5 c 128,-1,31
 437 69 437 69 424.5 117.5 c 128,-1,32
 412 166 412 166 394.5 230.5 c 128,-1,33
 377 295 377 295 358 365 c 128,-1,34
 339 435 339 435 322 501 c 1,35,36
 95 455 95 455 88 453 c 1,37,-1
 71 518 l 1,0,1
EndSplineSet
Substitution2: "'vrt2' Vertical Rotation & Alternates lookup 1 subtable" uni30E4.vert
EndChar

StartChar: uni30E5
Encoding: 12517 12517 162
Width: 1024
GlyphClass: 2
Flags: W
LayerCount: 2
Fore
SplineSet
141 -5 m 1,0,-1
 141 67 l 1,1,2
 189 60 189 60 230 59 c 2,3,-1
 592 59 l 1,4,5
 624 237 624 237 637.5 349 c 128,-1,6
 651 461 651 461 652 484 c 1,7,-1
 338 484 l 2,8,9
 334 484 334 484 240 480 c 1,10,-1
 240 549 l 1,11,12
 319 542 319 542 337 542 c 2,13,-1
 633 542 l 2,14,15
 665 542 665 542 700 546 c 128,-1,16
 735 550 735 550 740 552 c 2,17,-1
 782 532 l 1,18,19
 775 515 775 515 772 493 c 128,-1,20
 769 471 769 471 763 429.5 c 128,-1,21
 757 388 757 388 749 337 c 0,22,23
 712 102 712 102 706 59 c 1,24,-1
 804 59 l 2,25,26
 844 59 844 59 887 67 c 1,27,-1
 887 -5 l 1,28,29
 841 0 841 0 804 0 c 2,30,-1
 230 0 l 2,31,32
 197 0 197 0 141 -5 c 1,0,-1
EndSplineSet
Substitution2: "'vrt2' Vertical Rotation & Alternates lookup 1 subtable" uni30E5.vert
EndChar

StartChar: uni30E6
Encoding: 12518 12518 163
Width: 1024
GlyphClass: 2
Flags: W
LayerCount: 2
Fore
SplineSet
84 55 m 1,0,-1
 84 129 l 1,1,2
 135 121 135 121 183 121 c 2,3,-1
 607 121 l 1,4,5
 622 202 622 202 649 386 c 128,-1,6
 676 570 676 570 678 624 c 1,7,-1
 308 624 l 2,8,9
 305 624 305 624 199 620 c 1,10,-1
 199 689 l 1,11,12
 285 682 285 682 307 682 c 2,13,-1
 651 682 l 2,14,15
 697 682 697 682 734 686.5 c 128,-1,16
 771 691 771 691 776 693 c 2,17,-1
 819 673 l 1,18,19
 813 661 813 661 809 632 c 128,-1,20
 805 603 805 603 798 553.5 c 128,-1,21
 791 504 791 504 781.5 444 c 128,-1,22
 772 384 772 384 763 322.5 c 128,-1,23
 754 261 754 261 745 208.5 c 128,-1,24
 736 156 736 156 731 121 c 1,25,-1
 850 121 l 2,26,27
 889 121 889 121 943 129 c 1,28,-1
 943 55 l 1,29,30
 892 60 892 60 850 60 c 2,31,-1
 183 60 l 2,32,33
 148 60 148 60 84 55 c 1,0,-1
EndSplineSet
Substitution2: "'vrt2' Vertical Rotation & Alternates lookup 1 subtable" uni30E6.vert
EndChar

StartChar: uni30E7
Encoding: 12519 12519 164
Width: 1024
GlyphClass: 2
Flags: W
LayerCount: 2
Fore
SplineSet
205 26 m 1,0,1
 275 22 275 22 301 22 c 2,2,-1
 700 22 l 1,3,-1
 700 248 l 1,4,-1
 356 248 l 1,5,-1
 244 247 l 1,6,-1
 244 310 l 1,7,-1
 355 305 l 1,8,-1
 700 305 l 1,9,-1
 700 519 l 1,10,-1
 344 519 l 2,11,12
 270 519 270 519 217 515 c 1,13,-1
 217 582 l 1,14,15
 289 577 289 577 344 577 c 2,16,-1
 734 577 l 2,17,18
 780 577 780 577 809 580 c 1,19,20
 808 566 808 566 808 549 c 2,21,-1
 808 27 l 1,22,-1
 809 -39 l 1,23,-1
 734 -36 l 1,24,-1
 301 -36 l 2,25,26
 270 -36 270 -36 205 -40 c 1,27,-1
 205 26 l 1,0,1
EndSplineSet
Substitution2: "'vrt2' Vertical Rotation & Alternates lookup 1 subtable" uni30E7.vert
EndChar

StartChar: uni30E8
Encoding: 12520 12520 165
Width: 1024
GlyphClass: 2
Flags: W
LayerCount: 2
Fore
SplineSet
159 6 m 1,0,-1
 159 73 l 1,1,2
 229 69 229 69 266 69 c 2,3,-1
 735 69 l 1,4,-1
 735 340 l 1,5,-1
 331 340 l 1,6,-1
 204 339 l 1,7,-1
 204 403 l 1,8,9
 263 398 263 398 330 398 c 2,10,-1
 735 398 l 1,11,-1
 735 655 l 1,12,-1
 316 655 l 2,13,14
 230 655 230 655 173 651 c 1,15,-1
 173 719 l 1,16,17
 250 714 250 714 316 714 c 2,18,-1
 770 714 l 2,19,20
 792 714 792 714 853 718 c 1,21,22
 852 705 852 705 852 685 c 2,23,-1
 852 79 l 1,24,-1
 853 7 l 1,25,-1
 770 10 l 1,26,-1
 266 10 l 2,27,28
 195 10 195 10 159 6 c 1,0,-1
EndSplineSet
Substitution2: "'vrt2' Vertical Rotation & Alternates lookup 1 subtable" uni30E8.vert
EndChar

